STARTFONT 2.3
FONT -FontForge-Roboto Condensed-Book-R-Condensed---28-280-72-72-P-138-ISO10646-1
SIZE 28 72 72  4
FONTBOUNDINGBOX 49 36 -21 -7
COMMENT "Generated by fontforge, http://fontforge.sourceforge.net"
COMMENT "Copyright 2011 Google Inc. All Rights Reserved."
STARTPROPERTIES 42
FOUNDRY "FontForge"
FAMILY_NAME "Roboto Condensed"
WEIGHT_NAME "Book"
SLANT "R"
SETWIDTH_NAME "Condensed"
ADD_STYLE_NAME ""
PIXEL_SIZE 28
POINT_SIZE 280
RESOLUTION_X 72
RESOLUTION_Y 72
SPACING "P"
AVERAGE_WIDTH 138
CHARSET_REGISTRY "ISO10646"
CHARSET_ENCODING "1"
FONTNAME_REGISTRY ""
CHARSET_COLLECTIONS "ISO8859-2 ISO8859-5 ISO8859-7 ISO8859-9 ISO8859-4 ISO10646-1"
BITS_PER_PIXEL 4
FONT_NAME "RobotoCondensed-Regular"
FACE_NAME "Roboto Condensed"
COPYRIGHT "Copyright 2011 Google Inc. All Rights Reserved."
FONT_VERSION "2.137; 2017"
FONT_ASCENT 21
FONT_DESCENT 7
UNDERLINE_POSITION -3
UNDERLINE_THICKNESS 2
X_HEIGHT 14
CAP_HEIGHT 19
DEFAULT_CHAR 1
RAW_ASCENT 750
RAW_DESCENT 250
NORM_SPACE 6
RELATIVE_WEIGHT 40
RELATIVE_SETWIDTH 50
SUPERSCRIPT_X 0
SUPERSCRIPT_Y 13
SUPERSCRIPT_SIZE 18
SUBSCRIPT_X 0
SUBSCRIPT_Y 3
SUBSCRIPT_SIZE 18
FIGURE_WIDTH 14
AVG_LOWERCASE_WIDTH 134
AVG_UPPERCASE_WIDTH 161
ENDPROPERTIES
CHARS 1296
STARTCHAR uni0000
ENCODING 0
SWIDTH 0 0
DWIDTH 0 0
BBX 1 1 0 0
BITMAP
00
ENDCHAR
STARTCHAR uni0002
ENCODING 2
SWIDTH 0 0
DWIDTH 0 0
BBX 1 1 0 0
BITMAP
00
ENDCHAR
STARTCHAR uni000D
ENCODING 13
SWIDTH 229 0
DWIDTH 6 0
BBX 1 1 0 0
BITMAP
00
ENDCHAR
STARTCHAR space
ENCODING 32
SWIDTH 229 0
DWIDTH 6 0
BBX 1 1 0 0
BITMAP
00
ENDCHAR
STARTCHAR exclam
ENCODING 33
SWIDTH 245 0
DWIDTH 7 0
BBX 3 20 2 0
BITMAP
CFB0
CFB0
CFB0
CFA0
BFA0
BFA0
BFA0
BFA0
BF90
BF90
AF90
AF90
AF90
AF80
2420
0000
0000
6C60
CFD0
8E80
ENDCHAR
STARTCHAR quotedbl
ENCODING 34
SWIDTH 319 0
DWIDTH 9 0
BBX 7 7 1 14
BITMAP
2FC07F70
2FC07F70
2FB07F70
2FA07F50
2F907F40
2F707F30
2F607F20
ENDCHAR
STARTCHAR numbersign
ENCODING 35
SWIDTH 547 0
DWIDTH 15 0
BBX 14 20 1 0
BITMAP
000004F9009F40
000007F600CF10
00000AF300FD00
00000CF003FA00
00000FC005F700
05FFFFFFFFFFF9
04EEEFEEEFFEE8
00008F500DF000
0000AF200FC000
0000DF003FA000
0000FD005F8000
0002FA008F5000
3FFFFFFFFFFFB0
3DDEFEDDFFDDA0
000AF300FD0000
000CF102FB0000
000ED004F80000
001FB007F60000
004F9009F40000
006F700BF10000
ENDCHAR
STARTCHAR dollar
ENCODING 36
SWIDTH 493 0
DWIDTH 14 0
BBX 12 26 1 -3
BITMAP
00000CF20000
00000CF20000
00000CF20000
0006CFFD7000
008FFFFFFB00
03FFB43AFF60
09FE1000DFC0
0CFA00007FF0
0CF900005FF2
0BFC00001551
07FF70000000
01DFFB300000
002DFFFC4000
00018EFFF800
0000017EFF70
00000002DFE0
111000005FF3
7FF000002FF4
5FF200003FF4
2FF800009FF1
0BFF7349FFA0
02DFFFFFFD10
0018DFFD8100
00000FD00000
00000FD00000
000009800000
ENDCHAR
STARTCHAR percent
ENCODING 37
SWIDTH 632 0
DWIDTH 18 0
BBX 16 20 1 0
BITMAP
01AEE91000000000
0CFCCFA000000000
4FA00BF2001B3000
7F4006F5008F4000
8F4005F601EB0000
7F4006F509F30000
4F900BF22FA00000
0BFCCFA0AF200000
01AEE913F9000000
0000000BE1000000
0000004F80000000
000000CE11AEE910
000006F60BFCCFA0
00000DD04FA00BF3
00007F506F5005F6
0001EC007F4004F7
0008F4006F5005F6
0005A0003FA00AF3
000000000BFCCFB0
0000000001AEE910
ENDCHAR
STARTCHAR ampersand
ENCODING 38
SWIDTH 543 0
DWIDTH 15 0
BBX 14 20 1 0
BITMAP
0004BEEB300000
004FFFFFF40000
00DFD33CFD0000
02FF5003FF1000
04FF2001FF2000
03FF4005FE0000
00EFA03EF80000
007FF8EFB00000
000CFFFA000000
000AFFD0000000
00BFFFF6001440
09FE4AFF204FE0
2FF601EFC06FC0
7FE0004FF89FA0
9FD00009FFEF60
8FE00001DFFE10
4FF500006FFB00
0CFE6227FFFF50
02DFFFFFFBCFE1
0018DFEB603FFA
ENDCHAR
STARTCHAR quotesingle
ENCODING 39
SWIDTH 174 0
DWIDTH 5 0
BBX 3 7 1 14
BITMAP
9F70
9F70
9F60
9F50
9F50
9F40
9F30
ENDCHAR
STARTCHAR parenleft
ENCODING 40
SWIDTH 313 0
DWIDTH 9 0
BBX 7 28 1 -6
BITMAP
00000390
00002EE0
0000CF40
0007F900
001EE100
007F9000
00DF4000
04FF1000
08FC0000
0BF80000
0EF70000
1FF50000
2FF40000
3FF30000
3FF30000
2FF40000
1FF40000
0EF60000
0BF80000
08FB0000
04FE0000
00DF4000
008F9000
001EE100
0007F800
0000CF30
00002ED0
00000390
ENDCHAR
STARTCHAR parenright
ENCODING 41
SWIDTH 318 0
DWIDTH 9 0
BBX 7 28 0 -6
BITMAP
0A100000
2FC10000
07F90000
00DF4000
005FC000
000DF500
0008FA00
0004FF10
0000EF50
0000CF80
0000AFB0
00008FD0
00007FE0
00006FF0
00006FF0
00007FE0
00008FD0
00009FB0
0000BF80
0000EF50
0003FF10
0007FB00
000CF500
003FC000
00BF4000
06F90000
2FC10000
0A100000
ENDCHAR
STARTCHAR asterisk
ENCODING 42
SWIDTH 430 0
DWIDTH 12 0
BBX 12 12 0 8
BITMAP
00000FF10000
00000EF10000
00000EF00000
19400DF00392
6FFD8EF7DFF6
39DFFFFFFD93
0003CFFC3000
0004FEEF3000
001EF57FD100
00BFA00CFA00
01AE1003FB00
000200003000
ENDCHAR
STARTCHAR plus
ENCODING 43
SWIDTH 496 0
DWIDTH 14 0
BBX 12 15 1 2
BITMAP
00003CC20000
00004FF20000
00004FF20000
00004FF20000
00004FF20000
00004FF20000
CFFFFFFFFFFA
CFFFFFFFFFFA
56668FF76664
00004FF20000
00004FF20000
00004FF20000
00004FF20000
00004FF20000
00003AA20000
ENDCHAR
STARTCHAR comma
ENCODING 44
SWIDTH 196 0
DWIDTH 6 0
BBX 5 7 0 -4
BITMAP
04FF30
04FF30
04FF20
07FE00
0CF900
4FE200
2B5000
ENDCHAR
STARTCHAR hyphen
ENCODING 45
SWIDTH 248 0
DWIDTH 7 0
BBX 7 3 0 6
BITMAP
5FFFFF40
5FFFFF40
01111100
ENDCHAR
STARTCHAR period
ENCODING 46
SWIDTH 263 0
DWIDTH 7 0
BBX 4 3 2 0
BITMAP
9FA0
FFF1
9EA0
ENDCHAR
STARTCHAR slash
ENCODING 47
SWIDTH 370 0
DWIDTH 10 0
BBX 10 22 0 -2
BITMAP
0000000BF4
0000001FE0
0000006FA0
000000BF50
000001FF10
000005FB00
00000AF600
00000EF100
00004FB000
00009F7000
0000EF2000
0004FC0000
0008F70000
000DF20000
003FD00000
008F800000
00DF300000
02FD000000
07F9000000
0CF4000000
2FE0000000
6F90000000
ENDCHAR
STARTCHAR zero
ENCODING 48
SWIDTH 493 0
DWIDTH 14 0
BBX 12 20 1 0
BITMAP
0006CEEB5000
00AFFFFFF700
05FF923BFF20
0BFB0001EF80
1FF500008FD0
3FF200005FF0
5FF100004FF2
6FF000003FF3
6FF000003FF3
6FF000003FF4
6FF000003FF4
6FF000003FF3
6FF000003FF3
5FF100004FF2
3FF300005FF0
1FF600009FC0
0BFC0001EF80
04FF922AFF20
009FFFFFF700
0006CEEB5000
ENDCHAR
STARTCHAR one
ENCODING 49
SWIDTH 493 0
DWIDTH 14 0
BBX 7 20 2 0
BITMAP
000028C0
0029FFC0
29FFFFC0
CFFBCFC0
CA309FC0
10009FC0
00009FC0
00009FC0
00009FC0
00009FC0
00009FC0
00009FC0
00009FC0
00009FC0
00009FC0
00009FC0
00009FC0
00009FC0
00009FC0
00009FC0
ENDCHAR
STARTCHAR two
ENCODING 50
SWIDTH 493 0
DWIDTH 14 0
BBX 12 20 1 0
BITMAP
0018DEEC6000
02DFFFFFF900
0CFE623BFF50
4FF50001EFB0
8FE000009FE0
AFC000007FE0
121000008FC0
00000000CF80
00000004FF30
0000000CFA00
0000008FE200
000005FF6000
00002EFA0000
0000CFD10000
0009FE300000
005FF6000000
02EF90000000
1DFC11111111
6FFFFFFFFFFB
6FFFFFFFFFFB
ENDCHAR
STARTCHAR three
ENCODING 51
SWIDTH 493 0
DWIDTH 14 0
BBX 11 20 1 0
BITMAP
0018DFEA3000
02DFFFFFF500
0BFE624CFE10
3FF50002FF70
7FF00000CFA0
48700000AFB0
00000000CF90
00000002FF50
0000014DFC00
0005FFFFB100
0005FFFFD400
0000124CFE30
00000001DFA0
000000008FD0
586000007FE0
9FE000008FD0
5FF40000DFA0
0DFE523BFF30
03EFFFFFF700
0029DFEB4000
ENDCHAR
STARTCHAR four
ENCODING 52
SWIDTH 493 0
DWIDTH 14 0
BBX 13 20 0 0
BITMAP
00000001EFC000
00000009FFC000
0000002FFFC000
000000AFFFC000
000003FEBFC000
00000CF7AFC000
00005FD0AFC000
0000DF60AFC000
0006FD00AFC000
001EF500AFC000
007FC000AFC000
01EF4000AFC000
09FB0000AFC000
1FFFFFFFFFFFF0
3FFFFFFFFFFFF0
01111111AFC110
00000000AFC000
00000000AFC000
00000000AFC000
00000000AFC000
ENDCHAR
STARTCHAR five
ENCODING 53
SWIDTH 493 0
DWIDTH 14 0
BBX 11 20 2 0
BITMAP
09FFFFFFFF10
0AFFFFFFFF10
0CFA55555500
0DF600000000
0EF400000000
0FF300000000
2FF200000000
3FF6CEE92000
4FFFFFFFE200
6FFB55AFFB00
0460000AFF30
00000002FF70
00000000EF90
00000000CF90
88200000DF90
DF700001FF70
9FD00007FF20
2FFB316FFB00
06FFFFFFD200
004BEFD81000
ENDCHAR
STARTCHAR six
ENCODING 54
SWIDTH 493 0
DWIDTH 14 0
BBX 12 20 1 0
BITMAP
000006BEF000
0002DFFFF000
002EFF942000
00BFE3000000
03FF50000000
08FD00000000
0CF800000000
0EF67DFD9100
1FFDFFFFFC10
2FFFC428FF90
3FFC1000AFE1
3FF500004FF4
3FF300001FF6
2FF500000FF6
0FF600001FF5
0CFB00003FF3
07FF2000AFE0
01DFD428FF70
003EFFFFFB00
0002AEFC7000
ENDCHAR
STARTCHAR seven
ENCODING 55
SWIDTH 493 0
DWIDTH 14 0
BBX 12 20 1 0
BITMAP
DFFFFFFFFFF9
DFFFFFFFFFF8
111111113FF3
000000008FC0
00000000DF70
00000004FF10
0000000AFB00
0000001FF500
0000006FE000
000000CF9000
000003FF3000
000008FD0000
00000EF70000
00005FF20000
0000BFB00000
0001FF600000
0007FE100000
000DFA000000
003FF4000000
009FE0000000
ENDCHAR
STARTCHAR eight
ENCODING 56
SWIDTH 493 0
DWIDTH 14 0
BBX 12 20 1 0
BITMAP
0006CEEB4000
00AFFFFFF700
05FFA33CFF30
0BFD0001FF80
0FF80000BFB0
0FF600009FC0
0EF70000AFB0
0AFC0001EF70
03FF812BFD10
005EFFFFD300
006EFFFFD300
05FF723AFE30
0EF80000BFB0
4FF200005FF1
6FF000004FF3
5FF200005FF2
2FF70000AFE0
0BFE6228FF80
01DFFFFFFB00
0018DFEC6000
ENDCHAR
STARTCHAR nine
ENCODING 57
SWIDTH 493 0
DWIDTH 14 0
BBX 11 20 1 0
BITMAP
0018DFD91000
01CFFFFFD200
09FF725EFB00
1FF80006FF30
5FF10000EF80
8FD00000AFB0
8FC000008FD0
8FD000006FE0
6FF100007FF0
3FF70002EFF0
0CFE514DFFE0
03EFFFFFEFD0
003BFFD68FC0
00000100AF90
00000000EF60
00000005FF10
0000003EF900
000349FFD100
003FFFFC2000
003EDA500000
ENDCHAR
STARTCHAR colon
ENCODING 58
SWIDTH 233 0
DWIDTH 7 0
BBX 4 15 1 0
BITMAP
0AF9
1FFF
0AE9
0000
0000
0000
0000
0000
0000
0000
0000
0000
0AF9
1FFF
0AE9
ENDCHAR
STARTCHAR semicolon
ENCODING 59
SWIDTH 202 0
DWIDTH 6 0
BBX 5 19 0 -4
BITMAP
02DE50
06FFA0
02DE50
000000
000000
000000
000000
000000
000000
000000
000000
000000
01FF60
01FF60
02FF50
04FF30
09FC00
2EF400
1A7000
ENDCHAR
STARTCHAR less
ENCODING 60
SWIDTH 445 0
DWIDTH 12 0
BBX 10 12 1 3
BITMAP
0000000176
0000006EF7
00005DFFF5
004CFFE810
3BFFE81000
EFE8100000
EFE7100000
3BFFE81000
004CFFE810
00005DFFF5
0000006EF7
0000000176
ENDCHAR
STARTCHAR equal
ENCODING 61
SWIDTH 479 0
DWIDTH 13 0
BBX 10 9 2 5
BITMAP
FFFFFFFFF9
FFFFFFFFF9
3333333332
0000000000
0000000000
0000000000
FFFFFFFFF9
FFFFFFFFF9
3333333332
ENDCHAR
STARTCHAR greater
ENCODING 62
SWIDTH 459 0
DWIDTH 13 0
BBX 11 12 1 3
BITMAP
2A3000000000
2FFA20000000
1CFFFA200000
004BFFF92000
00003AFFF920
00000029FFB0
0000003AFFB0
00004BFFF920
005CFFF92000
1DFFF9200000
2FFA20000000
2A3000000000
ENDCHAR
STARTCHAR question
ENCODING 63
SWIDTH 421 0
DWIDTH 12 0
BBX 10 20 1 0
BITMAP
006CEEB500
0AFFFFFF70
6FFB45DFF2
BFD0002FF7
BD70000DF9
0000000DF9
0000001FF6
0000008FF2
000003FF80
00001DFC00
0000BFE200
0004FF5000
0008FE0000
000AFC0000
0003430000
0000000000
0000000000
0005C70000
000BFE0000
0006E90000
ENDCHAR
STARTCHAR at
ENCODING 64
SWIDTH 769 0
DWIDTH 22 0
BBX 20 26 1 -6
BITMAP
00000017CEFEB6100000
000006EFFDDEFFD30000
00008FE7100028FF4000
0006FC200000003EE200
002EE20000000004F900
009F500000000000AF10
01FD00003CFD81004F60
07F70003EFCEFC000EA0
0BF3000DF401FD000BD0
0EE0006F9002FB0009F0
2FB000BF3003FA0008F2
4F9001FE0005F90008F2
5F8004FB0006F80007F2
6F7006FA0007F60008F1
6F7007F90008F5000AF0
5F7007F9000AF4000DC0
4F9006FC001EF5003F80
2FB002FF41AFF800BF20
0EE000BFFFE4FFADF600
0AF4001BEC305DFC5000
05FB0000000000000000
00DF4000000000000000
004FE300000000000000
0007FE71000055000000
00005EFFCBCEFA000000
0000017BEFEB71000000
ENDCHAR
STARTCHAR A
ENCODING 65
SWIDTH 576 0
DWIDTH 16 0
BBX 16 20 0 0
BITMAP
0000002FF5000000
0000007FF9000000
000000CFFE000000
000002FFEF400000
000007FCAF900000
00000BF76FE00000
00001FF31FF30000
00006FE00CF80000
0000BFA008FD0000
0001FF5003FF3000
0005FF1000EF8000
000AFC0000AFD000
001EF800005FF200
005FFFFFFFFFF700
00AFFFFFFFFFFC00
00EFA2222228FF20
04FF40000002FF70
09FE00000000CFC0
0EFA000000007FF1
4FF5000000002FF6
ENDCHAR
STARTCHAR B
ENCODING 66
SWIDTH 545 0
DWIDTH 15 0
BBX 12 20 2 0
BITMAP
DFFFFFEC8100
DFFFFFFFFD10
DFB22249FFA0
DFA00000AFF1
DFA000005FF3
DFA000004FF4
DFA000006FF3
DFA00000BFD0
DFA00029FF50
DFFFFFFFE600
DFFFFFFFFA10
DFA22236EFC0
DFA000005FF4
DFA000000FF8
DFA000000DFA
DFA000000FF9
DFA000006FF6
DFB22237FFE1
DFFFFFFFFE40
DFFFFFFD9200
ENDCHAR
STARTCHAR C
ENCODING 67
SWIDTH 566 0
DWIDTH 16 0
BBX 14 20 1 0
BITMAP
00005BEFEB5000
001BFFFFFFF900
00AFFA434BFF70
05FF800000BFE1
0BFD0000004FF5
0FF80000001FF8
3FF500000009A6
4FF40000000000
4FF30000000000
4FF30000000000
4FF30000000000
4FF30000000000
4FF40000000000
3FF50000000895
0FF80000001FF7
0BFD0000004FF4
05FF600000BFE1
00BFF9324BFF60
001BFFFFFFF800
00006BEFDA4000
ENDCHAR
STARTCHAR D
ENCODING 68
SWIDTH 570 0
DWIDTH 16 0
BBX 13 20 2 0
BITMAP
DFFFFED9300000
DFFFFFFFF80000
DFB2236CFF8000
DFA000009FF300
DFA000001EF900
DFA0000009FD00
DFA0000006FF10
DFA0000004FF30
DFA0000004FF30
DFA0000004FF40
DFA0000004FF40
DFA0000004FF30
DFA0000004FF30
DFA0000006FF10
DFA0000009FE00
DFA000001EF900
DFA00000AFF300
DFB2236CFF8000
DFFFFFFFF80000
DFFFFEC8200000
ENDCHAR
STARTCHAR E
ENCODING 69
SWIDTH 496 0
DWIDTH 14 0
BBX 11 20 2 0
BITMAP
DFFFFFFFFFB0
DFFFFFFFFFB0
DFB222222220
DFA000000000
DFA000000000
DFA000000000
DFA000000000
DFA000000000
DFA000000000
DFFFFFFFFA00
DFFFFFFFFA00
DFB222222100
DFA000000000
DFA000000000
DFA000000000
DFA000000000
DFA000000000
DFB222222220
DFFFFFFFFFD0
DFFFFFFFFFD0
ENDCHAR
STARTCHAR F
ENCODING 70
SWIDTH 480 0
DWIDTH 13 0
BBX 11 20 2 0
BITMAP
DFFFFFFFFF80
DFFFFFFFFF80
DFB222222210
DFA000000000
DFA000000000
DFA000000000
DFA000000000
DFA000000000
DFA000000000
DFFFFFFFF600
DFFFFFFFF600
DFB222222100
DFA000000000
DFA000000000
DFA000000000
DFA000000000
DFA000000000
DFA000000000
DFA000000000
DFA000000000
ENDCHAR
STARTCHAR G
ENCODING 71
SWIDTH 590 0
DWIDTH 17 0
BBX 14 20 1 0
BITMAP
00017CEFEB5000
002DFFFFFFFA00
01DFF8434BFF80
07FF500000CFF1
0CFB0000004FF5
1FF70000001FF8
3FF50000000121
4FF40000000000
4FF30000000000
4FF30000000000
4FF30008FFFFF9
4FF30008FFFFF9
4FF40001222EF9
3FF50000000EF9
0FF80000000EF9
0BFD0000000EF9
05FF8000001EF9
00BFFB4347EFF6
001BFFFFFFFF70
00005AEFEC8200
ENDCHAR
STARTCHAR H
ENCODING 72
SWIDTH 620 0
DWIDTH 17 0
BBX 14 20 2 0
BITMAP
DFA00000005FF3
DFA00000005FF3
DFA00000005FF3
DFA00000005FF3
DFA00000005FF3
DFA00000005FF3
DFA00000005FF3
DFA00000005FF3
DFA00000005FF3
DFFFFFFFFFFFF3
DFFFFFFFFFFFF3
DFB22222227FF3
DFA00000005FF3
DFA00000005FF3
DFA00000005FF3
DFA00000005FF3
DFA00000005FF3
DFA00000005FF3
DFA00000005FF3
DFA00000005FF3
ENDCHAR
STARTCHAR I
ENCODING 73
SWIDTH 250 0
DWIDTH 7 0
BBX 3 20 2 0
BITMAP
BFC0
BFC0
BFC0
BFC0
BFC0
BFC0
BFC0
BFC0
BFC0
BFC0
BFC0
BFC0
BFC0
BFC0
BFC0
BFC0
BFC0
BFC0
BFC0
BFC0
ENDCHAR
STARTCHAR J
ENCODING 74
SWIDTH 483 0
DWIDTH 14 0
BBX 12 20 0 0
BITMAP
000000000FF8
000000000FF8
000000000FF8
000000000FF8
000000000FF8
000000000FF8
000000000FF8
000000000FF8
000000000FF8
000000000FF8
000000000FF8
000000000FF8
000000000FF8
000000000FF8
2CC400001FF7
1FF700003FF6
0DFD00009FF2
07FFB438FFA0
00AFFFFFFD10
0006CEFD8100
ENDCHAR
STARTCHAR K
ENCODING 75
SWIDTH 544 0
DWIDTH 15 0
BBX 13 20 2 0
BITMAP
DFA000000BFF40
DFA000006FF800
DFA00003FFC000
DFA0000CFE2000
DFA0009FF50000
DFA004FF900000
DFA01EFD100000
DFA0BFF3000000
DFA7FF70000000
DFDFFF90000000
DFFFFFF4000000
DFFE2EFD000000
DFF305FF700000
DFA000BFF20000
DFA0003FFB0000
DFA00008FF5000
DFA00001DFE100
DFA000005FF900
DFA000000BFF30
DFA0000002FFC0
ENDCHAR
STARTCHAR L
ENCODING 76
SWIDTH 475 0
DWIDTH 13 0
BBX 11 20 2 0
BITMAP
DFA000000000
DFA000000000
DFA000000000
DFA000000000
DFA000000000
DFA000000000
DFA000000000
DFA000000000
DFA000000000
DFA000000000
DFA000000000
DFA000000000
DFA000000000
DFA000000000
DFA000000000
DFA000000000
DFA000000000
DFB222222210
DFFFFFFFFF70
DFFFFFFFFF70
ENDCHAR
STARTCHAR M
ENCODING 77
SWIDTH 755 0
DWIDTH 21 0
BBX 17 20 2 0
BITMAP
DFF80000000006FFF0
DFFD000000000BFFF0
DFFF300000001FFFF0
DFFF700000005FFFF0
DFEFC0000000AFEFF0
DFAFF2000000EFAFF0
DF7DF7000005FF6FF0
DF89FB000009FA6FF0
DF84FF10000EF56FF0
DF90DF60004FF17FF0
DF909FB0009FA07FF0
DFA04FF100DF507FF0
DFA00DF503FF108FF0
DFA009FA08FA008FF0
DFA004FE0DF5008FF0
DFA000DF7FF1008FF0
DFA0009FFFA0008FF0
DFA0004FFF50008FF0
DFA0000EFF10008FF0
DFA00009FA00008FF0
ENDCHAR
STARTCHAR N
ENCODING 78
SWIDTH 619 0
DWIDTH 17 0
BBX 14 20 2 0
BITMAP
DFD00000005FF2
DFF60000005FF2
DFFE1000005FF2
DFFF7000005FF2
DFEFE100005FF2
DFADF700005FF2
DFA5FE10005FF2
DFA0CF80005FF2
DFA05FE1005FF2
DFA00CF8005FF2
DFA004FF205FF2
DFA000CF905FF2
DFA0004FF25FF2
DFA0000BF95FF2
DFA00003FF8FF2
DFA00000AFEFF2
DFA000003FFFF2
DFA000000AFFF2
DFA0000002FFF2
DFA00000009FF2
ENDCHAR
STARTCHAR O
ENCODING 79
SWIDTH 600 0
DWIDTH 17 0
BBX 15 20 1 0
BITMAP
00006BEFEA400000
001BFFFFFFF90000
00BFFB546CFF8000
05FF800000AFF200
0BFD0000001FF800
0FF80000000BFC00
3FF500000008FF00
4FF400000007FF10
4FF300000006FF10
4FF300000006FF10
4FF300000006FF10
4FF300000006FF10
4FF400000007FF10
3FF500000008FF00
0FF80000000BFC00
0BFD0000001FF800
05FF800000AFF200
00BFFA546BFF9000
001BFFFFFFFA0000
00005BEFEA500000
ENDCHAR
STARTCHAR P
ENCODING 80
SWIDTH 554 0
DWIDTH 16 0
BBX 13 20 2 0
BITMAP
DFFFFFFEB50000
DFFFFFFFFF9000
DFB22235CFF700
DFA000000DFE10
DFA0000005FF40
DFA0000002FF60
DFA0000002FF60
DFA0000004FF50
DFA000000AFF10
DFA000039FFA00
DFFFFFFFFFC100
DFFFFFFFD81000
DFB22221000000
DFA00000000000
DFA00000000000
DFA00000000000
DFA00000000000
DFA00000000000
DFA00000000000
DFA00000000000
ENDCHAR
STARTCHAR Q
ENCODING 81
SWIDTH 600 0
DWIDTH 17 0
BBX 15 23 1 -3
BITMAP
00006CEFDA300000
001CFFFFFFF80000
00CFFA546DFF6000
07FF600000BFE100
0DFC0000002FF600
2FF60000000CFA00
4FF30000000AFD00
5FF200000008FE00
6FF100000008FF00
6FF100000008FF00
6FF100000008FF00
6FF100000008FF00
5FF200000008FE00
4FF30000000AFD00
2FF60000000CFA00
0DFC0000002FF600
07FF600000BFE100
00CFFA546CFF7000
002CFFFFFFF90000
00006BEFDFFD3000
0000000005FFE400
00000000004EFE10
000000000003D300
ENDCHAR
STARTCHAR R
ENCODING 82
SWIDTH 530 0
DWIDTH 15 0
BBX 13 20 2 0
BITMAP
DFFFFFEC810000
DFFFFFFFFD2000
DFB22249FFC000
DFA000008FF400
DFA000001FF800
DFA000000EF900
DFA000000EF900
DFA000001FF700
DFA000008FF300
DFA00017FFB000
DFFFFFFFFD1000
DFFFFFFFC10000
DFB222BFE10000
DFA0003FF70000
DFA0000CFD0000
DFA00005FF6000
DFA00000DFD000
DFA000006FF500
DFA000001EFC00
DFA0000008FF30
ENDCHAR
STARTCHAR S
ENCODING 83
SWIDTH 518 0
DWIDTH 15 0
BBX 13 20 1 0
BITMAP
0005BEFD930000
00AFFFFFFF6000
08FFB435CFF400
1EFB00000DFC00
4FF5000006FF20
4FF4000003FF40
2FF80000000000
0CFF6000000000
03EFFC50000000
003DFFFE820000
00006CFFFE6000
00000039FFF500
000000003EFE00
0000000006FF30
CFB0000003FF50
9FE0000004FF50
4FF700000AFF20
0AFF9424AFFA00
01AFFFFFFFC100
0005ADFEB60000
ENDCHAR
STARTCHAR T
ENCODING 84
SWIDTH 520 0
DWIDTH 15 0
BBX 14 20 0 0
BITMAP
3FFFFFFFFFFFFC
3FFFFFFFFFFFFC
022222EF922222
000000EF800000
000000EF800000
000000EF800000
000000EF800000
000000EF800000
000000EF800000
000000EF800000
000000EF800000
000000EF800000
000000EF800000
000000EF800000
000000EF800000
000000EF800000
000000EF800000
000000EF800000
000000EF800000
000000EF800000
ENDCHAR
STARTCHAR U
ENCODING 85
SWIDTH 561 0
DWIDTH 16 0
BBX 13 20 1 0
BITMAP
3FF40000008FF0
3FF40000008FF0
3FF40000008FF0
3FF40000008FF0
3FF40000008FF0
3FF40000008FF0
3FF40000008FF0
3FF40000008FF0
3FF40000008FF0
3FF40000008FF0
3FF40000008FF0
3FF40000008FF0
3FF40000008FF0
3FF40000008FF0
3FF50000009FF0
1FF7000000BFD0
0CFD000003FF90
05FFC5236DFE20
008FFFFFFFE400
0004ADFED82000
ENDCHAR
STARTCHAR V
ENCODING 86
SWIDTH 560 0
DWIDTH 16 0
BBX 15 20 0 0
BITMAP
4FF700000000BFE0
0EFB00000001FFA0
0AFF10000005FF50
05FF40000009FF10
01FF9000000DFB00
00BFD000002FF700
006FF200007FF200
002FF60000BFC000
000CFA0001FF8000
0007FE0004FF3000
0003FF4009FD0000
0000DF800DF90000
00008FC02FF40000
00004FF16FE00000
00000EF6BFA00000
00000AFAEF500000
000005FFFF100000
000001FFFB000000
000000BFF6000000
0000006FF1000000
ENDCHAR
STARTCHAR W
ENCODING 87
SWIDTH 761 0
DWIDTH 21 0
BBX 20 20 1 0
BITMAP
EF8000005FE000000FF7
BFB000008FF300003FF4
8FE00000CFF600005FF1
5FF20000FFFA00008FD0
2FF40003FEFD0000BFB0
0EF70007F9EF1000DF80
0BFA000AF6BF5001FF50
08FC000EF27F8004FF20
05FF002FE04FB006FE00
02FF306FA01FE009FB00
00EF609F700CF30CF800
00BF80DF3009F60EF500
008FB1FE0005FA2FF200
005FE4FB0002FD5FE000
002FF8F70000DF8FB000
000EFDF40000AFDF8000
000CFFF100006FFF5000
0009FFC000003FFF2000
0006FF8000000EFE0000
0003FF5000000BFB0000
ENDCHAR
STARTCHAR X
ENCODING 88
SWIDTH 550 0
DWIDTH 15 0
BBX 14 20 1 0
BITMAP
AFF3000000BFF3
3FFB000004FFA0
0AFF30000BFF20
02FFA0003FF900
009FF300BFF200
002FFA03FF8000
0008FF2AFE1000
0001EFCFF80000
00007FFFE10000
00001EFF700000
00001EFF800000
00009FFFF20000
0002FFBFF90000
000AFF29FF2000
003FF902FFA000
00AFF200AFF300
03FF90002FFA00
0BFF20000AFF30
4FF9000003FFB0
CFF2000000AFF4
ENDCHAR
STARTCHAR Y
ENCODING 89
SWIDTH 524 0
DWIDTH 15 0
BBX 15 20 0 0
BITMAP
6FF70000000CFE10
0DFD0000003FF800
07FF4000009FF200
01EFA00001EFA000
008FF10006FF3000
002FF7000CFB0000
000AFD004FF50000
0003FF40AFD00000
0000BFB1FF600000
00005FF9FE000000
00000DFFF7000000
000006FFF1000000
000000EFA0000000
000000EF90000000
000000EF90000000
000000EF90000000
000000EF90000000
000000EF90000000
000000EF90000000
000000EF90000000
ENDCHAR
STARTCHAR Z
ENCODING 90
SWIDTH 522 0
DWIDTH 15 0
BBX 13 20 1 0
BITMAP
AFFFFFFFFFFF10
AFFFFFFFFFFF10
222222223EFB00
000000007FF300
00000001EF9000
00000009FE1000
0000003FF70000
000000BFD00000
000005FF500000
00000DFC000000
00007FF3000000
0001EFA0000000
0009FE20000000
003FF700000000
00BFD100000000
05FF5000000000
0DFC0000000000
7FF52222222210
BFFFFFFFFFFF70
BFFFFFFFFFFF70
ENDCHAR
STARTCHAR bracketleft
ENCODING 91
SWIDTH 250 0
DWIDTH 7 0
BBX 6 27 1 -4
BITMAP
2FFFF6
2FFFF6
2FF510
2FF400
2FF400
2FF400
2FF400
2FF400
2FF400
2FF400
2FF400
2FF400
2FF400
2FF400
2FF400
2FF400
2FF400
2FF400
2FF400
2FF400
2FF400
2FF400
2FF400
2FF400
2FF510
2FFFF6
2FFFF6
ENDCHAR
STARTCHAR backslash
ENCODING 92
SWIDTH 369 0
DWIDTH 10 0
BBX 10 22 0 -2
BITMAP
2FF2000000
0CF7000000
08FC000000
03FF100000
00DF600000
008FB00000
004FF10000
000EF50000
0009FA0000
0004FE0000
0000EF5000
0000AF9000
00005FE000
00001FF400
00000AF900
000006FD00
000001FF30
000000BF80
0000006FD0
0000002FF2
0000000CF7
00000007FC
ENDCHAR
STARTCHAR bracketright
ENCODING 93
SWIDTH 250 0
DWIDTH 7 0
BBX 5 27 0 -4
BITMAP
9FFFF0
9FFFF0
117FF0
007FF0
007FF0
007FF0
007FF0
007FF0
007FF0
007FF0
007FF0
007FF0
007FF0
007FF0
007FF0
007FF0
007FF0
007FF0
007FF0
007FF0
007FF0
007FF0
007FF0
007FF0
117FF0
9FFFF0
9FFFF0
ENDCHAR
STARTCHAR asciicircum
ENCODING 94
SWIDTH 371 0
DWIDTH 10 0
BBX 9 10 1 10
BITMAP
000CF30000
002FF80000
007FFD0000
00CFDF3000
02FD7F8000
08F82FD000
0DF30DF300
3FE008F800
8F9004FD00
DF5000EF40
ENDCHAR
STARTCHAR underscore
ENCODING 95
SWIDTH 404 0
DWIDTH 11 0
BBX 11 3 0 -3
BITMAP
AFFFFFFFFFF0
AFFFFFFFFFF0
111111111110
ENDCHAR
STARTCHAR grave
ENCODING 96
SWIDTH 309 0
DWIDTH 9 0
BBX 6 4 1 17
BITMAP
BFF300
1CFD10
02DFB0
003DB3
ENDCHAR
STARTCHAR a
ENCODING 97
SWIDTH 479 0
DWIDTH 13 0
BBX 11 15 1 0
BITMAP
0017CEEC6000
01DFFFFFF800
0AFE623BFF20
1FF60001FF60
15510000EF70
00000000EF70
0017CEFFFF70
02DFFECCFF70
0DFD5000EF70
4FF40000EF70
6FF00000EF70
6FF20003FF70
2FFC448EFF80
09FFFFFCDF90
007DFE91BFD0
ENDCHAR
STARTCHAR b
ENCODING 98
SWIDTH 493 0
DWIDTH 14 0
BBX 12 21 1 0
BITMAP
3FF300000000
3FF300000000
3FF300000000
3FF300000000
3FF300000000
3FF300000000
3FF36CFEA200
3FFAFFFFFE20
3FFF9337FFB0
3FF900007FF2
3FF300002FF5
3FF300000EF7
3FF300000DF8
3FF300000DF8
3FF300000DF8
3FF300000EF7
3FF300002FF5
3FF900007FF2
3FFF9337FFB0
3FF9FFFFFE20
3FF16CFEA200
ENDCHAR
STARTCHAR c
ENCODING 99
SWIDTH 461 0
DWIDTH 13 0
BBX 11 15 1 0
BITMAP
0018DEEC5000
02DFFFFFF900
0BFE6239FF40
3FF50000CFA0
7FE000007FD0
9FC000001430
AFB000000000
AFB000000000
AFB000000000
9FC000000000
7FE000005CB0
3FF40000AFB0
0CFE5228FF40
02DFFFFFF800
0018DEEB5000
ENDCHAR
STARTCHAR d
ENCODING 100
SWIDTH 496 0
DWIDTH 14 0
BBX 11 21 1 0
BITMAP
000000007FF0
000000007FF0
000000007FF0
000000007FF0
000000007FF0
000000007FF0
003AEFC57FF0
03EFFFFFCFF0
0DFE734AFFF0
4FF60000AFF0
7FE000007FF0
9FC000007FF0
AFB000007FF0
BFB000007FF0
AFB000007FF0
9FC000007FF0
7FE000007FF0
3FF50000BFF0
0CFE634AFFF0
03EFFFFFBFF0
002AEFC54FF0
ENDCHAR
STARTCHAR e
ENCODING 101
SWIDTH 468 0
DWIDTH 13 0
BBX 11 15 1 0
BITMAP
0017CEEC6000
01CFFFFFF900
09FE623AFF30
1FF50000DF90
6FE000008FC0
8FC000006FE0
9FFFFFFFFFF0
AFFFFFFFFFF0
AFC111111110
9FD000000000
7FF100000000
3FF700000600
0BFF7214AF90
02DFFFFFFE40
0018CEED9200
ENDCHAR
STARTCHAR f
ENCODING 102
SWIDTH 316 0
DWIDTH 9 0
BBX 9 21 0 0
BITMAP
00004BEE70
0004FFFF80
000CFE6320
001FF80000
002FF50000
002FF40000
1FFFFFFC00
1EEFFFEC00
002FF40000
002FF40000
002FF40000
002FF40000
002FF40000
002FF40000
002FF40000
002FF40000
002FF40000
002FF40000
002FF40000
002FF40000
002FF40000
ENDCHAR
STARTCHAR g
ENCODING 103
SWIDTH 492 0
DWIDTH 14 0
BBX 11 21 1 -6
BITMAP
003AEEC53FF0
03EFFFFFAFF0
0DFE734AFFF0
3FF60000BFF0
7FF100006FF0
9FC000006FF0
AFB000006FF0
AFB000006FF0
AFB000006FF0
9FC000006FF0
7FF000006FF0
3FF60000AFF0
0CFE633AFFF0
03EFFFFFCFF0
002AEFC56FF0
000000007FF0
000000009FD0
01700001EFA0
09FA314BFF40
04EFFFFFF800
0018CFEB5000
ENDCHAR
STARTCHAR h
ENCODING 104
SWIDTH 482 0
DWIDTH 14 0
BBX 11 21 1 0
BITMAP
3FF300000000
3FF300000000
3FF300000000
3FF300000000
3FF300000000
3FF300000000
3FF35CFE9100
3FFBFFFFFC00
3FFFA33AFF50
3FFB0000EF80
3FF40000BFA0
3FF30000AFB0
3FF30000AFB0
3FF30000AFB0
3FF30000AFB0
3FF30000AFB0
3FF30000AFB0
3FF30000AFB0
3FF30000AFB0
3FF30000AFB0
3FF30000AFB0
ENDCHAR
STARTCHAR i
ENCODING 105
SWIDTH 229 0
DWIDTH 6 0
BBX 4 20 1 0
BITMAP
0AD3
2FF9
0BE4
0000
0000
0FF6
0FF6
0FF6
0FF6
0FF6
0FF6
0FF6
0FF6
0FF6
0FF6
0FF6
0FF6
0FF6
0FF6
0FF6
ENDCHAR
STARTCHAR j
ENCODING 106
SWIDTH 223 0
DWIDTH 6 0
BBX 6 26 -1 -6
BITMAP
001CC1
005FF5
001DD2
000000
000000
002FF4
002FF4
002FF4
002FF4
002FF4
002FF4
002FF4
002FF4
002FF4
002FF4
002FF4
002FF4
002FF4
002FF4
002FF4
002FF4
002FF4
003FF4
13AFF1
5FFFB0
3EEA10
ENDCHAR
STARTCHAR k
ENCODING 107
SWIDTH 450 0
DWIDTH 13 0
BBX 12 21 1 0
BITMAP
3FF400000000
3FF400000000
3FF400000000
3FF400000000
3FF400000000
3FF400000000
3FF40008FF60
3FF4003FF900
3FF401DFC100
3FF409FE2000
3FF45FF60000
3FF5EF900000
3FFDFF400000
3FFFFFC00000
3FFF9FF60000
3FF70BFE1000
3FF402FF9000
3FF4008FF300
3FF4001DFC00
3FF40005FF70
3FF40000BFE2
ENDCHAR
STARTCHAR l
ENCODING 108
SWIDTH 229 0
DWIDTH 6 0
BBX 3 21 2 0
BITMAP
FF60
FF60
FF60
FF60
FF60
FF60
FF60
FF60
FF60
FF60
FF60
FF60
FF60
FF60
FF60
FF60
FF60
FF60
FF60
FF60
FF60
ENDCHAR
STARTCHAR m
ENCODING 109
SWIDTH 752 0
DWIDTH 21 0
BBX 19 15 1 0
BITMAP
3FF27CFE9103BEEC4000
3FFCFFFFFB5FFFFFF400
3FFF734CFFFE536EFC00
3FF70001EFF40007FF10
3FF30000CFD00004FF30
3FF30000AFB00003FF30
3FF30000AFB00003FF40
3FF30000AFB00003FF40
3FF30000AFB00003FF40
3FF30000AFB00003FF40
3FF30000AFB00003FF40
3FF30000AFB00003FF40
3FF30000AFB00003FF40
3FF30000AFB00003FF40
3FF30000AFB00003FF40
ENDCHAR
STARTCHAR n
ENCODING 110
SWIDTH 483 0
DWIDTH 14 0
BBX 11 15 1 0
BITMAP
3FF25CFE9100
3FFAFFFFFC00
3FFFA33AFF50
3FFB0000EF80
3FF40000BFA0
3FF30000AFB0
3FF30000AFB0
3FF30000AFB0
3FF30000AFB0
3FF30000AFB0
3FF30000AFB0
3FF30000AFB0
3FF30000AFB0
3FF30000AFB0
3FF30000AFB0
ENDCHAR
STARTCHAR o
ENCODING 111
SWIDTH 501 0
DWIDTH 14 0
BBX 12 15 1 0
BITMAP
0006CEEC6000
01BFFFFFFB10
09FF8228FF90
2FF900008FF2
6FF200001FF7
9FD000000CFA
AFB000000BFB
BFB000000AFB
AFB000000AFB
9FD000000BFA
6FF200000EF7
2FF800006FF2
09FF8226EFA0
01BFFFFFFC10
0006CEEC7000
ENDCHAR
STARTCHAR p
ENCODING 112
SWIDTH 493 0
DWIDTH 14 0
BBX 12 21 1 -6
BITMAP
3FF16DFEA200
3FFAFFFFFE20
3FFF8338FFB0
3FF700009FF1
3FF300003FF4
3FF300000FF6
3FF300000EF7
3FF300000EF8
3FF300000EF7
3FF300000FF6
3FF300003FF4
3FF600008FF1
3FFE6227FFA0
3FFCFFFFFE20
3FF47DFEA200
3FF300000000
3FF300000000
3FF300000000
3FF300000000
3FF300000000
3FF300000000
ENDCHAR
STARTCHAR q
ENCODING 113
SWIDTH 500 0
DWIDTH 14 0
BBX 11 21 1 -6
BITMAP
003AEFC64FF0
04FFFFFFCFF0
0DFE6229FFF0
4FF600009FF0
7FE000007FF0
AFC000007FF0
AFB000007FF0
BFB000007FF0
AFB000007FF0
9FC000007FF0
7FE000007FF0
4FF500009FF0
0DFE6228FFF0
03EFFFFFDFF0
003AEFC67FF0
000000007FF0
000000007FF0
000000007FF0
000000007FF0
000000007FF0
000000007FF0
ENDCHAR
STARTCHAR r
ENCODING 114
SWIDTH 304 0
DWIDTH 9 0
BBX 7 15 1 0
BITMAP
3FF39EC0
3FFCFFE0
3FFFC870
3FFB0000
3FF40000
3FF30000
3FF30000
3FF30000
3FF30000
3FF30000
3FF30000
3FF30000
3FF30000
3FF30000
3FF30000
ENDCHAR
STARTCHAR s
ENCODING 115
SWIDTH 455 0
DWIDTH 13 0
BBX 11 15 1 0
BITMAP
002AEFEA2000
03EFFFFFE300
0DFD425EFD00
2FF50006FF20
2FF500016610
0EFD40000000
04FFFC610000
003BFFFE6000
000039FFF800
0000002CFF20
59700002FF50
7FF10002FF50
2FFC413BFF10
06FFFFFFF600
003AEFEB4000
ENDCHAR
STARTCHAR t
ENCODING 116
SWIDTH 295 0
DWIDTH 8 0
BBX 8 19 0 0
BITMAP
006FF000
006FF000
006FF000
006FF000
AFFFFFF3
AEFFFEE3
006FF000
006FF000
006FF000
006FF000
006FF000
006FF000
006FF000
006FF000
006FF000
006FF000
004FF731
000DFFF3
0003CFD2
ENDCHAR
STARTCHAR u
ENCODING 117
SWIDTH 483 0
DWIDTH 14 0
BBX 11 15 1 0
BITMAP
4FF30000BFB0
4FF30000BFB0
4FF30000BFB0
4FF30000BFB0
4FF30000BFB0
4FF30000BFB0
4FF30000BFB0
4FF30000BFB0
4FF30000BFB0
3FF30000BFB0
3FF40000BFB0
1FF80002EFB0
0CFE536DFFB0
04FFFFFFDFB0
004CFEB39FB0
ENDCHAR
STARTCHAR v
ENCODING 118
SWIDTH 427 0
DWIDTH 12 0
BBX 12 15 0 0
BITMAP
3FF300005FF2
0EF700008FC0
0AFB0000CF80
05FF0001FF40
01FF4005FE00
00BF8008FA00
007FC00CF500
002FF11FF100
000DF45FC000
0008F88F7000
0004FCCF3000
0000EFFD0000
0000AFF90000
00006FF50000
00001FF10000
ENDCHAR
STARTCHAR w
ENCODING 119
SWIDTH 649 0
DWIDTH 18 0
BBX 18 15 0 0
BITMAP
3FF30001FF20001FF5
0EF60004FF60004FF2
0BF90008FFA0007FD0
07FD000CFFE000AF90
04FF101FEEF300DF60
00FF405FBAF701FF20
00BF709F76FB04FD00
008FB0DF32FF07FA00
004FE2FE00CF4BF600
001FF8FA008F8EF300
000CFEF6004FDFE000
0008FFF2001FFFA000
0005FFD0000BFF7000
0001FF900007FF3000
0000DF500003FE0000
ENDCHAR
STARTCHAR x
ENCODING 120
SWIDTH 438 0
DWIDTH 12 0
BBX 12 15 0 0
BITMAP
0DFC00009FF2
06FF4002FF90
00CFB008FE20
004FF31EF800
000BFA7FE100
0003FFEF6000
0000AFFD0000
00005FF80000
0000BFFE1000
0005FFDF8000
000CF95FE200
006FF20DF900
01DFA006FF20
07FF3001EFA0
1EFB00008FF4
ENDCHAR
STARTCHAR y
ENCODING 121
SWIDTH 416 0
DWIDTH 12 0
BBX 11 21 0 -6
BITMAP
6FF400009FE0
1FF80000CFA0
0CFB0001FF60
07FF0005FF20
03FF4008FD00
00EF800CF800
009FB01FF400
005FF05FE000
001FF48FB000
000BF8CF6000
0007FCFF2000
0002FFFD0000
0000DFF90000
00009FF40000
00004FF10000
00005FB00000
0000AF700000
0002FF200000
035CFB000000
0CFFE2000000
0AEB30000000
ENDCHAR
STARTCHAR z
ENCODING 122
SWIDTH 438 0
DWIDTH 12 0
BBX 11 15 1 0
BITMAP
AFFFFFFFFE00
AFFFFFFFFD00
1111114FF700
000000CFD000
000006FF4000
00001EF90000
0000AFE10000
0004FF600000
000DFC000000
007FF3000000
02EF80000000
0BFD10000000
5FF611111100
BFFFFFFFFF30
BFFFFFFFFF30
ENDCHAR
STARTCHAR braceleft
ENCODING 123
SWIDTH 306 0
DWIDTH 9 0
BBX 7 27 1 -5
BITMAP
00001990
0002DFB0
000CFB00
004FF300
008FE000
009FC000
00AFB000
00AFB000
00AFB000
00BFA000
00EF8000
19FF2000
FFF60000
FFF50000
19FE2000
01EF7000
00BFA000
00AFB000
00AFB000
00AFB000
00AFB000
009FC000
007FE000
002FF400
000AFD10
0001CFC0
00001890
ENDCHAR
STARTCHAR bar
ENCODING 124
SWIDTH 243 0
DWIDTH 7 0
BBX 3 24 2 -4
BITMAP
9F70
9F70
9F70
9F70
9F70
9F70
9F70
9F70
9F70
9F70
9F70
9F70
9F70
9F70
9F70
9F70
9F70
9F70
9F70
9F70
9F70
9F70
9F70
9F70
ENDCHAR
STARTCHAR braceright
ENCODING 125
SWIDTH 306 0
DWIDTH 9 0
BBX 8 27 0 -5
BITMAP
2C500000
4FF80000
04FF4000
00AFB000
006FF000
004FF200
003FF300
003FF300
003FF300
002FF400
000EF700
0008FE40
0001AFF8
0000AFF8
0007FE40
000EF800
002FF400
003FF300
003FF300
003FF300
003FF300
004FF200
006FE000
00BFA000
06FF3000
5FF70000
2C400000
ENDCHAR
STARTCHAR asciitilde
ENCODING 126
SWIDTH 589 0
DWIDTH 17 0
BBX 14 6 1 6
BITMAP
00013100000000
009FFFA10003DB
09FFFFFC1007FA
1FF615EFD56EF5
4FD0003EFFFFB0
00000002AEE910
ENDCHAR
STARTCHAR uni00A0
ENCODING 160
SWIDTH 229 0
DWIDTH 6 0
BBX 1 1 0 0
BITMAP
00
ENDCHAR
STARTCHAR exclamdown
ENCODING 161
SWIDTH 231 0
DWIDTH 6 0
BBX 4 20 1 -5
BITMAP
0BE4
2FF9
0AD3
0000
0000
0342
0CF6
0CF6
0DF6
0DF7
0DF7
0DF7
0DF7
0DF7
0EF7
0EF8
0EF8
0EF8
0EF8
0EF8
ENDCHAR
STARTCHAR cent
ENCODING 162
SWIDTH 479 0
DWIDTH 13 0
BBX 11 23 1 -4
BITMAP
000001100000
00005FF10000
00005FF10000
00005FF10000
0007DFFD7000
00AFFFFFF900
06FF7118FF40
0EF90000BFB0
4FF300006FE0
7FE000001440
8FD000000000
9FC000000000
8FD000000000
7FE000000000
4FF200004CB0
0EF800009FC0
07FF5006FF60
00BFFEFFF900
0018EFFD6000
00005FF10000
00005FF10000
00005FF10000
000014400000
ENDCHAR
STARTCHAR sterling
ENCODING 163
SWIDTH 510 0
DWIDTH 14 0
BBX 13 20 1 0
BITMAP
00004BEFD70000
0008FFFFFFB000
004FFC44BFF600
00BFE1000DFC00
00EF900008FF00
01FF7000024400
01FF7000000000
00FF8000000000
00FF8000000000
AFFFFFFF200000
AFFFFFFF200000
12DFA222000000
00DFA000000000
00DFA000000000
00CFA000000000
00DF9000000000
01FF7000000000
18FF4222222210
AFFFFFFFFFFF60
AFFFFFFFFFFF50
ENDCHAR
STARTCHAR currency
ENCODING 164
SWIDTH 712 0
DWIDTH 20 0
BBX 18 18 1 0
BITMAP
002000000000000210
0AE3028CEED9302DC1
5FFE9FFFFFFFF9DFF8
08FFFFE9769EFFFFA0
00BFFA100001AFFD00
02FFA000000009FF40
08FE1000000001EFA0
0DF900000000008FE0
0FF600000000005FF2
1FF400000000003FF3
0FF600000000005FF2
0DF900000000008FE0
08FE1000000001EFA0
02FFA000000009FF30
01DFFA1000019FFE20
1BFFFFE9669EFFFFD2
4FFB8FFFFFFFF99FF7
05B1029DEED9300A80
ENDCHAR
STARTCHAR yen
ENCODING 165
SWIDTH 463 0
DWIDTH 13 0
BBX 13 20 0 0
BITMAP
6FF6000006FF60
1EFC00000CFE00
08FF30002FF800
02FF90008FF200
00BFE000EFB000
005FF505FF4000
000DFB0AFD0000
0007FF3FF70000
0001FFDFE10000
00009FFF900000
05FFFFFFFFF400
03BBBEFEBBB300
00000CFB000000
00000CFB000000
05FFFFFFFFF400
03BBBEFEBBB300
00000CFB000000
00000CFB000000
00000CFB000000
00000CFB000000
ENDCHAR
STARTCHAR brokenbar
ENCODING 166
SWIDTH 239 0
DWIDTH 7 0
BBX 3 24 2 -4
BITMAP
FF80
FF80
FF80
FF80
FF80
FF80
FF80
FF80
FF80
FF80
FF80
0000
0000
FF80
FF80
FF80
FF80
FF80
FF80
FF80
FF80
FF80
FF80
FF80
ENDCHAR
STARTCHAR section
ENCODING 167
SWIDTH 537 0
DWIDTH 15 0
BBX 13 27 1 -7
BITMAP
0005BEFEB50000
00AFFFFFFFA000
08FFA313BFF600
0EFA00000DFD00
2FF5000006FF20
2FF5000003EE30
0EFA0000000000
09FF9200000000
01DFFFB5000000
05EFFFFFE81000
2FF938DFFFD200
8FE00005CFFC00
AFC0000009FF40
9FD0000001FF70
6FF5000000EF70
1EFF920002FF60
04EFFFC63CFE10
002AFFFFFFE300
000017DFFFB000
00000004CFF700
000000001DFD00
AEA0000007FF00
9FE0000008FF00
5FF600000CFC00
0DFF8324BFF600
02DFFFFFFF9000
0017CEFEB50000
ENDCHAR
STARTCHAR dieresis
ENCODING 168
SWIDTH 417 0
DWIDTH 12 0
BBX 10 3 1 17
BITMAP
3CB1004CA0
9FF500AFF3
4ED1005EC1
ENDCHAR
STARTCHAR copyright
ENCODING 169
SWIDTH 785 0
DWIDTH 22 0
BBX 20 20 1 0
BITMAP
0000005ADFEDA5000000
00004DFFCAACFFC30000
0007FE61000017EE5000
006FC2000000003DF400
03EC0007CFEB5001DE10
0BE200AFFCDFF7004F90
2F8005FD2005FE100AF1
7F300BF50000CF4005F5
AE000EF20000231001F8
BD000EF00000000000E9
BD000EF00000000000E9
AE000EF20000341001F8
7F300BF50000CF3005F5
2F8005FD2005FE100AF1
0BE200AFFCDFF7004F90
03FC0007DFEB5001DE10
007FC2000000002DF500
0007FE61000017EF6000
00004DFFCAACFFC30000
0000005ADFFDA5000000
ENDCHAR
STARTCHAR ordfeminine
ENCODING 170
SWIDTH 395 0
DWIDTH 11 0
BBX 8 11 2 9
BITMAP
04CED700
4FFFFF60
BF906FD0
8A302FF0
00001FF1
18DFFFF1
AFD98FF1
FF201FF1
FF305FF1
BFFEFFF2
2BED7DF4
ENDCHAR
STARTCHAR guillemotleft
ENCODING 171
SWIDTH 417 0
DWIDTH 12 0
BBX 10 11 1 2
BITMAP
0009F40AF2
003FB05F90
00CF31DF20
07FA09F800
2EF23FE100
9FB0AF9000
2FF23FE100
07FA09F800
00CF31DF20
003FB05F90
0009F40AF2
ENDCHAR
STARTCHAR logicalnot
ENCODING 172
SWIDTH 487 0
DWIDTH 14 0
BBX 11 6 1 5
BITMAP
4FFFFFFFFF60
4FFFFFFFFF60
13333334FF60
00000001FF60
00000001FF60
00000001FF60
ENDCHAR
STARTCHAR uni00AD
ENCODING 173
SWIDTH 248 0
DWIDTH 7 0
BBX 7 3 0 6
BITMAP
5FFFFF40
5FFFFF40
01111100
ENDCHAR
STARTCHAR registered
ENCODING 174
SWIDTH 786 0
DWIDTH 22 0
BBX 20 20 1 0
BITMAP
0000005ADFEDA4000000
00004DFFCAACFFC30000
0007FE61000017EE5000
006FC2000000003DF400
03FC00FFFFEC6001DE10
0BE200FFBBCFF9004F90
2F8000FE0002EF100AE1
7F3000FE0000CF2005F5
AE0000FE0016FD0001F8
BC0000FFFFFFC20000F9
BC0000FFBBCFF60000F9
AE0000FE0002FE0001F7
7F3000FE0000DF1005F5
2F8000FE0000CF200AE1
0BE200FE0000BF404F90
03FC000000000001DE10
007FB1000000003DF500
0007FE61000017EF5000
00004DFEBAACFFC30000
0000005ADFFDA5000000
ENDCHAR
STARTCHAR macron
ENCODING 175
SWIDTH 414 0
DWIDTH 12 0
BBX 9 2 1 18
BITMAP
1FFFFFFFD0
1EEEEEEED0
ENDCHAR
STARTCHAR degree
ENCODING 176
SWIDTH 373 0
DWIDTH 10 0
BBX 8 7 1 13
BITMAP
007DFB30
09FECFE2
1FC105F8
3F8001FA
1ED318F7
06FFFFC1
0039A710
ENDCHAR
STARTCHAR plusminus
ENCODING 177
SWIDTH 469 0
DWIDTH 13 0
BBX 11 18 1 0
BITMAP
00002A900000
00004FE00000
00004FE00000
00004FE00000
00004FE00000
00004FE00000
8FFFFFFFFFF0
8FFFFFFFFFF0
11114FE11110
00004FE00000
00004FE00000
00004FE00000
00004FE00000
00004FD00000
000000000000
011111111100
2FFFFFFFFF70
2FFFFFFFFF70
ENDCHAR
STARTCHAR uni00B2
ENCODING 178
SWIDTH 329 0
DWIDTH 9 0
BBX 8 11 1 9
BITMAP
06DFD600
5FFCFF50
CF506FB0
99004FC0
00009F90
0004FE20
003EF500
02EF6000
1DF70000
AFFBBBB2
CFFFFFF3
ENDCHAR
STARTCHAR uni00B3
ENCODING 179
SWIDTH 329 0
DWIDTH 9 0
BBX 7 11 1 9
BITMAP
08DFD800
9FECFF80
AB305FC0
00007F80
00AFFB00
006AEF70
00004FD0
77001FE0
EF405FC0
7FFCFF60
07DEC500
ENDCHAR
STARTCHAR acute
ENCODING 180
SWIDTH 313 0
DWIDTH 9 0
BBX 7 4 1 17
BITMAP
002EFD10
00CFD200
08FE2000
1AD30000
ENDCHAR
STARTCHAR mu
ENCODING 181
SWIDTH 498 0
DWIDTH 14 0
BBX 10 21 2 -6
BITMAP
FF600007FE
FF600007FE
FF600007FE
FF600007FE
FF600007FE
FF600007FE
FF600007FE
FF600007FE
FF600007FE
FF700007FE
FF800007FE
FFC0000BFE
FFF7129FFE
FFFFFFFCFE
FF9BEE84FE
FF60000000
FF60000000
FF60000000
FF60000000
FF60000000
FF60000000
ENDCHAR
STARTCHAR paragraph
ENCODING 182
SWIDTH 434 0
DWIDTH 12 0
BBX 9 20 1 0
BITMAP
0018CDEED0
03EFFFFFF0
1DFFFFFFF0
7FFFFFFFF0
CFFFFFFFF0
EFFFFFFFF0
FFFFFFFFF0
EFFFFFFFF0
CFFFFFFFF0
7FFFFFFFF0
1DFFFFFFF0
03EFFFFFF0
0017BDEFF0
0000007FF0
0000007FF0
0000007FF0
0000007FF0
0000007FF0
0000007FF0
0000007FF0
ENDCHAR
STARTCHAR periodcentered
ENCODING 183
SWIDTH 243 0
DWIDTH 7 0
BBX 4 3 1 9
BITMAP
0AE6
1FFB
0BF6
ENDCHAR
STARTCHAR cedilla
ENCODING 184
SWIDTH 229 0
DWIDTH 6 0
BBX 5 6 1 -6
BITMAP
1FA000
4FF800
01CF20
00AF30
29FD10
4EA200
ENDCHAR
STARTCHAR uni00B9
ENCODING 185
SWIDTH 329 0
DWIDTH 9 0
BBX 6 11 1 9
BITMAP
0005C1
06DFF1
5FFFF1
471EF1
000EF1
000EF1
000EF1
000EF1
000EF1
000EF1
000EF1
ENDCHAR
STARTCHAR ordmasculine
ENCODING 186
SWIDTH 402 0
DWIDTH 11 0
BBX 9 11 1 9
BITMAP
005CFD8000
05FFFFF900
0EF704FF30
3FE000AF70
5FC0008F90
6FB0007FA0
5FC0008F90
3FE000AF70
0EF704FF30
05FFFFF900
005CFD8000
ENDCHAR
STARTCHAR guillemotright
ENCODING 187
SWIDTH 417 0
DWIDTH 12 0
BBX 10 11 1 2
BITMAP
5F703F9000
0CF20AF400
05FB03FD00
00CF60AF80
004FE12FF3
000DF70BF9
004FE12FF3
00CF60AF80
05FB03FD00
0CF20AF400
5F703F9000
ENDCHAR
STARTCHAR onequarter
ENCODING 188
SWIDTH 637 0
DWIDTH 18 0
BBX 16 20 1 0
BITMAP
0029800000000000
3AFF800000000000
DFFF8000001B3000
858F8000007F5000
007F800001EC0000
007F800008F40000
007F80002FB00000
007F80009F300000
007F8003F9000000
007F800BF200BF90
007F804F8005FF90
000000CE100DFF90
000005F7007FAF90
00000DD001EB6F90
00006F6009F36F90
0001EC003F906F90
0007F400AFFFFFFC
0005A0008CCCDFE9
0000000000006F90
0000000000006F90
ENDCHAR
STARTCHAR onehalf
ENCODING 189
SWIDTH 677 0
DWIDTH 19 0
BBX 17 20 1 0
BITMAP
002980000000000000
3AFF80000000000000
DFFF80000078000000
848F800001EC000000
007F800008F4000000
007F80002EB0000000
007F80009F30000000
007F8002FA00000000
007F800AF200000000
007F803F903CFD9100
007F80BE12EFDEFA00
000005F708F902FF00
00000DE1069300EF10
00006F60000005FD00
0001DD0000001DF500
0007F5000001CF9000
001EC000000BFA0000
001A4000009FB00000
0000000006FFCBBB50
0000000008FFFFFF70
ENDCHAR
STARTCHAR threequarters
ENCODING 190
SWIDTH 673 0
DWIDTH 19 0
BBX 17 20 1 0
BITMAP
03BEEB300000000000
1EFDDFE20000000000
39700BF50000870000
00002DF30002FB0000
002FFF60000AF30000
0019BFC1003F900000
00000AF600BF200000
121007F804F8000000
6FC00BF60CE1000000
1EFDDFE15F700CF800
03BEEA20DD006FF800
00000006F601EFF800
0000001EC008FAF800
0000007F402FA7F800
000001EB00AF27F800
000009F304F807F800
00002FA00AFFFFFFB0
00002B2008CCCDFE80
00000000000007F800
00000000000007F800
ENDCHAR
STARTCHAR questiondown
ENCODING 191
SWIDTH 421 0
DWIDTH 12 0
BBX 10 20 1 -5
BITMAP
0003EC1000
0007FF3000
0002CB0000
0000000000
0000000000
0001441000
0005FF2000
0007FF0000
000DFA0000
009FF30000
06FF600000
1EFA000000
8FE1000000
DF90000000
FF60000000
FF70000DF9
DFB0003FF6
8FF945DFE1
1CFFFFFF50
018DFEB300
ENDCHAR
STARTCHAR Agrave
ENCODING 192
SWIDTH 576 0
DWIDTH 16 0
BBX 16 26 0 0
BITMAP
0000AFF500000000
00000CFE20000000
000001DFC0000000
0000002DB3000000
0000000000000000
0000000000000000
0000002FF5000000
0000007FF9000000
000000CFFE000000
000002FFEF400000
000007FCAF900000
00000BF76FE00000
00001FF31FF30000
00006FE00CF80000
0000BFA008FD0000
0001FF5003FF3000
0005FF1000EF8000
000AFC0000AFD000
001EF800005FF200
005FFFFFFFFFF700
00AFFFFFFFFFFC00
00EFA2222228FF20
04FF40000002FF70
09FE00000000CFC0
0EFA000000007FF1
4FF5000000002FF6
ENDCHAR
STARTCHAR Aacute
ENCODING 193
SWIDTH 576 0
DWIDTH 16 0
BBX 16 26 0 0
BITMAP
000000001EFD2000
00000000BFE20000
00000008FE300000
0000001AE4000000
0000000000000000
0000000000000000
0000002FF5000000
0000007FF9000000
000000CFFE000000
000002FFEF400000
000007FCAF900000
00000BF76FE00000
00001FF31FF30000
00006FE00CF80000
0000BFA008FD0000
0001FF5003FF3000
0005FF1000EF8000
000AFC0000AFD000
001EF800005FF200
005FFFFFFFFFF700
00AFFFFFFFFFFC00
00EFA2222228FF20
04FF40000002FF70
09FE00000000CFC0
0EFA000000007FF1
4FF5000000002FF6
ENDCHAR
STARTCHAR Acircumflex
ENCODING 194
SWIDTH 576 0
DWIDTH 16 0
BBX 16 26 0 0
BITMAP
0000002EF4000000
000001CFEE200000
00000BF84FD10000
00003BC009C50000
0000000000000000
0000000000000000
0000002FF5000000
0000007FF9000000
000000CFFE000000
000002FFEF400000
000007FCAF900000
00000BF76FE00000
00001FF31FF30000
00006FE00CF80000
0000BFA008FD0000
0001FF5003FF3000
0005FF1000EF8000
000AFC0000AFD000
001EF800005FF200
005FFFFFFFFFF700
00AFFFFFFFFFFC00
00EFA2222228FF20
04FF40000002FF70
09FE00000000CFC0
0EFA000000007FF1
4FF5000000002FF6
ENDCHAR
STARTCHAR Atilde
ENCODING 195
SWIDTH 576 0
DWIDTH 16 0
BBX 16 26 0 0
BITMAP
0000000000110000
00001ADA308F3000
0000AFFFFFFD0000
0000DB13BEC30000
0000000000000000
0000000000000000
0000002FF5000000
0000007FF9000000
000000CFFE000000
000002FFEF400000
000007FCAF900000
00000BF76FE00000
00001FF31FF30000
00006FE00CF80000
0000BFA008FD0000
0001FF5003FF3000
0005FF1000EF8000
000AFC0000AFD000
001EF800005FF200
005FFFFFFFFFF700
00AFFFFFFFFFFC00
00EFA2222228FF20
04FF40000002FF70
09FE00000000CFC0
0EFA000000007FF1
4FF5000000002FF6
ENDCHAR
STARTCHAR Adieresis
ENCODING 196
SWIDTH 576 0
DWIDTH 16 0
BBX 16 25 0 0
BITMAP
0000AC4001BC3000
0004FFA005FF8000
0001CE5002DE4000
0000000000000000
0000000000000000
0000002FF5000000
0000007FF9000000
000000CFFE000000
000002FFEF400000
000007FCAF900000
00000BF76FE00000
00001FF31FF30000
00006FE00CF80000
0000BFA008FD0000
0001FF5003FF3000
0005FF1000EF8000
000AFC0000AFD000
001EF800005FF200
005FFFFFFFFFF700
00AFFFFFFFFFFC00
00EFA2222228FF20
04FF40000002FF70
09FE00000000CFC0
0EFA000000007FF1
4FF5000000002FF6
ENDCHAR
STARTCHAR Aring
ENCODING 197
SWIDTH 576 0
DWIDTH 16 0
BBX 16 26 0 0
BITMAP
0000007DE9100000
000005F75E900000
00000BA006E00000
00000BA006E00000
000006F65DA00000
0000007DE9100000
0000002FF5000000
0000007FF9000000
000000CFFE000000
000002FFEF400000
000007FCAF900000
00000BF76FE00000
00001FF31FF30000
00006FE00CF80000
0000BFA008FD0000
0001FF5003FF3000
0005FF1000EF8000
000AFC0000AFD000
001EF800005FF200
005FFFFFFFFFF700
00AFFFFFFFFFFC00
00EFA2222228FF20
04FF40000002FF70
09FE00000000CFC0
0EFA000000007FF1
4FF5000000002FF6
ENDCHAR
STARTCHAR AE
ENCODING 198
SWIDTH 812 0
DWIDTH 23 0
BBX 23 20 0 0
BITMAP
0000000003FFFFFFFFFFF600
000000000AFFFFFFFFFFF600
000000003FFFF81111111000
00000000AFBEF70000000000
00000003FF4DF80000000000
0000000BFC0DF90000000000
0000003FF50CF90000000000
000000BFD00CFA0000000000
000003FF700BFA0000000000
00000BFE100BFFFFFFFF7000
00003FF8000AFFFFFFFF7000
0000BFF1000AFC1111110000
0004FF900009FC0000000000
000BFFFFFFFFFD0000000000
004FFFFFFFFFFD0000000000
00BFF666666AFE0000000000
04FFA0000007FE0000000000
0CFF30000007FF1111111100
4FFA00000006FFFFFFFFFF10
CFF300000005FFFFFFFFFF10
ENDCHAR
STARTCHAR Ccedilla
ENCODING 199
SWIDTH 566 0
DWIDTH 16 0
BBX 14 26 1 -6
BITMAP
00005BEFEB5000
001BFFFFFFF900
00AFFA434BFF70
05FF800000BFE1
0BFD0000004FF5
0FF80000001FF8
3FF500000009A6
4FF40000000000
4FF30000000000
4FF30000000000
4FF30000000000
4FF30000000000
4FF40000000000
3FF50000000895
0FF80000001FF7
0BFD0000004FF4
05FF600000BFE1
00BFF9324BFF60
001BFFFFFFF800
00006BEFDA4000
000000CE000000
000000EFB10000
00000008F70000
00000005F80000
0000008EF30000
000000EC500000
ENDCHAR
STARTCHAR Egrave
ENCODING 200
SWIDTH 496 0
DWIDTH 14 0
BBX 11 26 2 0
BITMAP
06FF90000000
008FF5000000
000AFE200000
0000BC600000
000000000000
000000000000
DFFFFFFFFFB0
DFFFFFFFFFB0
DFB222222220
DFA000000000
DFA000000000
DFA000000000
DFA000000000
DFA000000000
DFA000000000
DFFFFFFFFA00
DFFFFFFFFA00
DFB222222100
DFA000000000
DFA000000000
DFA000000000
DFA000000000
DFA000000000
DFB222222220
DFFFFFFFFFD0
DFFFFFFFFFD0
ENDCHAR
STARTCHAR Eacute
ENCODING 201
SWIDTH 496 0
DWIDTH 14 0
BBX 11 26 2 0
BITMAP
000000BFF400
000007FF5000
00004FF60000
00008D700000
000000000000
000000000000
DFFFFFFFFFB0
DFFFFFFFFFB0
DFB222222220
DFA000000000
DFA000000000
DFA000000000
DFA000000000
DFA000000000
DFA000000000
DFFFFFFFFA00
DFFFFFFFFA00
DFB222222100
DFA000000000
DFA000000000
DFA000000000
DFA000000000
DFA000000000
DFB222222220
DFFFFFFFFFD0
DFFFFFFFFFD0
ENDCHAR
STARTCHAR Ecircumflex
ENCODING 202
SWIDTH 496 0
DWIDTH 14 0
BBX 11 26 2 0
BITMAP
0000BF800000
0009FDF60000
007FC1EF4000
01AD205D8000
000000000000
000000000000
DFFFFFFFFFB0
DFFFFFFFFFB0
DFB222222220
DFA000000000
DFA000000000
DFA000000000
DFA000000000
DFA000000000
DFA000000000
DFFFFFFFFA00
DFFFFFFFFA00
DFB222222100
DFA000000000
DFA000000000
DFA000000000
DFA000000000
DFA000000000
DFB222222220
DFFFFFFFFFD0
DFFFFFFFFFD0
ENDCHAR
STARTCHAR Edieresis
ENCODING 203
SWIDTH 496 0
DWIDTH 14 0
BBX 11 25 2 0
BITMAP
08D70009C500
0FFE001FFC00
09E8000BE700
000000000000
000000000000
DFFFFFFFFFB0
DFFFFFFFFFB0
DFB222222220
DFA000000000
DFA000000000
DFA000000000
DFA000000000
DFA000000000
DFA000000000
DFFFFFFFFA00
DFFFFFFFFA00
DFB222222100
DFA000000000
DFA000000000
DFA000000000
DFA000000000
DFA000000000
DFB222222220
DFFFFFFFFFD0
DFFFFFFFFFD0
ENDCHAR
STARTCHAR Igrave
ENCODING 204
SWIDTH 250 0
DWIDTH 7 0
BBX 6 26 -1 0
BITMAP
5FFA00
06FF70
008FF3
000AD7
000000
000000
000BFC
000BFC
000BFC
000BFC
000BFC
000BFC
000BFC
000BFC
000BFC
000BFC
000BFC
000BFC
000BFC
000BFC
000BFC
000BFC
000BFC
000BFC
000BFC
000BFC
ENDCHAR
STARTCHAR Iacute
ENCODING 205
SWIDTH 250 0
DWIDTH 7 0
BBX 6 26 2 0
BITMAP
00AFF5
06FF60
3FF800
7D9000
000000
000000
BFC000
BFC000
BFC000
BFC000
BFC000
BFC000
BFC000
BFC000
BFC000
BFC000
BFC000
BFC000
BFC000
BFC000
BFC000
BFC000
BFC000
BFC000
BFC000
BFC000
ENDCHAR
STARTCHAR Icircumflex
ENCODING 206
SWIDTH 250 0
DWIDTH 7 0
BBX 7 26 0 0
BITMAP
00AF9000
08FDF700
5FD1DF50
9D303D90
00000000
00000000
00BFC000
00BFC000
00BFC000
00BFC000
00BFC000
00BFC000
00BFC000
00BFC000
00BFC000
00BFC000
00BFC000
00BFC000
00BFC000
00BFC000
00BFC000
00BFC000
00BFC000
00BFC000
00BFC000
00BFC000
ENDCHAR
STARTCHAR Idieresis
ENCODING 207
SWIDTH 250 0
DWIDTH 7 0
BBX 9 25 -1 0
BITMAP
6D80007D70
DFF100FFE0
8EA0009E80
0000000000
0000000000
000BFC0000
000BFC0000
000BFC0000
000BFC0000
000BFC0000
000BFC0000
000BFC0000
000BFC0000
000BFC0000
000BFC0000
000BFC0000
000BFC0000
000BFC0000
000BFC0000
000BFC0000
000BFC0000
000BFC0000
000BFC0000
000BFC0000
000BFC0000
ENDCHAR
STARTCHAR Eth
ENCODING 208
SWIDTH 585 0
DWIDTH 16 0
BBX 15 20 0 0
BITMAP
007FFFFFEB600000
007FFFFFFFFC2000
007FF32349FFD100
007FF100004FF900
007FF1000008FE10
007FF1000002FF50
007FF1000000EF80
007FF1000000DF90
007FF1000000CFA0
BFFFFFFA0000CFA0
BFFFFFFA0000CFA0
117FF2110000CFA0
007FF1000000DF90
007FF1000000EF80
007FF1000003FF50
007FF1000009FE10
007FF100004FF900
007FF32349FFD100
007FFFFFFFFC2000
007FFFFEDA500000
ENDCHAR
STARTCHAR Ntilde
ENCODING 209
SWIDTH 619 0
DWIDTH 17 0
BBX 14 26 2 0
BITMAP
00000000021000
0005DD712EA000
003FFFFFFF6000
006F517DE80000
00000000000000
00000000000000
DFD00000005FF2
DFF60000005FF2
DFFE1000005FF2
DFFF7000005FF2
DFEFE100005FF2
DFADF700005FF2
DFA5FE10005FF2
DFA0CF80005FF2
DFA05FE1005FF2
DFA00CF8005FF2
DFA004FF205FF2
DFA000CF905FF2
DFA0004FF25FF2
DFA0000BF95FF2
DFA00003FF8FF2
DFA00000AFEFF2
DFA000003FFFF2
DFA000000AFFF2
DFA0000002FFF2
DFA00000009FF2
ENDCHAR
STARTCHAR Ograve
ENCODING 210
SWIDTH 600 0
DWIDTH 17 0
BBX 15 26 1 0
BITMAP
0005FF9000000000
00007FF600000000
000009FE30000000
000000AC70000000
0000000000000000
0000000000000000
00006BEFEA400000
001BFFFFFFF90000
00BFFB546CFF8000
05FF800000AFF200
0BFD0000001FF800
0FF80000000BFC00
3FF500000008FF00
4FF400000007FF10
4FF300000006FF10
4FF300000006FF10
4FF300000006FF10
4FF300000006FF10
4FF400000007FF10
3FF500000008FF00
0FF80000000BFC00
0BFD0000001FF800
05FF800000AFF200
00BFFA546BFF9000
001BFFFFFFFA0000
00005BEFEA500000
ENDCHAR
STARTCHAR Oacute
ENCODING 211
SWIDTH 600 0
DWIDTH 17 0
BBX 15 26 1 0
BITMAP
00000000AFF50000
00000006FF600000
0000003FF7000000
0000007D80000000
0000000000000000
0000000000000000
00006BEFEA400000
001BFFFFFFF90000
00BFFB546CFF8000
05FF800000AFF200
0BFD0000001FF800
0FF80000000BFC00
3FF500000008FF00
4FF400000007FF10
4FF300000006FF10
4FF300000006FF10
4FF300000006FF10
4FF300000006FF10
4FF400000007FF10
3FF500000008FF00
0FF80000000BFC00
0BFD0000001FF800
05FF800000AFF200
00BFFA546BFF9000
001BFFFFFFFA0000
00005BEFEA500000
ENDCHAR
STARTCHAR Ocircumflex
ENCODING 212
SWIDTH 600 0
DWIDTH 17 0
BBX 15 26 1 0
BITMAP
000000AF90000000
000008FDF7000000
00006FC1DF400000
0000AD304D900000
0000000000000000
0000000000000000
00006BEFEA400000
001BFFFFFFF90000
00BFFB546CFF8000
05FF800000AFF200
0BFD0000001FF800
0FF80000000BFC00
3FF500000008FF00
4FF400000007FF10
4FF300000006FF10
4FF300000006FF10
4FF300000006FF10
4FF300000006FF10
4FF400000007FF10
3FF500000008FF00
0FF80000000BFC00
0BFD0000001FF800
05FF800000AFF200
00BFFA546BFF9000
001BFFFFFFFA0000
00005BEFEA500000
ENDCHAR
STARTCHAR Otilde
ENCODING 213
SWIDTH 600 0
DWIDTH 17 0
BBX 15 26 1 0
BITMAP
0000000000200000
00007DC603F80000
0005FFFFFFF30000
0008E328EE600000
0000000000000000
0000000000000000
00006BEFEA400000
001BFFFFFFF90000
00BFFB546CFF8000
05FF800000AFF200
0BFD0000001FF800
0FF80000000BFC00
3FF500000008FF00
4FF400000007FF10
4FF300000006FF10
4FF300000006FF10
4FF300000006FF10
4FF300000006FF10
4FF400000007FF10
3FF500000008FF00
0FF80000000BFC00
0BFD0000001FF800
05FF800000AFF200
00BFFA546BFF9000
001BFFFFFFFA0000
00005BEFEA500000
ENDCHAR
STARTCHAR Odieresis
ENCODING 214
SWIDTH 600 0
DWIDTH 17 0
BBX 15 25 1 0
BITMAP
0007D80008C60000
000EFF000FFD0000
0008E9000AE80000
0000000000000000
0000000000000000
00006BEFEA400000
001BFFFFFFF90000
00BFFB546CFF8000
05FF800000AFF200
0BFD0000001FF800
0FF80000000BFC00
3FF500000008FF00
4FF400000007FF10
4FF300000006FF10
4FF300000006FF10
4FF300000006FF10
4FF300000006FF10
4FF400000007FF10
3FF500000008FF00
0FF80000000BFC00
0BFD0000001FF800
05FF800000AFF200
00BFFA546BFF9000
001BFFFFFFFA0000
00005BEFEA500000
ENDCHAR
STARTCHAR multiply
ENCODING 215
SWIDTH 470 0
DWIDTH 13 0
BBX 11 12 1 3
BITMAP
0A4000003A00
8FE20002EF80
2DFD101DFD20
03EFC1BFE300
004FFEFF4000
0006FFF60000
0006FFF60000
004FFEFF4000
03EFC1CFE200
1DFD101DFD10
7FE20002EF70
0A4000004A00
ENDCHAR
STARTCHAR Oslash
ENCODING 216
SWIDTH 600 0
DWIDTH 17 0
BBX 15 22 1 -1
BITMAP
0000000000004830
00004AEFD930DD00
0007FFFFFFFBF600
007FFC646DFFC000
01EFB00001DFD000
08FF200001EFF600
0DFA000009FEFB00
2FF600002FA9FE00
4FF30000AF26FF10
5FF20003F905FF20
6FF1000BE204FF30
6FF1004F8004FF30
5FF200CE1005FF20
4FF305F70006FF10
2FF60DD10008FE00
0EFA6F60000CFB00
08FEDD00003FF600
02FFF50001CFD100
007FFC646DFF5000
008FFFFFFFF60000
02FB4AEFDA300000
09F3000000000000
ENDCHAR
STARTCHAR Ugrave
ENCODING 217
SWIDTH 561 0
DWIDTH 16 0
BBX 13 26 1 0
BITMAP
001DFE20000000
0002EFC0000000
00003EF8000000
000005EA100000
00000000000000
00000000000000
3FF40000008FF0
3FF40000008FF0
3FF40000008FF0
3FF40000008FF0
3FF40000008FF0
3FF40000008FF0
3FF40000008FF0
3FF40000008FF0
3FF40000008FF0
3FF40000008FF0
3FF40000008FF0
3FF40000008FF0
3FF40000008FF0
3FF40000008FF0
3FF50000009FF0
1FF7000000BFD0
0CFD000003FF90
05FFC5236DFE20
008FFFFFFFE400
0004ADFED82000
ENDCHAR
STARTCHAR Uacute
ENCODING 218
SWIDTH 561 0
DWIDTH 16 0
BBX 13 26 1 0
BITMAP
00000004FFA000
0000002EFB1000
000000BFC10000
000003BD100000
00000000000000
00000000000000
3FF40000008FF0
3FF40000008FF0
3FF40000008FF0
3FF40000008FF0
3FF40000008FF0
3FF40000008FF0
3FF40000008FF0
3FF40000008FF0
3FF40000008FF0
3FF40000008FF0
3FF40000008FF0
3FF40000008FF0
3FF40000008FF0
3FF40000008FF0
3FF50000009FF0
1FF7000000BFD0
0CFD000003FF90
05FFC5236DFE20
008FFFFFFFE400
0004ADFED82000
ENDCHAR
STARTCHAR Ucircumflex
ENCODING 219
SWIDTH 561 0
DWIDTH 16 0
BBX 13 26 1 0
BITMAP
000004FD200000
00003EEFC10000
0001DF48FA0000
0006C900CB3000
00000000000000
00000000000000
3FF40000008FF0
3FF40000008FF0
3FF40000008FF0
3FF40000008FF0
3FF40000008FF0
3FF40000008FF0
3FF40000008FF0
3FF40000008FF0
3FF40000008FF0
3FF40000008FF0
3FF40000008FF0
3FF40000008FF0
3FF40000008FF0
3FF40000008FF0
3FF50000009FF0
1FF7000000BFD0
0CFD000003FF90
05FFC5236DFE20
008FFFFFFFE400
0004ADFED82000
ENDCHAR
STARTCHAR Udieresis
ENCODING 220
SWIDTH 561 0
DWIDTH 16 0
BBX 13 25 1 0
BITMAP
002CB1003CA100
008FF6009FF400
003ED2004EC100
00000000000000
00000000000000
3FF40000008FF0
3FF40000008FF0
3FF40000008FF0
3FF40000008FF0
3FF40000008FF0
3FF40000008FF0
3FF40000008FF0
3FF40000008FF0
3FF40000008FF0
3FF40000008FF0
3FF40000008FF0
3FF40000008FF0
3FF40000008FF0
3FF40000008FF0
3FF50000009FF0
1FF7000000BFD0
0CFD000003FF90
05FFC5236DFE20
008FFFFFFFE400
0004ADFED82000
ENDCHAR
STARTCHAR Yacute
ENCODING 221
SWIDTH 524 0
DWIDTH 15 0
BBX 15 26 0 0
BITMAP
00000000BFF40000
00000007FF500000
0000004FF6000000
0000008D70000000
0000000000000000
0000000000000000
6FF70000000CFE10
0DFD0000003FF800
07FF4000009FF200
01EFA00001EFA000
008FF10006FF3000
002FF7000CFB0000
000AFD004FF50000
0003FF40AFD00000
0000BFB1FF600000
00005FF9FE000000
00000DFFF7000000
000006FFF1000000
000000EFA0000000
000000EF90000000
000000EF90000000
000000EF90000000
000000EF90000000
000000EF90000000
000000EF90000000
000000EF90000000
ENDCHAR
STARTCHAR Thorn
ENCODING 222
SWIDTH 515 0
DWIDTH 14 0
BBX 12 20 2 0
BITMAP
DF8000000000
DF8000000000
DF8000000000
DF8000000000
DFFFFFEA4000
DFFFFFFFF700
DF91114CFF40
DF800001DFB0
DF8000007FF1
DF8000004FF2
DF8000004FF2
DF8000007FF1
DF800000DFC0
DF80002BFF50
DFFFFFFFF800
DFFFFFFB5000
DF9111000000
DF8000000000
DF8000000000
DF8000000000
ENDCHAR
STARTCHAR germandbls
ENCODING 223
SWIDTH 521 0
DWIDTH 15 0
BBX 13 21 1 0
BITMAP
0018DFD9200000
00CFFFFFE20000
07FF725EF90000
0DFA0008FD0000
1FF50005FE0000
2FF40006FC0000
3FF3000CF90000
3FF3004FF30000
3FF300BFB00000
3FF300EF800000
3FF300DF900000
3FF3009FF30000
3FF3001DFE3000
3FF30003EFE300
3FF300002EFC00
3FF3000005FF40
3FF3000001FF60
3FF3000002FF50
3FF31C513BFF10
3FF35FFFFFF800
3FF318CEEC6000
ENDCHAR
STARTCHAR agrave
ENCODING 224
SWIDTH 479 0
DWIDTH 13 0
BBX 11 21 1 0
BITMAP
01CFE3000000
001DFD100000
0002EFA00000
00004EB20000
000000000000
000000000000
0017CEEC6000
01DFFFFFF800
0AFE623BFF20
1FF60001FF60
15510000EF70
00000000EF70
0017CEFFFF70
02DFFECCFF70
0DFD5000EF70
4FF40000EF70
6FF00000EF70
6FF20003FF70
2FFC448EFF80
09FFFFFCDF90
007DFE91BFD0
ENDCHAR
STARTCHAR aacute
ENCODING 225
SWIDTH 479 0
DWIDTH 13 0
BBX 11 21 1 0
BITMAP
0000003FFC10
000001DFD100
00000AFD2000
00002BD20000
000000000000
000000000000
0017CEEC6000
01DFFFFFF800
0AFE623BFF20
1FF60001FF60
15510000EF70
00000000EF70
0017CEFFFF70
02DFFECCFF70
0DFD5000EF70
4FF40000EF70
6FF00000EF70
6FF20003FF70
2FFC448EFF80
09FFFFFCDF90
007DFE91BFD0
ENDCHAR
STARTCHAR acircumflex
ENCODING 226
SWIDTH 479 0
DWIDTH 13 0
BBX 11 21 1 0
BITMAP
00003FE20000
0002EEED1000
001DF56FC000
005CA00BC400
000000000000
000000000000
0017CEEC6000
01DFFFFFF800
0AFE623BFF20
1FF60001FF60
15510000EF70
00000000EF70
0017CEFFFF70
02DFFECCFF70
0DFD5000EF70
4FF40000EF70
6FF00000EF70
6FF20003FF70
2FFC448EFF80
09FFFFFCDF90
007DFE91BFD0
ENDCHAR
STARTCHAR atilde
ENCODING 227
SWIDTH 479 0
DWIDTH 13 0
BBX 11 21 1 0
BITMAP
000000001100
002BD920BF00
00CFFFFFFB00
01E914CEB200
000000000000
000000000000
0017CEEC6000
01DFFFFFF800
0AFE623BFF20
1FF60001FF60
15510000EF70
00000000EF70
0017CEFFFF70
02DFFECCFF70
0DFD5000EF70
4FF40000EF70
6FF00000EF70
6FF20003FF70
2FFC448EFF80
09FFFFFCDF90
007DFE91BFD0
ENDCHAR
STARTCHAR adieresis
ENCODING 228
SWIDTH 479 0
DWIDTH 13 0
BBX 11 20 1 0
BITMAP
02BC2002CB10
06FF8008FF60
02DE3003ED20
000000000000
000000000000
0017CEEC6000
01DFFFFFF800
0AFE623BFF20
1FF60001FF60
15510000EF70
00000000EF70
0017CEFFFF70
02DFFECCFF70
0DFD5000EF70
4FF40000EF70
6FF00000EF70
6FF20003FF70
2FFC448EFF80
09FFFFFCDF90
007DFE91BFD0
ENDCHAR
STARTCHAR aring
ENCODING 229
SWIDTH 479 0
DWIDTH 13 0
BBX 11 23 1 0
BITMAP
00008ED70000
0008E56E7000
000D7009C000
000E7008C000
0008E56E7000
00009EE80000
000000000000
000000000000
0017CEEC6000
01DFFFFFF800
0AFE623BFF20
1FF60001FF60
15510000EF70
00000000EF70
0017CEFFFF70
02DFFECCFF70
0DFD5000EF70
4FF40000EF70
6FF00000EF70
6FF20003FF70
2FFC448EFF80
09FFFFFCDF90
007DFE91BFD0
ENDCHAR
STARTCHAR ae
ENCODING 230
SWIDTH 728 0
DWIDTH 20 0
BBX 19 15 1 0
BITMAP
004AEFD9102AEFC70000
07FFFFFFD4EFFFFFB000
2FFD426FFFFC327FF700
7FF20008FFE10008FE00
25600005FF800003FF20
00000004FF400001FF40
006BDEEEFFFFFFFFFF50
0BFFFFFFFFEEEEEEEE50
6FFA2004FF2000000000
BFC00004FF4000000000
DF900004FF8000000000
CFB00007FFE200000200
8FF613AFFEFD4126DB00
2EFFFFFF63EFFFFFFD10
02AEFD930018DFEC7100
ENDCHAR
STARTCHAR ccedilla
ENCODING 231
SWIDTH 461 0
DWIDTH 13 0
BBX 11 21 1 -6
BITMAP
0018DEEC5000
02DFFFFFF900
0BFE6239FF40
3FF50000CFA0
7FE000007FD0
9FC000001430
AFB000000000
AFB000000000
AFB000000000
9FC000000000
7FE000005CB0
3FF40000AFB0
0CFE5228FF40
02DFFFFFF800
0018DEEB5000
00008F300000
0000AFD30000
000004FB0000
000001FC0000
00006CF70000
0000AD700000
ENDCHAR
STARTCHAR egrave
ENCODING 232
SWIDTH 468 0
DWIDTH 13 0
BBX 11 21 1 0
BITMAP
02EFD1000000
003EFA000000
0005FF700000
00006DA00000
000000000000
000000000000
0017CEEC6000
01CFFFFFF900
09FE623AFF30
1FF50000DF90
6FE000008FC0
8FC000006FE0
9FFFFFFFFFF0
AFFFFFFFFFF0
AFC111111110
9FD000000000
7FF100000000
3FF700000600
0BFF7214AF90
02DFFFFFFE40
0018CEED9200
ENDCHAR
STARTCHAR eacute
ENCODING 233
SWIDTH 468 0
DWIDTH 13 0
BBX 11 21 1 0
BITMAP
0000006FF900
000003EFA000
00001DFB0000
00004CC10000
000000000000
000000000000
0017CEEC6000
01CFFFFFF900
09FE623AFF30
1FF50000DF90
6FE000008FC0
8FC000006FE0
9FFFFFFFFFF0
AFFFFFFFFFF0
AFC111111110
9FD000000000
7FF100000000
3FF700000600
0BFF7214AF90
02DFFFFFFE40
0018CEED9200
ENDCHAR
STARTCHAR ecircumflex
ENCODING 234
SWIDTH 468 0
DWIDTH 13 0
BBX 11 21 1 0
BITMAP
00006FD10000
0004FDFB0000
002EF39F9000
007D701DB200
000000000000
000000000000
0017CEEC6000
01CFFFFFF900
09FE623AFF30
1FF50000DF90
6FE000008FC0
8FC000006FE0
9FFFFFFFFFF0
AFFFFFFFFFF0
AFC111111110
9FD000000000
7FF100000000
3FF700000600
0BFF7214AF90
02DFFFFFFE40
0018CEED9200
ENDCHAR
STARTCHAR edieresis
ENCODING 235
SWIDTH 468 0
DWIDTH 13 0
BBX 11 20 1 0
BITMAP
03CB1004C900
09FF400BFF30
04EC1006EB00
000000000000
000000000000
0017CEEC6000
01CFFFFFF900
09FE623AFF30
1FF50000DF90
6FE000008FC0
8FC000006FE0
9FFFFFFFFFF0
AFFFFFFFFFF0
AFC111111110
9FD000000000
7FF100000000
3FF700000600
0BFF7214AF90
02DFFFFFFE40
0018CEED9200
ENDCHAR
STARTCHAR igrave
ENCODING 236
SWIDTH 234 0
DWIDTH 7 0
BBX 6 21 -1 0
BITMAP
8FF700
0AFF30
00BFD1
001CC5
000000
000000
000FF6
000FF6
000FF6
000FF6
000FF6
000FF6
000FF6
000FF6
000FF6
000FF6
000FF6
000FF6
000FF6
000FF6
000FF6
ENDCHAR
STARTCHAR iacute
ENCODING 237
SWIDTH 234 0
DWIDTH 7 0
BBX 6 21 2 0
BITMAP
01CFE3
09FE40
6FF400
9D6000
000000
000000
FF6000
FF6000
FF6000
FF6000
FF6000
FF6000
FF6000
FF6000
FF6000
FF6000
FF6000
FF6000
FF6000
FF6000
FF6000
ENDCHAR
STARTCHAR icircumflex
ENCODING 238
SWIDTH 234 0
DWIDTH 7 0
BBX 8 21 -1 0
BITMAP
001CF600
00BFDF40
09FA2EE3
2BD106D7
00000000
00000000
000FF600
000FF600
000FF600
000FF600
000FF600
000FF600
000FF600
000FF600
000FF600
000FF600
000FF600
000FF600
000FF600
000FF600
000FF600
ENDCHAR
STARTCHAR idieresis
ENCODING 239
SWIDTH 234 0
DWIDTH 7 0
BBX 10 20 -2 0
BITMAP
09D6000AC4
1FFC003FFB
0BE7001CE5
0000000000
0000000000
0000FF6000
0000FF6000
0000FF6000
0000FF6000
0000FF6000
0000FF6000
0000FF6000
0000FF6000
0000FF6000
0000FF6000
0000FF6000
0000FF6000
0000FF6000
0000FF6000
0000FF6000
ENDCHAR
STARTCHAR eth
ENCODING 240
SWIDTH 513 0
DWIDTH 14 0
BBX 12 21 1 0
BITMAP
006B60000000
00CFFD404D30
004AFFFAFE30
00003DFFD100
00003DFFF400
0005FE5DFD00
0001B204FF60
00000000BFC0
0005CEE98FF1
008FFFFFFFF5
05FFB324DFF7
0CFD00001EF8
2FF600000CF9
4FF200000CF9
5FF100000DF8
5FF200000FF7
2FF500004FF3
0CFC0000AFD0
04FFA328FF50
007FFFFFF800
0004BEEB5000
ENDCHAR
STARTCHAR ntilde
ENCODING 241
SWIDTH 483 0
DWIDTH 14 0
BBX 11 21 1 0
BITMAP
000000001100
003CD820CD00
01EFFFFFF900
03E815CEA100
000000000000
000000000000
3FF25CFE9100
3FFAFFFFFC00
3FFFA33AFF50
3FFB0000EF80
3FF40000BFA0
3FF30000AFB0
3FF30000AFB0
3FF30000AFB0
3FF30000AFB0
3FF30000AFB0
3FF30000AFB0
3FF30000AFB0
3FF30000AFB0
3FF30000AFB0
3FF30000AFB0
ENDCHAR
STARTCHAR ograve
ENCODING 242
SWIDTH 501 0
DWIDTH 14 0
BBX 12 21 1 0
BITMAP
01DFE2000000
002EFC000000
0003EF900000
00004EA10000
000000000000
000000000000
0006CEEC6000
01BFFFFFFB10
09FF8228FF90
2FF900008FF2
6FF200001FF7
9FD000000CFA
AFB000000BFB
BFB000000AFB
AFB000000AFB
9FD000000BFA
6FF200000EF7
2FF800006FF2
09FF8226EFA0
01BFFFFFFC10
0006CEEC7000
ENDCHAR
STARTCHAR oacute
ENCODING 243
SWIDTH 501 0
DWIDTH 14 0
BBX 12 21 1 0
BITMAP
0000004FFB00
000001EFC100
00000BFD1000
00003BD20000
000000000000
000000000000
0006CEEC6000
01BFFFFFFB10
09FF8228FF90
2FF900008FF2
6FF200001FF7
9FD000000CFA
AFB000000BFB
BFB000000AFB
AFB000000AFB
9FD000000BFA
6FF200000EF7
2FF800006FF2
09FF8226EFA0
01BFFFFFFC10
0006CEEC7000
ENDCHAR
STARTCHAR ocircumflex
ENCODING 244
SWIDTH 501 0
DWIDTH 14 0
BBX 12 21 1 0
BITMAP
00004FE20000
0003EEFC1000
001DF48FB000
005C900CB300
000000000000
000000000000
0006CEEC6000
01BFFFFFFB10
09FF8228FF90
2FF900008FF2
6FF200001FF7
9FD000000CFA
AFB000000BFB
BFB000000AFB
AFB000000AFB
9FD000000BFA
6FF200000EF7
2FF800006FF2
09FF8226EFA0
01BFFFFFFC10
0006CEEC7000
ENDCHAR
STARTCHAR otilde
ENCODING 245
SWIDTH 501 0
DWIDTH 14 0
BBX 12 21 1 0
BITMAP
000000001100
003BD920BE00
00DFFFFFFA00
02E915CEB100
000000000000
000000000000
0006CEEC6000
01BFFFFFFB10
09FF8228FF90
2FF900008FF2
6FF200001FF7
9FD000000CFA
AFB000000BFB
BFB000000AFB
AFB000000AFB
9FD000000BFA
6FF200000EF7
2FF800006FF2
09FF8226EFA0
01BFFFFFFC10
0006CEEC7000
ENDCHAR
STARTCHAR odieresis
ENCODING 246
SWIDTH 501 0
DWIDTH 14 0
BBX 12 20 1 0
BITMAP
02CC2003CB10
07FF7009FF50
03DD2004ED10
000000000000
000000000000
0006CEEC6000
01BFFFFFFB10
09FF8228FF90
2FF900008FF2
6FF200001FF7
9FD000000CFA
AFB000000BFB
BFB000000AFB
AFB000000AFB
9FD000000BFA
6FF200000EF7
2FF800006FF2
09FF8226EFA0
01BFFFFFFC10
0006CEEC7000
ENDCHAR
STARTCHAR divide
ENCODING 247
SWIDTH 500 0
DWIDTH 14 0
BBX 12 15 1 2
BITMAP
00002B900000
00008FF40000
00005FE20000
000002100000
000000000000
000000000000
EFFFFFFFFFF8
EFFFFFFFFFF8
788888888884
000000000000
000000000000
000019700000
00008FF40000
00006FF30000
000004300000
ENDCHAR
STARTCHAR oslash
ENCODING 248
SWIDTH 498 0
DWIDTH 14 0
BBX 12 19 1 -2
BITMAP
000000000740
000000004F40
0005BEEBCD00
009FFFFFFB00
06FF922BFF60
0EFA001EEFE1
4FF3006F5FF5
8FE000CB0DF8
9FC004F50CFA
AFB00AD00BFB
9FC02F700BFA
7FE08F100DF9
4FF4EA002FF5
0DFDF3009FE1
06FFD228FF70
009FFFFFF900
00AEBEEC5000
01F800000000
038100000000
ENDCHAR
STARTCHAR ugrave
ENCODING 249
SWIDTH 483 0
DWIDTH 14 0
BBX 11 21 1 0
BITMAP
02EFD1000000
003EFA000000
0005FF700000
00006DA00000
000000000000
000000000000
4FF30000BFB0
4FF30000BFB0
4FF30000BFB0
4FF30000BFB0
4FF30000BFB0
4FF30000BFB0
4FF30000BFB0
4FF30000BFB0
4FF30000BFB0
3FF30000BFB0
3FF40000BFB0
1FF80002EFB0
0CFE536DFFB0
04FFFFFFDFB0
004CFEB39FB0
ENDCHAR
STARTCHAR uacute
ENCODING 250
SWIDTH 483 0
DWIDTH 14 0
BBX 11 21 1 0
BITMAP
0000006FF900
000003EFA000
00001DFB0000
00004CC10000
000000000000
000000000000
4FF30000BFB0
4FF30000BFB0
4FF30000BFB0
4FF30000BFB0
4FF30000BFB0
4FF30000BFB0
4FF30000BFB0
4FF30000BFB0
4FF30000BFB0
3FF30000BFB0
3FF40000BFB0
1FF80002EFB0
0CFE536DFFB0
04FFFFFFDFB0
004CFEB39FB0
ENDCHAR
STARTCHAR ucircumflex
ENCODING 251
SWIDTH 483 0
DWIDTH 14 0
BBX 11 21 1 0
BITMAP
00006FD10000
0004FDFB0000
002EF39F9000
007D701DB200
000000000000
000000000000
4FF30000BFB0
4FF30000BFB0
4FF30000BFB0
4FF30000BFB0
4FF30000BFB0
4FF30000BFB0
4FF30000BFB0
4FF30000BFB0
4FF30000BFB0
3FF30000BFB0
3FF40000BFB0
1FF80002EFB0
0CFE536DFFB0
04FFFFFFDFB0
004CFEB39FB0
ENDCHAR
STARTCHAR udieresis
ENCODING 252
SWIDTH 483 0
DWIDTH 14 0
BBX 11 20 1 0
BITMAP
03CB1004C900
09FF400BFF30
04EC1006EB00
000000000000
000000000000
4FF30000BFB0
4FF30000BFB0
4FF30000BFB0
4FF30000BFB0
4FF30000BFB0
4FF30000BFB0
4FF30000BFB0
4FF30000BFB0
4FF30000BFB0
3FF30000BFB0
3FF40000BFB0
1FF80002EFB0
0CFE536DFFB0
04FFFFFFDFB0
004CFEB39FB0
ENDCHAR
STARTCHAR yacute
ENCODING 253
SWIDTH 416 0
DWIDTH 12 0
BBX 11 27 0 -6
BITMAP
0000002EFD10
000000CFE200
000008FE3000
00001AD30000
000000000000
000000000000
6FF400009FE0
1FF80000CFA0
0CFB0001FF60
07FF0005FF20
03FF4008FD00
00EF800CF800
009FB01FF400
005FF05FE000
001FF48FB000
000BF8CF6000
0007FCFF2000
0002FFFD0000
0000DFF90000
00009FF40000
00004FF10000
00005FB00000
0000AF700000
0002FF200000
035CFB000000
0CFFE2000000
0AEB30000000
ENDCHAR
STARTCHAR thorn
ENCODING 254
SWIDTH 508 0
DWIDTH 14 0
BBX 12 27 1 -6
BITMAP
1FF500000000
1FF500000000
1FF500000000
1FF500000000
1FF500000000
1FF500000000
1FF56CFE9100
1FFDFFFFFD10
1FFF933AFF90
1FFA0000BFF1
1FF500004FF5
1FF500000FF7
1FF500000DF9
1FF500000CF9
1FF500000DF9
1FF500000EF7
1FF500003FF5
1FF90000AFF1
1FFF8229FF90
1FFDFFFFFD10
1FF57CFE9100
1FF500000000
1FF500000000
1FF500000000
1FF500000000
1FF500000000
1FF500000000
ENDCHAR
STARTCHAR ydieresis
ENCODING 255
SWIDTH 416 0
DWIDTH 12 0
BBX 11 26 0 -6
BITMAP
01BC3001BC20
04FF9006FF80
01CE4002DE30
000000000000
000000000000
6FF400009FE0
1FF80000CFA0
0CFB0001FF60
07FF0005FF20
03FF4008FD00
00EF800CF800
009FB01FF400
005FF05FE000
001FF48FB000
000BF8CF6000
0007FCFF2000
0002FFFD0000
0000DFF90000
00009FF40000
00004FF10000
00005FB00000
0000AF700000
0002FF200000
035CFB000000
0CFFE2000000
0AEB30000000
ENDCHAR
STARTCHAR Amacron
ENCODING 256
SWIDTH 576 0
DWIDTH 16 0
BBX 16 24 0 0
BITMAP
0000BEEEEEEE2000
0000CFFFFFFF2000
0000000000000000
0000000000000000
0000002FF5000000
0000007FF9000000
000000CFFE000000
000002FFEF400000
000007FCAF900000
00000BF76FE00000
00001FF31FF30000
00006FE00CF80000
0000BFA008FD0000
0001FF5003FF3000
0005FF1000EF8000
000AFC0000AFD000
001EF800005FF200
005FFFFFFFFFF700
00AFFFFFFFFFFC00
00EFA2222228FF20
04FF40000002FF70
09FE00000000CFC0
0EFA000000007FF1
4FF5000000002FF6
ENDCHAR
STARTCHAR amacron
ENCODING 257
SWIDTH 479 0
DWIDTH 13 0
BBX 11 20 1 0
BITMAP
00EEEEEEEE00
00EFFFFFFF00
000000000000
000000000000
000000000000
0017CEEC6000
01DFFFFFF800
0AFE623BFF20
1FF60001FF60
15510000EF70
00000000EF70
0017CEFFFF70
02DFFECCFF70
0DFD5000EF70
4FF40000EF70
6FF00000EF70
6FF20003FF70
2FFC448EFF80
09FFFFFCDF90
007DFE91BFD0
ENDCHAR
STARTCHAR Abreve
ENCODING 258
SWIDTH 576 0
DWIDTH 16 0
BBX 16 25 0 0
BITMAP
0000991000892000
0000CF6003FF1000
00004FFBAEF80000
000003BEEC500000
0000000000000000
0000002FF5000000
0000007FF9000000
000000CFFE000000
000002FFEF400000
000007FCAF900000
00000BF76FE00000
00001FF31FF30000
00006FE00CF80000
0000BFA008FD0000
0001FF5003FF3000
0005FF1000EF8000
000AFC0000AFD000
001EF800005FF200
005FFFFFFFFFF700
00AFFFFFFFFFFC00
00EFA2222228FF20
04FF40000002FF70
09FE00000000CFC0
0EFA000000007FF1
4FF5000000002FF6
ENDCHAR
STARTCHAR abreve
ENCODING 259
SWIDTH 479 0
DWIDTH 13 0
BBX 11 20 1 0
BITMAP
019900009900
00EF4005FD00
006FFABFF600
0004BEEB4000
000000000000
0017CEEC6000
01DFFFFFF800
0AFE623BFF20
1FF60001FF60
15510000EF70
00000000EF70
0017CEFFFF70
02DFFECCFF70
0DFD5000EF70
4FF40000EF70
6FF00000EF70
6FF20003FF70
2FFC448EFF80
09FFFFFCDF90
007DFE91BFD0
ENDCHAR
STARTCHAR Aogonek
ENCODING 260
SWIDTH 576 0
DWIDTH 16 0
BBX 16 26 0 -6
BITMAP
0000002FF5000000
0000007FF9000000
000000CFFE000000
000002FFEF400000
000007FCAF900000
00000BF76FE00000
00001FF31FF30000
00006FE00CF80000
0000BFA008FD0000
0001FF5003FF3000
0005FF1000EF8000
000AFC0000AFD000
001EF800005FF200
005FFFFFFFFFF700
00AFFFFFFFFFFC00
00EFA2222228FF20
04FF40000002FF70
09FE00000000CFC0
0EFA000000008FF1
4FF5000000003FF6
0000000000009F80
000000000006FB00
00000000000CF400
00000000000EF410
00000000000BFFF3
000000000002CEB2
ENDCHAR
STARTCHAR aogonek
ENCODING 261
SWIDTH 479 0
DWIDTH 13 0
BBX 11 21 1 -6
BITMAP
0017CEEC6000
01DFFFFFF800
0AFE623BFF20
1FF60001FF60
15510000EF70
00000000EF70
0017CEFFFF70
02DFFECCFF70
0DFD5000EF70
4FF40000EF70
6FF00000EF70
6FF20003FF70
2FFC448EFF80
09FFFFFCDF90
007DFE91BFD0
00000003ED20
0000001EF200
0000006FA000
0000007FB010
0000005FFE90
00000009ED60
ENDCHAR
STARTCHAR Cacute
ENCODING 262
SWIDTH 566 0
DWIDTH 16 0
BBX 14 26 1 0
BITMAP
00000002EFD100
0000000CFD2000
0000008FE20000
000001AD300000
00000000000000
00000000000000
00005BEFEB5000
001BFFFFFFF900
00AFFA434BFF70
05FF800000BFE1
0BFD0000004FF5
0FF80000001FF8
3FF500000009A6
4FF40000000000
4FF30000000000
4FF30000000000
4FF30000000000
4FF30000000000
4FF40000000000
3FF50000000895
0FF80000001FF7
0BFD0000004FF4
05FF600000BFE1
00BFF9324BFF60
001BFFFFFFF800
00006BEFDA4000
ENDCHAR
STARTCHAR cacute
ENCODING 263
SWIDTH 461 0
DWIDTH 13 0
BBX 11 21 1 0
BITMAP
000000CFE400
000008FF4000
00004FF50000
00008D700000
000000000000
000000000000
0018DEEC5000
02DFFFFFF900
0BFE6239FF40
3FF50000CFA0
7FE000007FD0
9FC000001430
AFB000000000
AFB000000000
AFB000000000
9FC000000000
7FE000005CB0
3FF40000AFB0
0CFE5228FF40
02DFFFFFF800
0018DEEB5000
ENDCHAR
STARTCHAR Ccircumflex
ENCODING 264
SWIDTH 566 0
DWIDTH 16 0
BBX 14 26 1 0
BITMAP
000002EF400000
00001DFEE20000
0000BF74FD1000
0003BB009C5000
00000000000000
00000000000000
00005BEFEB5000
001BFFFFFFF900
00AFFA434BFF70
05FF800000BFE1
0BFD0000004FF5
0FF80000001FF8
3FF500000009A6
4FF40000000000
4FF30000000000
4FF30000000000
4FF30000000000
4FF30000000000
4FF40000000000
3FF50000000895
0FF80000001FF7
0BFD0000004FF4
05FF600000BFE1
00BFF9324BFF60
001BFFFFFFF800
00006BEFDA4000
ENDCHAR
STARTCHAR ccircumflex
ENCODING 265
SWIDTH 461 0
DWIDTH 13 0
BBX 11 21 1 0
BITMAP
0000CF700000
000AFDF50000
008FB2EE3000
01AD205D8000
000000000000
000000000000
0018DEEC5000
02DFFFFFF900
0BFE6239FF40
3FF50000CFA0
7FE000007FD0
9FC000001430
AFB000000000
AFB000000000
AFB000000000
9FC000000000
7FE000005CB0
3FF40000AFB0
0CFE5228FF40
02DFFFFFF800
0018DEEB5000
ENDCHAR
STARTCHAR Cdotaccent
ENCODING 266
SWIDTH 566 0
DWIDTH 16 0
BBX 14 25 1 0
BITMAP
000001BC300000
000006FF800000
000002DE300000
00000000000000
00000000000000
00005BEFEB5000
001BFFFFFFF900
00AFFA434BFF70
05FF800000BFE1
0BFD0000004FF5
0FF80000001FF8
3FF500000009A6
4FF40000000000
4FF30000000000
4FF30000000000
4FF30000000000
4FF30000000000
4FF40000000000
3FF50000000895
0FF80000001FF7
0BFD0000004FF4
05FF600000BFE1
00BFF9324BFF60
001BFFFFFFF800
00006BEFDA4000
ENDCHAR
STARTCHAR cdotaccent
ENCODING 267
SWIDTH 461 0
DWIDTH 13 0
BBX 11 20 1 0
BITMAP
00009D500000
0002FFC00000
0000BE700000
000000000000
000000000000
0018DEEC5000
02DFFFFFF900
0BFE6239FF40
3FF50000CFA0
7FE000007FD0
9FC000001430
AFB000000000
AFB000000000
AFB000000000
9FC000000000
7FE000005CB0
3FF40000AFB0
0CFE5228FF40
02DFFFFFF800
0018DEEB5000
ENDCHAR
STARTCHAR Ccaron
ENCODING 268
SWIDTH 566 0
DWIDTH 16 0
BBX 14 26 1 0
BITMAP
0005FC00AF7000
00008F75FB0000
00000CFED10000
000002EF300000
00000000000000
00000000000000
00005BEFEB5000
001BFFFFFFF900
00AFFA434BFF70
05FF800000BFE1
0BFD0000004FF5
0FF80000001FF8
3FF500000009A6
4FF40000000000
4FF30000000000
4FF30000000000
4FF30000000000
4FF30000000000
4FF40000000000
3FF50000000895
0FF80000001FF7
0BFD0000004FF4
05FF600000BFE1
00BFF9324BFF60
001BFFFFFFF800
00006BEFDA4000
ENDCHAR
STARTCHAR ccaron
ENCODING 269
SWIDTH 461 0
DWIDTH 13 0
BBX 11 21 1 0
BITMAP
02EE206FB000
004FB2ED1000
0008FDF30000
0000BF700000
000000000000
000000000000
0018DEEC5000
02DFFFFFF900
0BFE6239FF40
3FF50000CFA0
7FE000007FD0
9FC000001430
AFB000000000
AFB000000000
AFB000000000
9FC000000000
7FE000005CB0
3FF40000AFB0
0CFE5228FF40
02DFFFFFF800
0018DEEB5000
ENDCHAR
STARTCHAR Dcaron
ENCODING 270
SWIDTH 570 0
DWIDTH 16 0
BBX 13 26 2 0
BITMAP
02EE106FB00000
005FA2ED100000
0008FDF3000000
0000CF60000000
00000000000000
00000000000000
DFFFFED9300000
DFFFFFFFF80000
DFB2236CFF8000
DFA000009FF300
DFA000001EF900
DFA0000009FD00
DFA0000006FF10
DFA0000004FF30
DFA0000004FF30
DFA0000004FF40
DFA0000004FF40
DFA0000004FF30
DFA0000004FF30
DFA0000006FF10
DFA0000009FE00
DFA000001EF900
DFA00000AFF300
DFB2236CFF8000
DFFFFFFFF80000
DFFFFEC8200000
ENDCHAR
STARTCHAR dcaron
ENCODING 271
SWIDTH 569 0
DWIDTH 16 0
BBX 15 21 1 0
BITMAP
000000007FF08FB0
000000007FF09FA0
000000007FF0CF70
000000007FF2FF20
000000007FF1A600
000000007FF00000
003AEFC57FF00000
03EFFFFFCFF00000
0DFE734AFFF00000
4FF60000AFF00000
7FE000007FF00000
9FC000007FF00000
AFB000007FF00000
BFB000007FF00000
AFB000007FF00000
9FC000007FF00000
7FE000007FF00000
3FF50000BFF00000
0CFE634AFFF00000
03EFFFFFBFF00000
002AEFC54FF00000
ENDCHAR
STARTCHAR Dcroat
ENCODING 272
SWIDTH 585 0
DWIDTH 16 0
BBX 15 20 0 0
BITMAP
007FFFFFEB600000
007FFFFFFFFC2000
007FF32349FFD100
007FF100004FF900
007FF1000008FE10
007FF1000002FF50
007FF1000000EF80
007FF1000000DF90
007FF1000000CFA0
BFFFFFFA0000CFA0
BFFFFFFA0000CFA0
117FF2110000CFA0
007FF1000000DF90
007FF1000000EF80
007FF1000003FF50
007FF1000009FE10
007FF100004FF900
007FF32349FFD100
007FFFFFFFFC2000
007FFFFEDA500000
ENDCHAR
STARTCHAR dcroat
ENCODING 273
SWIDTH 529 0
DWIDTH 15 0
BBX 14 21 1 0
BITMAP
000000007FF000
000000007FF000
000004FFFFFFF3
000004FFFFFFF3
000000117FF110
000000007FF000
0019EFC67FF000
01DFFFFFDFF000
09FF934BFFF000
1FF90000BFF000
6FF200007FF000
8FD000007FF000
AFC000007FF000
AFB000007FF000
9FB000007FF000
8FD000007FF000
5FF200007FF000
1EF90000BFF000
08FF834BFFF000
01CFFFFFEFF000
0018DFD74FF000
ENDCHAR
STARTCHAR Emacron
ENCODING 274
SWIDTH 496 0
DWIDTH 14 0
BBX 11 25 2 0
BITMAP
08EEEEEEE600
08FFFFFFF600
000000000000
000000000000
000000000000
DFFFFFFFFFB0
DFFFFFFFFFB0
DFB222222220
DFA000000000
DFA000000000
DFA000000000
DFA000000000
DFA000000000
DFA000000000
DFFFFFFFFA00
DFFFFFFFFA00
DFB222222100
DFA000000000
DFA000000000
DFA000000000
DFA000000000
DFA000000000
DFB222222220
DFFFFFFFFFD0
DFFFFFFFFFD0
ENDCHAR
STARTCHAR emacron
ENCODING 275
SWIDTH 468 0
DWIDTH 13 0
BBX 11 20 1 0
BITMAP
02EEEEEEEB00
02FFFFFFFC00
000000000000
000000000000
000000000000
0017CEEC6000
01CFFFFFF900
09FE623AFF30
1FF50000DF90
6FE000008FC0
8FC000006FE0
9FFFFFFFFFF0
AFFFFFFFFFF0
AFC111111110
9FD000000000
7FF100000000
3FF700000600
0BFF7214AF90
02DFFFFFFE40
0018CEED9200
ENDCHAR
STARTCHAR Ebreve
ENCODING 276
SWIDTH 496 0
DWIDTH 14 0
BBX 11 25 2 0
BITMAP
069400069400
08FA001DF500
01EFCADFC000
0019DED81000
000000000000
DFFFFFFFFFB0
DFFFFFFFFFB0
DFB222222220
DFA000000000
DFA000000000
DFA000000000
DFA000000000
DFA000000000
DFA000000000
DFFFFFFFFA00
DFFFFFFFFA00
DFB222222100
DFA000000000
DFA000000000
DFA000000000
DFA000000000
DFA000000000
DFB222222220
DFFFFFFFFFD0
DFFFFFFFFFD0
ENDCHAR
STARTCHAR ebreve
ENCODING 277
SWIDTH 468 0
DWIDTH 13 0
BBX 11 20 1 0
BITMAP
039700029800
02FE2008FA00
009FEACFF300
0006CEDA2000
000000000000
0017CEEC6000
01CFFFFFF900
09FE623AFF30
1FF50000DF90
6FE000008FC0
8FC000006FE0
9FFFFFFFFFF0
AFFFFFFFFFF0
AFC111111110
9FD000000000
7FF100000000
3FF700000600
0BFF7214AF90
02DFFFFFFE40
0018CEED9200
ENDCHAR
STARTCHAR Edotaccent
ENCODING 278
SWIDTH 496 0
DWIDTH 14 0
BBX 11 25 2 0
BITMAP
00009D600000
0001FFD00000
0000AE700000
000000000000
000000000000
DFFFFFFFFFB0
DFFFFFFFFFB0
DFB222222220
DFA000000000
DFA000000000
DFA000000000
DFA000000000
DFA000000000
DFA000000000
DFFFFFFFFA00
DFFFFFFFFA00
DFB222222100
DFA000000000
DFA000000000
DFA000000000
DFA000000000
DFA000000000
DFB222222220
DFFFFFFFFFD0
DFFFFFFFFFD0
ENDCHAR
STARTCHAR edotaccent
ENCODING 279
SWIDTH 468 0
DWIDTH 13 0
BBX 11 20 1 0
BITMAP
00004DA00000
0000AFF30000
00005EC10000
000000000000
000000000000
0017CEEC6000
01CFFFFFF900
09FE623AFF30
1FF50000DF90
6FE000008FC0
8FC000006FE0
9FFFFFFFFFF0
AFFFFFFFFFF0
AFC111111110
9FD000000000
7FF100000000
3FF700000600
0BFF7214AF90
02DFFFFFFE40
0018CEED9200
ENDCHAR
STARTCHAR Eogonek
ENCODING 280
SWIDTH 496 0
DWIDTH 14 0
BBX 11 26 2 -6
BITMAP
DFFFFFFFFFB0
DFFFFFFFFFB0
DFB222222220
DFA000000000
DFA000000000
DFA000000000
DFA000000000
DFA000000000
DFA000000000
DFFFFFFFFA00
DFFFFFFFFA00
DFB222222100
DFA000000000
DFA000000000
DFA000000000
DFA000000000
DFA000000000
DFB222222220
DFFFFFFFFFD0
DFFFFFFFFFD0
0000000BF700
0000008FA000
000000DF3000
000000FF3100
000000CFFF20
0000003CEB10
ENDCHAR
STARTCHAR eogonek
ENCODING 281
SWIDTH 468 0
DWIDTH 13 0
BBX 11 21 1 -6
BITMAP
0017CEEC6000
01CFFFFFF900
09FE623AFF30
1FF50000DF90
6FE000008FC0
8FC000006FE0
9FFFFFFFFFF0
AFFFFFFFFFF0
AFC111111110
9FD000000000
7FF100000000
3FF600000600
0BFF7213AF90
02DFFFFFFE40
0018DFFF9200
00000AF90000
00002FE10000
00006FA00000
00006FB01000
00003FFEA000
000007EE7000
ENDCHAR
STARTCHAR Ecaron
ENCODING 282
SWIDTH 496 0
DWIDTH 14 0
BBX 11 26 2 0
BITMAP
01EE205FC000
004FB2EE2000
0007FDF40000
0000BF700000
000000000000
000000000000
DFFFFFFFFFB0
DFFFFFFFFFB0
DFB222222220
DFA000000000
DFA000000000
DFA000000000
DFA000000000
DFA000000000
DFA000000000
DFFFFFFFFA00
DFFFFFFFFA00
DFB222222100
DFA000000000
DFA000000000
DFA000000000
DFA000000000
DFA000000000
DFB222222220
DFFFFFFFFFD0
DFFFFFFFFFD0
ENDCHAR
STARTCHAR ecaron
ENCODING 283
SWIDTH 468 0
DWIDTH 13 0
BBX 11 21 1 0
BITMAP
009F701DF300
001CF2AF6000
0002EDF90000
00005FC00000
000000000000
000000000000
0017CEEC6000
01CFFFFFF900
09FE623AFF30
1FF50000DF90
6FE000008FC0
8FC000006FE0
9FFFFFFFFFF0
AFFFFFFFFFF0
AFC111111110
9FD000000000
7FF100000000
3FF700000600
0BFF7214AF90
02DFFFFFFE40
0018CEED9200
ENDCHAR
STARTCHAR Gcircumflex
ENCODING 284
SWIDTH 590 0
DWIDTH 17 0
BBX 14 26 1 0
BITMAP
000004FE200000
00002EEFD10000
0001DF57FB0000
0005C900BB3000
00000000000000
00000000000000
00017CEFEB5000
002DFFFFFFFA00
01DFF8434BFF80
07FF500000CFF1
0CFB0000004FF5
1FF70000001FF8
3FF50000000121
4FF40000000000
4FF30000000000
4FF30000000000
4FF30008FFFFF9
4FF30008FFFFF9
4FF40001222EF9
3FF50000000EF9
0FF80000000EF9
0BFD0000000EF9
05FF8000001EF9
00BFFB4347EFF6
001BFFFFFFFF70
00005AEFEC8200
ENDCHAR
STARTCHAR gcircumflex
ENCODING 285
SWIDTH 492 0
DWIDTH 14 0
BBX 11 27 1 -6
BITMAP
00008FB00000
0006FDF90000
004FE2BF7000
008D502DA100
000000000000
000000000000
003AEEC53FF0
03EFFFFFAFF0
0DFE734AFFF0
3FF60000BFF0
7FF100006FF0
9FC000006FF0
AFB000006FF0
AFB000006FF0
AFB000006FF0
9FC000006FF0
7FF000006FF0
3FF60000AFF0
0CFE633AFFF0
03EFFFFFCFF0
002AEFC56FF0
000000007FF0
000000009FD0
01700001EFA0
09FA314BFF40
04EFFFFFF800
0018CFEB5000
ENDCHAR
STARTCHAR Gbreve
ENCODING 286
SWIDTH 590 0
DWIDTH 17 0
BBX 14 25 1 0
BITMAP
00199000199000
000EF3006FD000
0007FEABFF5000
00005CEEB40000
00000000000000
00017CEFEB5000
002DFFFFFFFA00
01DFF8434BFF80
07FF500000CFF1
0CFB0000004FF5
1FF70000001FF8
3FF50000000121
4FF40000000000
4FF30000000000
4FF30000000000
4FF30008FFFFF9
4FF30008FFFFF9
4FF40001222EF9
3FF50000000EF9
0FF80000000EF9
0BFD0000000EF9
05FF8000001EF9
00BFFB4347EFF6
001BFFFFFFFF70
00005AEFEC8200
ENDCHAR
STARTCHAR gbreve
ENCODING 287
SWIDTH 492 0
DWIDTH 14 0
BBX 11 26 1 -6
BITMAP
049600039700
04FD100AF800
00BFDACFE200
0007CED92000
000000000000
003AEEC53FF0
03EFFFFFAFF0
0DFE734AFFF0
3FF60000BFF0
7FF100006FF0
9FC000006FF0
AFB000006FF0
AFB000006FF0
AFB000006FF0
9FC000006FF0
7FF000006FF0
3FF60000AFF0
0CFE633AFFF0
03EFFFFFCFF0
002AEFC56FF0
000000007FF0
000000009FD0
01700001EFA0
09FA314BFF40
04EFFFFFF800
0018CFEB5000
ENDCHAR
STARTCHAR Gdotaccent
ENCODING 288
SWIDTH 590 0
DWIDTH 17 0
BBX 14 25 1 0
BITMAP
000003CB100000
000008FF600000
000004ED200000
00000000000000
00000000000000
00017CEFEB5000
002DFFFFFFFA00
01DFF8434BFF80
07FF500000CFF1
0CFB0000004FF5
1FF70000001FF8
3FF50000000121
4FF40000000000
4FF30000000000
4FF30000000000
4FF30008FFFFF9
4FF30008FFFFF9
4FF40001222EF9
3FF50000000EF9
0FF80000000EF9
0BFD0000000EF9
05FF8000001EF9
00BFFB4347EFF6
001BFFFFFFFF70
00005AEFEC8200
ENDCHAR
STARTCHAR gdotaccent
ENCODING 289
SWIDTH 492 0
DWIDTH 14 0
BBX 11 26 1 -6
BITMAP
00006D900000
0000CFF10000
00007EB00000
000000000000
000000000000
003AEEC53FF0
03EFFFFFAFF0
0DFE734AFFF0
3FF60000BFF0
7FF100006FF0
9FC000006FF0
AFB000006FF0
AFB000006FF0
AFB000006FF0
9FC000006FF0
7FF000006FF0
3FF60000AFF0
0CFE633AFFF0
03EFFFFFCFF0
002AEFC56FF0
000000007FF0
000000009FD0
01700001EFA0
09FA314BFF40
04EFFFFFF800
0018CFEB5000
ENDCHAR
STARTCHAR uni0122
ENCODING 290
SWIDTH 590 0
DWIDTH 17 0
BBX 14 27 1 -7
BITMAP
00017CEFEB5000
002DFFFFFFFA00
01DFF8434BFF80
07FF500000CFF1
0CFB0000004FF5
1FF70000001FF8
3FF50000000121
4FF40000000000
4FF30000000000
4FF30000000000
4FF30008FFFFF9
4FF30008FFFFF9
4FF40001222EF9
3FF50000000EF9
0FF80000000EF9
0BFD0000000EF9
05FF8000001EF9
00BFFB4347EFF6
001BFFFFFFFF70
00005AEFEC8200
00000000000000
00000000000000
0000008FC00000
0000009FB00000
000000BF800000
000002FF200000
000001A7000000
ENDCHAR
STARTCHAR uni0123
ENCODING 291
SWIDTH 492 0
DWIDTH 14 0
BBX 11 29 1 -6
BITMAP
000004A10000
00000DF50000
00005FF10000
00008FD00000
0000AFC00000
0000AFC00000
000000000000
000000000000
003AEEC53FF0
03EFFFFFAFF0
0DFE734AFFF0
3FF60000BFF0
7FF100006FF0
9FC000006FF0
AFB000006FF0
AFB000006FF0
AFB000006FF0
9FC000006FF0
7FF000006FF0
3FF60000AFF0
0CFE633AFFF0
03EFFFFFCFF0
002AEFC56FF0
000000007FF0
000000009FD0
01700001EFA0
09FA314BFF40
04EFFFFFF800
0018CFEB5000
ENDCHAR
STARTCHAR Hcircumflex
ENCODING 292
SWIDTH 620 0
DWIDTH 17 0
BBX 14 26 2 0
BITMAP
00000BF9000000
00009FDF600000
0006FC1DF40000
001AD304D90000
00000000000000
00000000000000
DFA00000005FF3
DFA00000005FF3
DFA00000005FF3
DFA00000005FF3
DFA00000005FF3
DFA00000005FF3
DFA00000005FF3
DFA00000005FF3
DFA00000005FF3
DFFFFFFFFFFFF3
DFFFFFFFFFFFF3
DFB22222227FF3
DFA00000005FF3
DFA00000005FF3
DFA00000005FF3
DFA00000005FF3
DFA00000005FF3
DFA00000005FF3
DFA00000005FF3
DFA00000005FF3
ENDCHAR
STARTCHAR hcircumflex
ENCODING 293
SWIDTH 482 0
DWIDTH 14 0
BBX 11 26 1 0
BITMAP
0002EF400000
001DFEE20000
00BF75FD1000
04BB009C5000
000000000000
3FF300000000
3FF300000000
3FF300000000
3FF300000000
3FF300000000
3FF300000000
3FF35CFE9100
3FFBFFFFFC00
3FFFA33AFF50
3FFB0000EF80
3FF40000BFA0
3FF30000AFB0
3FF30000AFB0
3FF30000AFB0
3FF30000AFB0
3FF30000AFB0
3FF30000AFB0
3FF30000AFB0
3FF30000AFB0
3FF30000AFB0
3FF30000AFB0
ENDCHAR
STARTCHAR Hbar
ENCODING 294
SWIDTH 611 0
DWIDTH 17 0
BBX 17 20 0 0
BITMAP
00DFA00000005FF300
00DFA00000005FF300
00DFA00000005FF300
00DFA00000005FF300
6FFFFFFFFFFFFFFFA0
5EFFFEEEEEEEEFFEA0
00DFA00000005FF300
00DFA00000005FF300
00DFA00000005FF300
00DFFFFFFFFFFFF300
00DFFFFFFFFFFFF300
00DFB22222227FF300
00DFA00000005FF300
00DFA00000005FF300
00DFA00000005FF300
00DFA00000005FF300
00DFA00000005FF300
00DFA00000005FF300
00DFA00000005FF300
00DFA00000005FF300
ENDCHAR
STARTCHAR hbar
ENCODING 295
SWIDTH 497 0
DWIDTH 14 0
BBX 14 21 -1 0
BITMAP
000CFA00000000
000CFA00000000
3FFFFFFF300000
3FFFFFFF300000
011CFA11000000
000CFA00000000
000CFA2AEFC400
000CFCEFFFFF30
000CFFE636FFB0
000CFF30008FE0
000CFA00005FF1
000CFA00004FF2
000CFA00004FF2
000CFA00004FF2
000CFA00004FF2
000CFA00004FF2
000CFA00004FF2
000CFA00004FF2
000CFA00004FF2
000CFA00004FF2
000CFA00004FF2
ENDCHAR
STARTCHAR Itilde
ENCODING 296
SWIDTH 250 0
DWIDTH 7 0
BBX 9 26 -1 0
BITMAP
0000000200
06DC603F80
4FFFFFFF40
8F318EE700
0000000000
0000000000
000BFC0000
000BFC0000
000BFC0000
000BFC0000
000BFC0000
000BFC0000
000BFC0000
000BFC0000
000BFC0000
000BFC0000
000BFC0000
000BFC0000
000BFC0000
000BFC0000
000BFC0000
000BFC0000
000BFC0000
000BFC0000
000BFC0000
000BFC0000
ENDCHAR
STARTCHAR itilde
ENCODING 297
SWIDTH 234 0
DWIDTH 7 0
BBX 9 21 -1 0
BITMAP
0000000200
09DB406F50
7FFFFFFE10
BD129ED500
0000000000
0000000000
000FF60000
000FF60000
000FF60000
000FF60000
000FF60000
000FF60000
000FF60000
000FF60000
000FF60000
000FF60000
000FF60000
000FF60000
000FF60000
000FF60000
000FF60000
ENDCHAR
STARTCHAR Imacron
ENCODING 298
SWIDTH 250 0
DWIDTH 7 0
BBX 9 25 -1 0
BITMAP
6EEEEEEE80
6FFFFFFF80
0000000000
0000000000
0000000000
000BFC0000
000BFC0000
000BFC0000
000BFC0000
000BFC0000
000BFC0000
000BFC0000
000BFC0000
000BFC0000
000BFC0000
000BFC0000
000BFC0000
000BFC0000
000BFC0000
000BFC0000
000BFC0000
000BFC0000
000BFC0000
000BFC0000
000BFC0000
ENDCHAR
STARTCHAR imacron
ENCODING 299
SWIDTH 234 0
DWIDTH 7 0
BBX 9 20 -1 0
BITMAP
9EEEEEEE40
AFFFFFFF50
0000000000
0000000000
0000000000
000FF60000
000FF60000
000FF60000
000FF60000
000FF60000
000FF60000
000FF60000
000FF60000
000FF60000
000FF60000
000FF60000
000FF60000
000FF60000
000FF60000
000FF60000
ENDCHAR
STARTCHAR Ibreve
ENCODING 300
SWIDTH 250 0
DWIDTH 7 0
BBX 9 25 -1 0
BITMAP
5950005950
6FC000CF60
1DFDADFD10
018DED8100
0000000000
000BFC0000
000BFC0000
000BFC0000
000BFC0000
000BFC0000
000BFC0000
000BFC0000
000BFC0000
000BFC0000
000BFC0000
000BFC0000
000BFC0000
000BFC0000
000BFC0000
000BFC0000
000BFC0000
000BFC0000
000BFC0000
000BFC0000
000BFC0000
ENDCHAR
STARTCHAR ibreve
ENCODING 301
SWIDTH 234 0
DWIDTH 7 0
BBX 9 20 -1 0
BITMAP
7930007930
9F9001EF30
2EFCAEFA00
02ADEC7000
0000000000
000FF60000
000FF60000
000FF60000
000FF60000
000FF60000
000FF60000
000FF60000
000FF60000
000FF60000
000FF60000
000FF60000
000FF60000
000FF60000
000FF60000
000FF60000
ENDCHAR
STARTCHAR Iogonek
ENCODING 302
SWIDTH 250 0
DWIDTH 7 0
BBX 5 26 0 -6
BITMAP
00BFC0
00BFC0
00BFC0
00BFC0
00BFC0
00BFC0
00BFC0
00BFC0
00BFC0
00BFC0
00BFC0
00BFC0
00BFC0
00BFC0
00BFC0
00BFC0
00BFC0
00BFC0
00BFC0
00DFD0
03ED20
1EF300
5FA000
7FB010
4FFE90
08ED60
ENDCHAR
STARTCHAR iogonek
ENCODING 303
SWIDTH 229 0
DWIDTH 6 0
BBX 5 26 0 -6
BITMAP
00AD30
02FF90
00BE40
000000
000000
00FF60
00FF60
00FF60
00FF60
00FF60
00FF60
00FF60
00FF60
00FF60
00FF60
00FF60
00FF60
00FF60
00FF60
00FF70
07FB00
4FD100
AF6000
BF7010
8FFE50
1BEC30
ENDCHAR
STARTCHAR Idotaccent
ENCODING 304
SWIDTH 250 0
DWIDTH 7 0
BBX 3 25 2 0
BITMAP
8D70
FFE0
9E90
0000
0000
BFC0
BFC0
BFC0
BFC0
BFC0
BFC0
BFC0
BFC0
BFC0
BFC0
BFC0
BFC0
BFC0
BFC0
BFC0
BFC0
BFC0
BFC0
BFC0
BFC0
ENDCHAR
STARTCHAR dotlessi
ENCODING 305
SWIDTH 234 0
DWIDTH 7 0
BBX 3 15 2 0
BITMAP
FF60
FF60
FF60
FF60
FF60
FF60
FF60
FF60
FF60
FF60
FF60
FF60
FF60
FF60
FF60
ENDCHAR
STARTCHAR IJ
ENCODING 306
SWIDTH 733 0
DWIDTH 21 0
BBX 17 20 2 0
BITMAP
BFC00000000000FF80
BFC00000000000FF80
BFC00000000000FF80
BFC00000000000FF80
BFC00000000000FF80
BFC00000000000FF80
BFC00000000000FF80
BFC00000000000FF80
BFC00000000000FF80
BFC00000000000FF80
BFC00000000000FF80
BFC00000000000FF80
BFC00000000000FF80
BFC00000000000FF80
BFC002CC400001FF70
BFC001FF700003FF60
BFC000DFD00009FF20
BFC0007FFB438FFA00
BFC0000AFFFFFFD100
BFC000006CEFD81000
ENDCHAR
STARTCHAR ij
ENCODING 307
SWIDTH 452 0
DWIDTH 13 0
BBX 10 26 1 -6
BITMAP
0AD30007D5
2FF9000EFB
0BE40009E7
0000000000
0000000000
0FF6000BFA
0FF6000BFA
0FF6000BFA
0FF6000BFA
0FF6000BFA
0FF6000BFA
0FF6000BFA
0FF6000BFA
0FF6000BFA
0FF6000BFA
0FF6000BFA
0FF6000BFA
0FF6000BFA
0FF6000BFA
0FF6000BFA
0000000BFA
0000000BFA
0000000CFA
0000035FF7
00000EFFF2
00000BFD40
ENDCHAR
STARTCHAR Jcircumflex
ENCODING 308
SWIDTH 483 0
DWIDTH 14 0
BBX 14 26 0 0
BITMAP
000000004FE200
00000002EEFD10
0000001DF57FB0
0000005CA00BC4
00000000000000
00000000000000
000000000FF800
000000000FF800
000000000FF800
000000000FF800
000000000FF800
000000000FF800
000000000FF800
000000000FF800
000000000FF800
000000000FF800
000000000FF800
000000000FF800
000000000FF800
000000000FF800
2CC400001FF700
1FF700003FF600
0DFD00009FF200
07FFB438FFA000
00AFFFFFFD1000
0006CEFD810000
ENDCHAR
STARTCHAR jcircumflex
ENCODING 309
SWIDTH 237 0
DWIDTH 7 0
BBX 8 27 -1 -6
BITMAP
000AF900
008FDF70
06FC1DF5
0AD304D9
00000000
00000000
000CFA00
000CFA00
000CFA00
000CFA00
000CFA00
000CFA00
000CFA00
000CFA00
000CFA00
000CFA00
000CFA00
000CFA00
000CFA00
000CFA00
000CFA00
000CFA00
000CF900
000EF800
127FF400
5FFFC000
5EEA1000
ENDCHAR
STARTCHAR uni0136
ENCODING 310
SWIDTH 544 0
DWIDTH 15 0
BBX 13 26 2 -6
BITMAP
DFA000000BFF40
DFA000006FF800
DFA00003FFC000
DFA0000CFE2000
DFA0009FF50000
DFA004FF900000
DFA01EFD100000
DFA0BFF3000000
DFA7FF70000000
DFDFFF90000000
DFFFFFF4000000
DFFE2EFD000000
DFF305FF700000
DFA000BFF20000
DFA0003FFB0000
DFA00008FF5000
DFA00001DFE100
DFA000005FF900
DFA000000BFF30
DFA0000002FFC0
00000000000000
00004FF1000000
00005FF0000000
00007FC0000000
0000DF60000000
00008A00000000
ENDCHAR
STARTCHAR uni0137
ENCODING 311
SWIDTH 450 0
DWIDTH 13 0
BBX 12 27 1 -6
BITMAP
3FF400000000
3FF400000000
3FF400000000
3FF400000000
3FF400000000
3FF400000000
3FF40008FF60
3FF4003FF900
3FF401DFC100
3FF409FE2000
3FF45FF60000
3FF5EF900000
3FFDFF400000
3FFFFFC00000
3FFF9FF60000
3FF70BFE1000
3FF402FF9000
3FF4008FF300
3FF4001DFC00
3FF40005FF70
3FF40000BFE2
000000000000
0000CF700000
0000DF600000
0001FF300000
0006FC000000
0003C3000000
ENDCHAR
STARTCHAR kgreenlandic
ENCODING 312
SWIDTH 491 0
DWIDTH 14 0
BBX 11 15 2 0
BITMAP
FF70000BFF30
FF70007FF600
FF7003FFA000
FF701DFD1000
FF709FF30000
FF75FF600000
FFFFFA000000
FFFFFC000000
FF97FF700000
FF70BFF30000
FF702EFC0000
FF7006FF8000
FF7000BFF300
FF70002FFD00
FF700007FF80
ENDCHAR
STARTCHAR Lacute
ENCODING 313
SWIDTH 475 0
DWIDTH 13 0
BBX 11 26 2 0
BITMAP
00BFF4000000
08FF50000000
4FF600000000
8D7000000000
000000000000
000000000000
DFA000000000
DFA000000000
DFA000000000
DFA000000000
DFA000000000
DFA000000000
DFA000000000
DFA000000000
DFA000000000
DFA000000000
DFA000000000
DFA000000000
DFA000000000
DFA000000000
DFA000000000
DFA000000000
DFA000000000
DFB222222210
DFFFFFFFFF70
DFFFFFFFFF70
ENDCHAR
STARTCHAR lacute
ENCODING 314
SWIDTH 229 0
DWIDTH 6 0
BBX 6 27 2 0
BITMAP
01DFE2
0AFE30
6FF400
AE5000
000000
000000
FF6000
FF6000
FF6000
FF6000
FF6000
FF6000
FF6000
FF6000
FF6000
FF6000
FF6000
FF6000
FF6000
FF6000
FF6000
FF6000
FF6000
FF6000
FF6000
FF6000
FF6000
ENDCHAR
STARTCHAR uni013B
ENCODING 315
SWIDTH 475 0
DWIDTH 13 0
BBX 11 27 2 -7
BITMAP
DFA000000000
DFA000000000
DFA000000000
DFA000000000
DFA000000000
DFA000000000
DFA000000000
DFA000000000
DFA000000000
DFA000000000
DFA000000000
DFA000000000
DFA000000000
DFA000000000
DFA000000000
DFA000000000
DFA000000000
DFB222222210
DFFFFFFFFF70
DFFFFFFFFF70
000000000000
000000000000
0000CF700000
0000DF700000
0000FF400000
0006FC000000
0003C3000000
ENDCHAR
STARTCHAR uni013C
ENCODING 316
SWIDTH 229 0
DWIDTH 6 0
BBX 4 28 1 -7
BITMAP
0FF6
0FF6
0FF6
0FF6
0FF6
0FF6
0FF6
0FF6
0FF6
0FF6
0FF6
0FF6
0FF6
0FF6
0FF6
0FF6
0FF6
0FF6
0FF6
0FF6
0FF6
0000
0000
0EF5
0FF4
2FF2
8FB0
4C20
ENDCHAR
STARTCHAR Lcaron
ENCODING 317
SWIDTH 475 0
DWIDTH 13 0
BBX 11 20 2 0
BITMAP
DFA006FE0000
DFA006FD0000
DFA009FA0000
DFA01EF40000
DFA019900000
DFA000000000
DFA000000000
DFA000000000
DFA000000000
DFA000000000
DFA000000000
DFA000000000
DFA000000000
DFA000000000
DFA000000000
DFA000000000
DFA000000000
DFB222222210
DFFFFFFFFF70
DFFFFFFFFF70
ENDCHAR
STARTCHAR lcaron
ENCODING 318
SWIDTH 302 0
DWIDTH 8 0
BBX 7 21 2 0
BITMAP
FF60CF80
FF60DF70
FF60FF40
FF66FD00
FF63C300
FF600000
FF600000
FF600000
FF600000
FF600000
FF600000
FF600000
FF600000
FF600000
FF600000
FF600000
FF600000
FF600000
FF600000
FF600000
FF600000
ENDCHAR
STARTCHAR Ldot
ENCODING 319
SWIDTH 475 0
DWIDTH 13 0
BBX 11 20 2 0
BITMAP
DFA000000000
DFA000000000
DFA000000000
DFA000000000
DFA000000000
DFA000000000
DFA000000000
DFA000000000
DFA008D70000
DFA00FFE0000
DFA00AE80000
DFA000000000
DFA000000000
DFA000000000
DFA000000000
DFA000000000
DFA000000000
DFB222222210
DFFFFFFFFF70
DFFFFFFFFF70
ENDCHAR
STARTCHAR ldot
ENCODING 320
SWIDTH 336 0
DWIDTH 9 0
BBX 7 21 2 0
BITMAP
FF600000
FF600000
FF600000
FF600000
FF600000
FF600000
FF600000
FF600000
FF600000
FF61BC30
FF65FF80
FF62DE40
FF600000
FF600000
FF600000
FF600000
FF600000
FF600000
FF600000
FF600000
FF600000
ENDCHAR
STARTCHAR Lslash
ENCODING 321
SWIDTH 475 0
DWIDTH 13 0
BBX 13 20 0 0
BITMAP
00DFA000000000
00DFA000000000
00DFA000000000
00DFA000000000
00DFA000000000
00DFA000000000
00DFA000000000
00DFA497000000
00DFFFF6000000
2BFFD710000000
4EEFA000000000
10DFA000000000
00DFA000000000
00DFA000000000
00DFA000000000
00DFA000000000
00DFA000000000
00DFB222222210
00DFFFFFFFFF70
00DFFFFFFFFF70
ENDCHAR
STARTCHAR lslash
ENCODING 322
SWIDTH 250 0
DWIDTH 7 0
BBX 7 21 0 0
BITMAP
00CF9000
00CF9000
00CF9000
00CF9000
00CF9000
00CF9000
00CF9000
00CF9000
00CFB950
00CFFF40
2CFFC100
4DEF9000
10CF9000
00CF9000
00CF9000
00CF9000
00CF9000
00CF9000
00CF9000
00CF9000
00CF9000
ENDCHAR
STARTCHAR Nacute
ENCODING 323
SWIDTH 619 0
DWIDTH 17 0
BBX 14 26 2 0
BITMAP
00000008FF7000
0000004FF80000
000002EF900000
000006CA000000
00000000000000
00000000000000
DFD00000005FF2
DFF60000005FF2
DFFE1000005FF2
DFFF7000005FF2
DFEFE100005FF2
DFADF700005FF2
DFA5FE10005FF2
DFA0CF80005FF2
DFA05FE1005FF2
DFA00CF8005FF2
DFA004FF205FF2
DFA000CF905FF2
DFA0004FF25FF2
DFA0000BF95FF2
DFA00003FF8FF2
DFA00000AFEFF2
DFA000003FFFF2
DFA000000AFFF2
DFA0000002FFF2
DFA00000009FF2
ENDCHAR
STARTCHAR nacute
ENCODING 324
SWIDTH 483 0
DWIDTH 14 0
BBX 11 21 1 0
BITMAP
0000004FFA00
000002EFB000
00000CFC1000
00003BC10000
000000000000
000000000000
3FF25CFE9100
3FFAFFFFFC00
3FFFA33AFF50
3FFB0000EF80
3FF40000BFA0
3FF30000AFB0
3FF30000AFB0
3FF30000AFB0
3FF30000AFB0
3FF30000AFB0
3FF30000AFB0
3FF30000AFB0
3FF30000AFB0
3FF30000AFB0
3FF30000AFB0
ENDCHAR
STARTCHAR uni0145
ENCODING 325
SWIDTH 619 0
DWIDTH 17 0
BBX 14 27 2 -7
BITMAP
DFD00000005FF2
DFF60000005FF2
DFFE1000005FF2
DFFF7000005FF2
DFEFE100005FF2
DFADF700005FF2
DFA5FE10005FF2
DFA0CF80005FF2
DFA05FE1005FF2
DFA00CF8005FF2
DFA004FF205FF2
DFA000CF905FF2
DFA0004FF25FF2
DFA0000BF95FF2
DFA00003FF8FF2
DFA00000AFEFF2
DFA000003FFFF2
DFA000000AFFF2
DFA0000002FFF2
DFA00000009FF2
00000000000000
00000000000000
00000AFA000000
00000AF9000000
00000DF6000000
00004FE1000000
00002B50000000
ENDCHAR
STARTCHAR uni0146
ENCODING 326
SWIDTH 483 0
DWIDTH 14 0
BBX 11 22 1 -7
BITMAP
3FF25CFE9100
3FFAFFFFFC00
3FFFA33AFF50
3FFB0000EF80
3FF40000BFA0
3FF30000AFB0
3FF30000AFB0
3FF30000AFB0
3FF30000AFB0
3FF30000AFB0
3FF30000AFB0
3FF30000AFB0
3FF30000AFB0
3FF30000AFB0
3FF30000AFB0
000000000000
000000000000
00007FC00000
00008FC00000
0000AF900000
0001FF300000
0001A7000000
ENDCHAR
STARTCHAR Ncaron
ENCODING 327
SWIDTH 619 0
DWIDTH 17 0
BBX 14 26 2 0
BITMAP
000BF502EE2000
0002EE1CF40000
00004FDF700000
000007FA000000
00000000000000
00000000000000
DFD00000005FF2
DFF60000005FF2
DFFE1000005FF2
DFFF7000005FF2
DFEFE100005FF2
DFADF700005FF2
DFA5FE10005FF2
DFA0CF80005FF2
DFA05FE1005FF2
DFA00CF8005FF2
DFA004FF205FF2
DFA000CF905FF2
DFA0004FF25FF2
DFA0000BF95FF2
DFA00003FF8FF2
DFA00000AFEFF2
DFA000003FFFF2
DFA000000AFFF2
DFA0000002FFF2
DFA00000009FF2
ENDCHAR
STARTCHAR ncaron
ENCODING 328
SWIDTH 483 0
DWIDTH 14 0
BBX 11 21 1 0
BITMAP
008F801DF400
000CF39F7000
0002EEFA0000
00004FD10000
000000000000
000000000000
3FF25CFE9100
3FFAFFFFFC00
3FFFA33AFF50
3FFB0000EF80
3FF40000BFA0
3FF30000AFB0
3FF30000AFB0
3FF30000AFB0
3FF30000AFB0
3FF30000AFB0
3FF30000AFB0
3FF30000AFB0
3FF30000AFB0
3FF30000AFB0
3FF30000AFB0
ENDCHAR
STARTCHAR napostrophe
ENCODING 329
SWIDTH 483 0
DWIDTH 14 0
BBX 13 21 -1 0
BITMAP
0BF80000000000
0CF80000000000
0EF50000000000
5FD00000000000
3C400000000000
00000000000000
003FF25CFE9100
003FFAFFFFFC00
003FFFA33AFF50
003FFB0000EF80
003FF40000BFA0
003FF30000AFB0
003FF30000AFB0
003FF30000AFB0
003FF30000AFB0
003FF30000AFB0
003FF30000AFB0
003FF30000AFB0
003FF30000AFB0
003FF30000AFB0
003FF30000AFB0
ENDCHAR
STARTCHAR Eng
ENCODING 330
SWIDTH 599 0
DWIDTH 17 0
BBX 13 26 2 -6
BITMAP
EFC0000000AFC0
EFF5000000AFC0
EFFC000000AFC0
EFFF500000AFC0
EFFFD00000AFC0
EFBFF60000AFC0
EF8AFD0000AFC0
EF82FF6000AFC0
EF809FE100AFC0
EF802FF700AFC0
EF8009FE10AFC0
EF8002FF70AFC0
EF80008FE1AFC0
EF80001EF8AFC0
EF800008FECFC0
EF800001EFFFC0
EF8000008FFFC0
EF8000001EFFC0
EF80000007FFC0
EF80000001EFC0
0000000000AFC0
0000000000BFC0
0000000000DFB0
0000000136FF70
00000004FFFE10
00000004EEB200
ENDCHAR
STARTCHAR eng
ENCODING 331
SWIDTH 498 0
DWIDTH 14 0
BBX 11 21 1 -6
BITMAP
2FF14BEE9100
2FF6FFFFFD10
2FFF834AFF60
2FF80000CFB0
2FF500008FD0
2FF500007FE0
2FF500007FF0
2FF500007FF0
2FF500007FF0
2FF500007FF0
2FF500007FF0
2FF500007FF0
2FF500007FF0
2FF500007FF0
2FF500007FF0
000000007FF0
000000007FE0
000000009FD0
00000045EFA0
000000FFFF30
000001DFC400
ENDCHAR
STARTCHAR Omacron
ENCODING 332
SWIDTH 600 0
DWIDTH 17 0
BBX 15 24 1 0
BITMAP
0007EEEEEEE70000
0007FFFFFFF70000
0000000000000000
0000000000000000
00006BEFEA400000
001BFFFFFFF90000
00BFFB546CFF8000
05FF800000AFF200
0BFD0000001FF800
0FF80000000BFC00
3FF500000008FF00
4FF400000007FF10
4FF300000006FF10
4FF300000006FF10
4FF300000006FF10
4FF300000006FF10
4FF400000007FF10
3FF500000008FF00
0FF80000000BFC00
0BFD0000001FF800
05FF800000AFF200
00BFFA546BFF9000
001BFFFFFFFA0000
00005BEFEA500000
ENDCHAR
STARTCHAR omacron
ENCODING 333
SWIDTH 501 0
DWIDTH 14 0
BBX 12 20 1 0
BITMAP
00EEEEEEED00
00FFFFFFFE00
000000000000
000000000000
000000000000
0006CEEC6000
01BFFFFFFB10
09FF8228FF90
2FF900008FF2
6FF200001FF7
9FD000000CFA
AFB000000BFB
BFB000000AFB
AFB000000AFB
9FD000000BFA
6FF200000EF7
2FF800006FF2
09FF8226EFA0
01BFFFFFFC10
0006CEEC7000
ENDCHAR
STARTCHAR Obreve
ENCODING 334
SWIDTH 600 0
DWIDTH 17 0
BBX 15 25 1 0
BITMAP
0006940005950000
0007FB000CF60000
0001DFDADFC00000
000019DED8100000
0000000000000000
00006BEFEA400000
001BFFFFFFF90000
00BFFB546CFF8000
05FF800000AFF200
0BFD0000001FF800
0FF80000000BFC00
3FF500000008FF00
4FF400000007FF10
4FF300000006FF10
4FF300000006FF10
4FF300000006FF10
4FF300000006FF10
4FF400000007FF10
3FF500000008FF00
0FF80000000BFC00
0BFD0000001FF800
05FF800000AFF200
00BFFA546BFF9000
001BFFFFFFFA0000
00005BEFEA500000
ENDCHAR
STARTCHAR obreve
ENCODING 335
SWIDTH 501 0
DWIDTH 14 0
BBX 12 20 1 0
BITMAP
019900019900
01EF3006FC00
007FEABFF500
0005CEEB3000
000000000000
0006CEEC6000
01BFFFFFFB10
09FF8228FF90
2FF900008FF2
6FF200001FF7
9FD000000CFA
AFB000000BFB
BFB000000AFB
AFB000000AFB
9FD000000BFA
6FF200000EF7
2FF800006FF2
09FF8226EFA0
01BFFFFFFC10
0006CEEC7000
ENDCHAR
STARTCHAR Ohungarumlaut
ENCODING 336
SWIDTH 600 0
DWIDTH 17 0
BBX 15 25 1 0
BITMAP
000001EF82EF9000
000007FD1CFC0000
00001EF48FE20000
00004CA1AE500000
0000000000000000
00006BEFEA400000
001BFFFFFFF90000
00BFFB546CFF8000
05FF800000AFF200
0BFD0000001FF800
0FF80000000BFC00
3FF500000008FF00
4FF400000007FF10
4FF300000006FF10
4FF300000006FF10
4FF300000006FF10
4FF300000006FF10
4FF400000007FF10
3FF500000008FF00
0FF80000000BFC00
0BFD0000001FF800
05FF800000AFF200
00BFFA546BFF9000
001BFFFFFFFA0000
00005BEFEA500000
ENDCHAR
STARTCHAR ohungarumlaut
ENCODING 337
SWIDTH 501 0
DWIDTH 14 0
BBX 12 21 1 0
BITMAP
00008FD19FE2
0001EF55FF40
0009FB2EF800
000AD26CB000
000000000000
000000000000
0006CEEC6000
01BFFFFFFB10
09FF8228FF90
2FF900008FF2
6FF200001FF7
9FD000000CFA
AFB000000BFB
BFB000000AFB
AFB000000AFB
9FD000000BFA
6FF200000EF7
2FF800006FF2
09FF8226EFA0
01BFFFFFFC10
0006CEEC7000
ENDCHAR
STARTCHAR OE
ENCODING 338
SWIDTH 826 0
DWIDTH 23 0
BBX 20 20 1 0
BITMAP
00017CFFFFFFFFFFFFFC
002DFFFFFFFFFFFFFFFC
01DFD5223CFC22222222
08FE20000BFB00000000
0EF700000BFB00000000
4FF200000BFB00000000
6FE000000BFB00000000
8FD000000BFB00000000
8FD000000BFB00000000
8FD000000BFFFFFFFFC0
8FD000000BFFFFFFFFC0
8FD000000BFC22222220
8FD000000BFB00000000
6FE000000BFB00000000
4FF200000BFB00000000
0EF700000BFB00000000
08FE20000BFB00000000
01DFD5223CFC22222222
002DFFFFFFFFFFFFFFFE
00017CEFFFFFFFFFFFFE
ENDCHAR
STARTCHAR oe
ENCODING 339
SWIDTH 777 0
DWIDTH 22 0
BBX 20 15 1 0
BITMAP
0005CEEB40006CFEA200
009FFFFFF809FFFFFE30
06FF9229FFAFF724DFD0
0DFA0000BFFF90003FF4
4FF300004FFF20000DF8
7FF000001FFD00000BFA
8FD000000EFFFFFFFFFB
9FC000000DFFFFFFFFFB
8FD000000EFB11111111
7FE000001FFD00000000
4FF300004FFF20000000
0DFA0000BFFF80000030
06FF8229FFBFF7214BE1
009FFFFFF80AFFFFFFD2
0005CEEB50006CEEC810
ENDCHAR
STARTCHAR Racute
ENCODING 340
SWIDTH 530 0
DWIDTH 15 0
BBX 13 26 2 0
BITMAP
000000CFE30000
000009FF400000
00005FF5000000
00009D60000000
00000000000000
00000000000000
DFFFFFEC810000
DFFFFFFFFD2000
DFB22249FFC000
DFA000008FF400
DFA000001FF800
DFA000000EF900
DFA000000EF900
DFA000001FF700
DFA000008FF300
DFA00017FFB000
DFFFFFFFFD1000
DFFFFFFFC10000
DFB222BFE10000
DFA0003FF70000
DFA0000CFD0000
DFA00005FF6000
DFA00000DFD000
DFA000006FF500
DFA000001EFC00
DFA0000008FF30
ENDCHAR
STARTCHAR racute
ENCODING 341
SWIDTH 304 0
DWIDTH 9 0
BBX 8 21 1 0
BITMAP
00003FFB
0001DFC1
000AFD10
002BD200
00000000
00000000
3FF39EC0
3FFCFFE0
3FFFC870
3FFB0000
3FF40000
3FF30000
3FF30000
3FF30000
3FF30000
3FF30000
3FF30000
3FF30000
3FF30000
3FF30000
3FF30000
ENDCHAR
STARTCHAR uni0156
ENCODING 342
SWIDTH 530 0
DWIDTH 15 0
BBX 13 27 2 -7
BITMAP
DFFFFFEC810000
DFFFFFFFFD2000
DFB22249FFC000
DFA000008FF400
DFA000001FF800
DFA000000EF900
DFA000000EF900
DFA000001FF700
DFA000008FF300
DFA00017FFB000
DFFFFFFFFD1000
DFFFFFFFC10000
DFB222BFE10000
DFA0003FF70000
DFA0000CFD0000
DFA00005FF6000
DFA00000DFD000
DFA000006FF500
DFA000001EFC00
DFA0000008FF30
00000000000000
00000000000000
0000DF60000000
0000EF50000000
0001FF20000000
0007FB00000000
0004C200000000
ENDCHAR
STARTCHAR uni0157
ENCODING 343
SWIDTH 304 0
DWIDTH 9 0
BBX 7 22 1 -7
BITMAP
3FF39EC0
3FFCFFE0
3FFFC870
3FFB0000
3FF40000
3FF30000
3FF30000
3FF30000
3FF30000
3FF30000
3FF30000
3FF30000
3FF30000
3FF30000
3FF30000
00000000
00000000
0FF50000
0FF40000
3FF10000
9FA00000
5C200000
ENDCHAR
STARTCHAR Rcaron
ENCODING 344
SWIDTH 530 0
DWIDTH 15 0
BBX 13 26 2 0
BITMAP
02ED107FA00000
005FA2FD100000
0009FDE3000000
0000CF50000000
00000000000000
00000000000000
DFFFFFEC810000
DFFFFFFFFD2000
DFB22249FFC000
DFA000008FF400
DFA000001FF800
DFA000000EF900
DFA000000EF900
DFA000001FF700
DFA000008FF300
DFA00017FFB000
DFFFFFFFFD1000
DFFFFFFFC10000
DFB222BFE10000
DFA0003FF70000
DFA0000CFD0000
DFA00005FF6000
DFA00000DFD000
DFA000006FF500
DFA000001EFC00
DFA0000008FF30
ENDCHAR
STARTCHAR rcaron
ENCODING 345
SWIDTH 304 0
DWIDTH 9 0
BBX 8 21 1 0
BITMAP
7FA00CF5
0AF57F90
01DEFC00
003FE200
00000000
00000000
3FF39EC0
3FFCFFE0
3FFFC870
3FFB0000
3FF40000
3FF30000
3FF30000
3FF30000
3FF30000
3FF30000
3FF30000
3FF30000
3FF30000
3FF30000
3FF30000
ENDCHAR
STARTCHAR Sacute
ENCODING 346
SWIDTH 518 0
DWIDTH 15 0
BBX 13 26 1 0
BITMAP
0000000BFF4000
0000007FF50000
000004FF600000
000008D8000000
00000000000000
00000000000000
0005BEFD930000
00AFFFFFFF6000
08FFB435CFF400
1EFB00000DFC00
4FF5000006FF20
4FF4000003FF40
2FF80000000000
0CFF6000000000
03EFFC50000000
003DFFFE820000
00006CFFFE6000
00000039FFF500
000000003EFE00
0000000006FF30
CFB0000003FF50
9FE0000004FF50
4FF700000AFF20
0AFF9424AFFA00
01AFFFFFFFC100
0005ADFEB60000
ENDCHAR
STARTCHAR sacute
ENCODING 347
SWIDTH 455 0
DWIDTH 13 0
BBX 11 21 1 0
BITMAP
0000004FFA00
000002EFB000
00000CFC1000
00003BC10000
000000000000
000000000000
002AEFEA2000
03EFFFFFE300
0DFD425EFD00
2FF50006FF20
2FF500016610
0EFD40000000
04FFFC610000
003BFFFE6000
000039FFF800
0000002CFF20
59700002FF50
7FF10002FF50
2FFC413BFF10
06FFFFFFF600
003AEFEB4000
ENDCHAR
STARTCHAR Scircumflex
ENCODING 348
SWIDTH 518 0
DWIDTH 15 0
BBX 13 26 1 0
BITMAP
00000BF8000000
00009FDF600000
0007FC1EF40000
001AD204D80000
00000000000000
00000000000000
0005BEFD930000
00AFFFFFFF6000
08FFB435CFF400
1EFB00000DFC00
4FF5000006FF20
4FF4000003FF40
2FF80000000000
0CFF6000000000
03EFFC50000000
003DFFFE820000
00006CFFFE6000
00000039FFF500
000000003EFE00
0000000006FF30
CFB0000003FF50
9FE0000004FF50
4FF700000AFF20
0AFF9424AFFA00
01AFFFFFFFC100
0005ADFEB60000
ENDCHAR
STARTCHAR scircumflex
ENCODING 349
SWIDTH 455 0
DWIDTH 13 0
BBX 11 21 1 0
BITMAP
00005FD10000
0003EEFC1000
002EF48FA000
006C800CB300
000000000000
000000000000
002AEFEA2000
03EFFFFFE300
0DFD425EFD00
2FF50006FF20
2FF500016610
0EFD40000000
04FFFC610000
003BFFFE6000
000039FFF800
0000002CFF20
59700002FF50
7FF10002FF50
2FFC413BFF10
06FFFFFFF600
003AEFEB4000
ENDCHAR
STARTCHAR Scedilla
ENCODING 350
SWIDTH 518 0
DWIDTH 15 0
BBX 13 26 1 -6
BITMAP
0005BEFD930000
00AFFFFFFF6000
08FFB435CFF400
1EFB00000DFC00
4FF5000006FF20
4FF4000003FF40
2FF80000000000
0CFF6000000000
03EFFC50000000
003DFFFE820000
00006CFFFE6000
00000039FFF500
000000003EFE00
0000000006FF30
CFB0000003FF50
9FE0000004FF50
4FF700000AFF20
0AFF9424AFFA00
01AFFFFFFFC100
0005ADFEB60000
000006F5000000
000008FD400000
0000003FD00000
0000000EE00000
000005BF900000
000008D8100000
ENDCHAR
STARTCHAR scedilla
ENCODING 351
SWIDTH 455 0
DWIDTH 13 0
BBX 11 21 1 -6
BITMAP
002AEFEA2000
03EFFFFFE300
0DFD425EFD00
2FF50006FF20
2FF500016610
0EFD40000000
04FFFC610000
003BFFFE6000
000039FFF800
0000002CFF20
59700002FF50
7FF10002FF50
2FFC413BFF10
06FFFFFFF600
003AEFEB4000
00001FA00000
00003FF80000
000001BF3000
0000009F4000
000029FE1000
00003EB30000
ENDCHAR
STARTCHAR Scaron
ENCODING 352
SWIDTH 518 0
DWIDTH 15 0
BBX 13 26 1 0
BITMAP
001EE205FC0000
0004FC1EE20000
00007FDF400000
00000BF7000000
00000000000000
00000000000000
0005BEFD930000
00AFFFFFFF6000
08FFB435CFF400
1EFB00000DFC00
4FF5000006FF20
4FF4000003FF40
2FF80000000000
0CFF6000000000
03EFFC50000000
003DFFFE820000
00006CFFFE6000
00000039FFF500
000000003EFE00
0000000006FF30
CFB0000003FF50
9FE0000004FF50
4FF700000AFF20
0AFF9424AFFA00
01AFFFFFFFC100
0005ADFEB60000
ENDCHAR
STARTCHAR scaron
ENCODING 353
SWIDTH 455 0
DWIDTH 13 0
BBX 11 21 1 0
BITMAP
008F801DF400
000CF39F7000
0002EEFA0000
00004FD10000
000000000000
000000000000
002AEFEA2000
03EFFFFFE300
0DFD425EFD00
2FF50006FF20
2FF500016610
0EFD40000000
04FFFC610000
003BFFFE6000
000039FFF800
0000002CFF20
59700002FF50
7FF10002FF50
2FFC413BFF10
06FFFFFFF600
003AEFEB4000
ENDCHAR
STARTCHAR uni0162
ENCODING 354
SWIDTH 520 0
DWIDTH 15 0
BBX 14 26 0 -6
BITMAP
3FFFFFFFFFFFFC
3FFFFFFFFFFFFC
022222EF922222
000000EF800000
000000EF800000
000000EF800000
000000EF800000
000000EF800000
000000EF800000
000000EF800000
000000EF800000
000000EF800000
000000EF800000
000000EF800000
000000EF800000
000000EF800000
000000EF800000
000000EF800000
000000EF800000
000000EF800000
0000008F300000
000000BFD20000
00000005FA0000
00000002FB0000
0000006CF70000
000000BD700000
ENDCHAR
STARTCHAR uni0163
ENCODING 355
SWIDTH 295 0
DWIDTH 8 0
BBX 8 25 0 -6
BITMAP
006FF000
006FF000
006FF000
006FF000
AFFFFFF3
AEFFFEE3
006FF000
006FF000
006FF000
006FF000
006FF000
006FF000
006FF000
006FF000
006FF000
006FF000
004FF731
000DFFF3
0003CFD2
00005F60
00007FE5
000002EE
000000DF
00004BFA
00007D91
ENDCHAR
STARTCHAR Tcaron
ENCODING 356
SWIDTH 520 0
DWIDTH 15 0
BBX 14 26 0 0
BITMAP
0002EE106FB000
00005FA2ED1000
000008FDF30000
000000CF600000
00000000000000
00000000000000
3FFFFFFFFFFFFC
3FFFFFFFFFFFFC
022222EF922222
000000EF800000
000000EF800000
000000EF800000
000000EF800000
000000EF800000
000000EF800000
000000EF800000
000000EF800000
000000EF800000
000000EF800000
000000EF800000
000000EF800000
000000EF800000
000000EF800000
000000EF800000
000000EF800000
000000EF800000
ENDCHAR
STARTCHAR tcaron
ENCODING 357
SWIDTH 314 0
DWIDTH 9 0
BBX 10 22 0 0
BITMAP
0000001FF3
0000002FF3
0000004FE0
006FF0AF90
006FF06C10
006FF00000
006FF00000
AFFFFFF300
AEFFFEE300
006FF00000
006FF00000
006FF00000
006FF00000
006FF00000
006FF00000
006FF00000
006FF00000
006FF00000
006FF00000
004FF73100
000DFFF300
0003CFD200
ENDCHAR
STARTCHAR Tbar
ENCODING 358
SWIDTH 520 0
DWIDTH 15 0
BBX 14 20 0 0
BITMAP
3FFFFFFFFFFFFC
3FFFFFFFFFFFFC
022222EF922222
000000EF800000
000000EF800000
000000EF800000
000000EF800000
0004FFFFFFF200
0004FFFFFFF200
000011EF911000
000000EF800000
000000EF800000
000000EF800000
000000EF800000
000000EF800000
000000EF800000
000000EF800000
000000EF800000
000000EF800000
000000EF800000
ENDCHAR
STARTCHAR tbar
ENCODING 359
SWIDTH 295 0
DWIDTH 8 0
BBX 8 19 0 0
BITMAP
006FF000
006FF000
006FF000
006FF000
AFFFFFF3
AEFFFEE3
006FF000
006FF000
FFFFFFF7
FFFFFFF7
117FF110
006FF000
006FF000
006FF000
006FF000
005FF100
003FF831
000DFFF3
0003CFD2
ENDCHAR
STARTCHAR Utilde
ENCODING 360
SWIDTH 561 0
DWIDTH 16 0
BBX 13 26 1 0
BITMAP
00000000011000
0003BD920CE000
000DFFFFFF9000
003E815CEA1000
00000000000000
00000000000000
3FF40000008FF0
3FF40000008FF0
3FF40000008FF0
3FF40000008FF0
3FF40000008FF0
3FF40000008FF0
3FF40000008FF0
3FF40000008FF0
3FF40000008FF0
3FF40000008FF0
3FF40000008FF0
3FF40000008FF0
3FF40000008FF0
3FF40000008FF0
3FF50000009FF0
1FF7000000BFD0
0CFD000003FF90
05FFC5236DFE20
008FFFFFFFE400
0004ADFED82000
ENDCHAR
STARTCHAR utilde
ENCODING 361
SWIDTH 483 0
DWIDTH 14 0
BBX 11 21 1 0
BITMAP
000000001100
004CD811DC00
01EFFFFFF800
04F716DEA100
000000000000
000000000000
4FF30000BFB0
4FF30000BFB0
4FF30000BFB0
4FF30000BFB0
4FF30000BFB0
4FF30000BFB0
4FF30000BFB0
4FF30000BFB0
4FF30000BFB0
3FF30000BFB0
3FF40000BFB0
1FF80002EFB0
0CFE536DFFB0
04FFFFFFDFB0
004CFEB39FB0
ENDCHAR
STARTCHAR Umacron
ENCODING 362
SWIDTH 561 0
DWIDTH 16 0
BBX 13 24 1 0
BITMAP
001EEEEEEED000
001FFFFFFFE000
00000000000000
00000000000000
3FF40000008FF0
3FF40000008FF0
3FF40000008FF0
3FF40000008FF0
3FF40000008FF0
3FF40000008FF0
3FF40000008FF0
3FF40000008FF0
3FF40000008FF0
3FF40000008FF0
3FF40000008FF0
3FF40000008FF0
3FF40000008FF0
3FF40000008FF0
3FF50000009FF0
1FF7000000BFD0
0CFD000003FF90
05FFC5236DFE20
008FFFFFFFE400
0004ADFED82000
ENDCHAR
STARTCHAR umacron
ENCODING 363
SWIDTH 483 0
DWIDTH 14 0
BBX 11 20 1 0
BITMAP
02EEEEEEEB00
02FFFFFFFC00
000000000000
000000000000
000000000000
4FF30000BFB0
4FF30000BFB0
4FF30000BFB0
4FF30000BFB0
4FF30000BFB0
4FF30000BFB0
4FF30000BFB0
4FF30000BFB0
4FF30000BFB0
3FF30000BFB0
3FF40000BFB0
1FF80002EFB0
0CFE536DFFB0
04FFFFFFDFB0
004CFEB39FB0
ENDCHAR
STARTCHAR Ubreve
ENCODING 364
SWIDTH 561 0
DWIDTH 16 0
BBX 13 25 1 0
BITMAP
00298000199000
001FF3006FC000
0008FEABFF4000
00005CEEB30000
00000000000000
3FF40000008FF0
3FF40000008FF0
3FF40000008FF0
3FF40000008FF0
3FF40000008FF0
3FF40000008FF0
3FF40000008FF0
3FF40000008FF0
3FF40000008FF0
3FF40000008FF0
3FF40000008FF0
3FF40000008FF0
3FF40000008FF0
3FF40000008FF0
3FF50000009FF0
1FF7000000BFD0
0CFD000003FF90
05FFC5236DFE20
008FFFFFFFE400
0004ADFED82000
ENDCHAR
STARTCHAR ubreve
ENCODING 365
SWIDTH 483 0
DWIDTH 14 0
BBX 11 20 1 0
BITMAP
039700029800
02FE2008FA00
009FEACFF300
0006CEDA2000
000000000000
4FF30000BFB0
4FF30000BFB0
4FF30000BFB0
4FF30000BFB0
4FF30000BFB0
4FF30000BFB0
4FF30000BFB0
4FF30000BFB0
4FF30000BFB0
3FF30000BFB0
3FF40000BFB0
1FF80002EFB0
0CFE536DFFB0
04FFFFFFDFB0
004CFEB39FB0
ENDCHAR
STARTCHAR Uring
ENCODING 366
SWIDTH 561 0
DWIDTH 16 0
BBX 13 26 1 0
BITMAP
000019ED600000
00009D57F50000
0000F600AB0000
0000F600AB0000
0000AD56F60000
000019ED700000
3FF40000008FF0
3FF40000008FF0
3FF40000008FF0
3FF40000008FF0
3FF40000008FF0
3FF40000008FF0
3FF40000008FF0
3FF40000008FF0
3FF40000008FF0
3FF40000008FF0
3FF40000008FF0
3FF40000008FF0
3FF40000008FF0
3FF40000008FF0
3FF50000009FF0
1FF7000000BFD0
0CFD000003FF90
05FFC5236DFE20
008FFFFFFFE400
0004ADFED82000
ENDCHAR
STARTCHAR uring
ENCODING 367
SWIDTH 483 0
DWIDTH 14 0
BBX 11 23 1 0
BITMAP
0001AED50000
000BD58F4000
001F400C9000
002F400B9000
000BC47F4000
0001AED60000
000000000000
000000000000
4FF30000BFB0
4FF30000BFB0
4FF30000BFB0
4FF30000BFB0
4FF30000BFB0
4FF30000BFB0
4FF30000BFB0
4FF30000BFB0
4FF30000BFB0
3FF30000BFB0
3FF40000BFB0
1FF80002EFB0
0CFE536DFFB0
04FFFFFFDFB0
004CFEB39FB0
ENDCHAR
STARTCHAR Uhungarumlaut
ENCODING 368
SWIDTH 561 0
DWIDTH 16 0
BBX 13 26 1 0
BITMAP
000009FD1AFE10
00002FF46FF400
00009FA2EF7000
0000AD26CA0000
00000000000000
00000000000000
3FF40000008FF0
3FF40000008FF0
3FF40000008FF0
3FF40000008FF0
3FF40000008FF0
3FF40000008FF0
3FF40000008FF0
3FF40000008FF0
3FF40000008FF0
3FF40000008FF0
3FF40000008FF0
3FF40000008FF0
3FF40000008FF0
3FF40000008FF0
3FF50000009FF0
1FF7000000BFD0
0CFD000003FF90
05FFC5236DFE20
008FFFFFFFE400
0004ADFED82000
ENDCHAR
STARTCHAR uhungarumlaut
ENCODING 369
SWIDTH 483 0
DWIDTH 14 0
BBX 12 21 1 0
BITMAP
0000AFC0BFD1
0003FF37FE20
000BF93FF500
001AD17D9000
000000000000
000000000000
4FF30000BFB0
4FF30000BFB0
4FF30000BFB0
4FF30000BFB0
4FF30000BFB0
4FF30000BFB0
4FF30000BFB0
4FF30000BFB0
4FF30000BFB0
3FF30000BFB0
3FF40000BFB0
1FF80002EFB0
0CFE536DFFB0
04FFFFFFDFB0
004CFEB39FB0
ENDCHAR
STARTCHAR Uogonek
ENCODING 370
SWIDTH 561 0
DWIDTH 16 0
BBX 13 25 1 -5
BITMAP
3FF40000008FF0
3FF40000008FF0
3FF40000008FF0
3FF40000008FF0
3FF40000008FF0
3FF40000008FF0
3FF40000008FF0
3FF40000008FF0
3FF40000008FF0
3FF40000008FF0
3FF40000008FF0
3FF40000008FF0
3FF40000008FF0
3FF40000008FF0
3FF50000009FE0
1FF7000000BFC0
0CFD000003FF80
05FFC5236DFE20
008FFFFFFFE400
0004ADFFFA1000
0000005FC00000
000000CF400000
000000DF411000
000000BFFF3000
0000002CEB2000
ENDCHAR
STARTCHAR uogonek
ENCODING 371
SWIDTH 483 0
DWIDTH 14 0
BBX 11 21 1 -6
BITMAP
4FF30000BFB0
4FF30000BFB0
4FF30000BFB0
4FF30000BFB0
4FF30000BFB0
4FF30000BFB0
4FF30000BFB0
4FF30000BFB0
4FF30000BFB0
3FF30000BFB0
3FF40000BFB0
1FF80002EFB0
0CFE536DFFB0
04FFFFFFDFB0
004CFEB39FB0
00000003EE20
0000000DF300
0000005FB000
0000006FC010
0000003FFEA0
00000008EE70
ENDCHAR
STARTCHAR Wcircumflex
ENCODING 372
SWIDTH 761 0
DWIDTH 21 0
BBX 20 26 1 0
BITMAP
000000004FE200000000
00000003EEFC10000000
0000001DF48FB0000000
0000005C900CB3000000
00000000000000000000
00000000000000000000
EF8000005FE000000FF7
BFB000008FF300003FF4
8FE00000CFF600005FF1
5FF20000FFFA00008FD0
2FF40003FEFD0000BFB0
0EF70007F9EF1000DF80
0BFA000AF6BF5001FF50
08FC000EF27F8004FF20
05FF002FE04FB006FE00
02FF306FA01FE009FB00
00EF609F700CF30CF800
00BF80DF3009F60EF500
008FB1FE0005FA2FF200
005FE4FB0002FD5FE000
002FF8F70000DF8FB000
000EFDF40000AFDF8000
000CFFF100006FFF5000
0009FFC000003FFF2000
0006FF8000000EFE0000
0003FF5000000BFB0000
ENDCHAR
STARTCHAR wcircumflex
ENCODING 373
SWIDTH 649 0
DWIDTH 18 0
BBX 18 21 0 0
BITMAP
00000003EE30000000
0000001DEEE2000000
000001CF65FC100000
000004CB00AC400000
000000000000000000
000000000000000000
3FF30001FF20001FF5
0EF60004FF60004FF2
0BF90008FFA0007FD0
07FD000CFFE000AF90
04FF101FEEF300DF60
00FF405FBAF701FF20
00BF709F76FB04FD00
008FB0DF32FF07FA00
004FE2FE00CF4BF600
001FF8FA008F8EF300
000CFEF6004FDFE000
0008FFF2001FFFA000
0005FFD0000BFF7000
0001FF900007FF3000
0000DF500003FE0000
ENDCHAR
STARTCHAR Ycircumflex
ENCODING 374
SWIDTH 524 0
DWIDTH 15 0
BBX 15 26 0 0
BITMAP
000000BF80000000
000009FDF6000000
00007FC1EF400000
0001AD205D800000
0000000000000000
0000000000000000
6FF70000000CFE10
0DFD0000003FF800
07FF4000009FF200
01EFA00001EFA000
008FF10006FF3000
002FF7000CFB0000
000AFD004FF50000
0003FF40AFD00000
0000BFB1FF600000
00005FF9FE000000
00000DFFF7000000
000006FFF1000000
000000EFA0000000
000000EF90000000
000000EF90000000
000000EF90000000
000000EF90000000
000000EF90000000
000000EF90000000
000000EF90000000
ENDCHAR
STARTCHAR ycircumflex
ENCODING 375
SWIDTH 416 0
DWIDTH 12 0
BBX 11 27 0 -6
BITMAP
00002EF40000
0001DFEE2000
000BF74FD100
003BB009C500
000000000000
000000000000
6FF400009FE0
1FF80000CFA0
0CFB0001FF60
07FF0005FF20
03FF4008FD00
00EF800CF800
009FB01FF400
005FF05FE000
001FF48FB000
000BF8CF6000
0007FCFF2000
0002FFFD0000
0000DFF90000
00009FF40000
00004FF10000
00005FB00000
0000AF700000
0002FF200000
035CFB000000
0CFFE2000000
0AEB30000000
ENDCHAR
STARTCHAR Ydieresis
ENCODING 376
SWIDTH 524 0
DWIDTH 15 0
BBX 15 25 0 0
BITMAP
0008D70009C50000
000FFE001FFC0000
0009E8000BE70000
0000000000000000
0000000000000000
6FF70000000CFE10
0DFD0000003FF800
07FF4000009FF200
01EFA00001EFA000
008FF10006FF3000
002FF7000CFB0000
000AFD004FF50000
0003FF40AFD00000
0000BFB1FF600000
00005FF9FE000000
00000DFFF7000000
000006FFF1000000
000000EFA0000000
000000EF90000000
000000EF90000000
000000EF90000000
000000EF90000000
000000EF90000000
000000EF90000000
000000EF90000000
ENDCHAR
STARTCHAR Zacute
ENCODING 377
SWIDTH 522 0
DWIDTH 15 0
BBX 13 26 1 0
BITMAP
0000000BFF4000
0000008FF50000
000004FF600000
000008D7000000
00000000000000
00000000000000
AFFFFFFFFFFF10
AFFFFFFFFFFF10
222222223EFB00
000000007FF300
00000001EF9000
00000009FE1000
0000003FF70000
000000BFD00000
000005FF500000
00000DFC000000
00007FF3000000
0001EFA0000000
0009FE20000000
003FF700000000
00BFD100000000
05FF5000000000
0DFC0000000000
7FF52222222210
BFFFFFFFFFFF70
BFFFFFFFFFFF70
ENDCHAR
STARTCHAR zacute
ENCODING 378
SWIDTH 438 0
DWIDTH 12 0
BBX 11 21 1 0
BITMAP
000001DFE200
00000AFE3000
00007FF40000
0000AE500000
000000000000
000000000000
AFFFFFFFFE00
AFFFFFFFFD00
1111114FF700
000000CFD000
000006FF4000
00001EF90000
0000AFE10000
0004FF600000
000DFC000000
007FF3000000
02EF80000000
0BFD10000000
5FF611111100
BFFFFFFFFF30
BFFFFFFFFF30
ENDCHAR
STARTCHAR Zdotaccent
ENCODING 379
SWIDTH 522 0
DWIDTH 15 0
BBX 13 25 1 0
BITMAP
000009D6000000
00001FFC000000
00000BE7000000
00000000000000
00000000000000
AFFFFFFFFFFF10
AFFFFFFFFFFF10
222222223EFB00
000000007FF300
00000001EF9000
00000009FE1000
0000003FF70000
000000BFD00000
000005FF500000
00000DFC000000
00007FF3000000
0001EFA0000000
0009FE20000000
003FF700000000
00BFD100000000
05FF5000000000
0DFC0000000000
7FF52222222210
BFFFFFFFFFFF70
BFFFFFFFFFFF70
ENDCHAR
STARTCHAR zdotaccent
ENCODING 380
SWIDTH 438 0
DWIDTH 12 0
BBX 11 20 1 0
BITMAP
0001BD400000
0004FFA00000
0001CE500000
000000000000
000000000000
AFFFFFFFFE00
AFFFFFFFFD00
1111114FF700
000000CFD000
000006FF4000
00001EF90000
0000AFE10000
0004FF600000
000DFC000000
007FF3000000
02EF80000000
0BFD10000000
5FF611111100
BFFFFFFFFF30
BFFFFFFFFF30
ENDCHAR
STARTCHAR Zcaron
ENCODING 381
SWIDTH 522 0
DWIDTH 15 0
BBX 13 26 1 0
BITMAP
001EE205FB0000
0004FB2EE10000
00008FDF400000
00000BF7000000
00000000000000
00000000000000
AFFFFFFFFFFF10
AFFFFFFFFFFF10
222222223EFB00
000000007FF300
00000001EF9000
00000009FE1000
0000003FF70000
000000BFD00000
000005FF500000
00000DFC000000
00007FF3000000
0001EFA0000000
0009FE20000000
003FF700000000
00BFD100000000
05FF5000000000
0DFC0000000000
7FF52222222210
BFFFFFFFFFFF70
BFFFFFFFFFFF70
ENDCHAR
STARTCHAR zcaron
ENCODING 382
SWIDTH 438 0
DWIDTH 12 0
BBX 11 21 1 0
BITMAP
03FD008F9000
007F84FC0000
000AFEE20000
0001DF400000
000000000000
000000000000
AFFFFFFFFE00
AFFFFFFFFD00
1111114FF700
000000CFD000
000006FF4000
00001EF90000
0000AFE10000
0004FF600000
000DFC000000
007FF3000000
02EF80000000
0BFD10000000
5FF611111100
BFFFFFFFFF30
BFFFFFFFFF30
ENDCHAR
STARTCHAR longs
ENCODING 383
SWIDTH 234 0
DWIDTH 7 0
BBX 6 21 2 0
BITMAP
02AEE9
1EFFF9
8FF621
CFB000
EF8000
EF8000
EF8000
EF8000
EF8000
EF8000
EF8000
EF8000
EF8000
EF8000
EF8000
EF8000
EF8000
EF8000
EF8000
EF8000
EF8000
ENDCHAR
STARTCHAR uni018F
ENCODING 399
SWIDTH 597 0
DWIDTH 17 0
BBX 15 20 1 0
BITMAP
0028CEFDB6000000
01EFFFFFFFC20000
00CC74359FFD1000
0020000004EFA000
00000000006FF300
00000000000EF900
00000000000AFC00
000000000007FF00
000000000006FF10
CFFFFFFFFFFFFF20
CFFFFFFFFFFFFF20
BFB000000008FF10
AFB000000009FE00
8FD00000000CFC00
5FF10000002FF700
1FF60000008FF200
09FE200003FF9000
01EFE7337EFD1000
003DFFFFFFD20000
00017CEFC7100000
ENDCHAR
STARTCHAR florin
ENCODING 402
SWIDTH 309 0
DWIDTH 9 0
BBX 9 27 0 -6
BITMAP
00006CFE40
0007FFFF30
000EFD4310
003FF50000
004FF20000
004FF20000
3FFFFFF400
3EFFFEE400
004FF20000
004FF20000
004FF20000
004FF20000
004FF20000
004FF20000
004FF20000
004FF20000
004FF20000
004FF20000
004FF20000
004FF20000
004FF20000
004FF20000
005FF20000
007FF10000
22CFC00000
DFFF400000
CFC5000000
ENDCHAR
STARTCHAR Ohorn
ENCODING 416
SWIDTH 592 0
DWIDTH 17 0
BBX 16 22 1 0
BITMAP
00000000000005A7
00000000000008F9
00006CEEC8100CF7
001BFFFFFFE37FF2
00BFFA548FFFFF70
05FF700003FFE400
0DFC0000008FF100
2FF50000002FF600
6FF10000000DFA00
8FE00000000AFC00
AFC000000009FD00
AFC000000009FE00
BFC000000009FE00
AFC000000009FD00
8FE00000000AFC00
6FF10000000DF900
2FF50000001FF600
0DFB0000007FF100
05FF700003EF9000
00BFFA548EFE1000
001BFFFFFFD30000
00006CEED8100000
ENDCHAR
STARTCHAR ohorn
ENCODING 417
SWIDTH 502 0
DWIDTH 14 0
BBX 14 17 1 0
BITMAP
00000000000231
00000000000AF3
0005BEEB400CF2
009FFFFFF75FC0
06FF9229FFFF40
0EFA0000AFF200
4FF300002FF300
8FE000000DF800
9FC000000BFA00
AFB000000BFB00
9FC000000BFA00
8FE000000DF900
4FF300002FF600
0EFA00009FE100
06FF9228FF7000
009FFFFFFA0000
0005CEEC600000
ENDCHAR
STARTCHAR Uhorn
ENCODING 431
SWIDTH 608 0
DWIDTH 17 0
BBX 18 21 1 0
BITMAP
0000000000000009F6
3FF40000008FF00BF5
3FF40000008FF01EF2
3FF40000008FF2BFC0
3FF40000008FFFFE30
3FF40000008FFC8200
3FF40000008FF00000
3FF40000008FF00000
3FF40000008FF00000
3FF40000008FF00000
3FF40000008FF00000
3FF40000008FF00000
3FF40000008FF00000
3FF40000008FF00000
3FF40000008FF00000
2FF6000000AFE00000
0EF9000000DFB00000
0AFF200006FF600000
02EFD6338FFC000000
004EFFFFFFC2000000
00029DFEC710000000
ENDCHAR
STARTCHAR uhorn
ENCODING 432
SWIDTH 549 0
DWIDTH 15 0
BBX 15 16 1 0
BITMAP
0000000000007F50
4FF30000BFB08F40
4FF30000BFB2DF10
4FF30000BFFFF700
4FF30000BFD73000
4FF30000BFB00000
4FF30000BFB00000
4FF30000BFB00000
4FF30000BFB00000
4FF30000BFB00000
3FF30000BFB00000
3FF40000BFB00000
1FF80002EFB00000
0CFE536DFFB00000
04FFFFFFDFB00000
004CFEB39FB00000
ENDCHAR
STARTCHAR uni01F0
ENCODING 496
SWIDTH 237 0
DWIDTH 7 0
BBX 9 27 -1 -6
BITMAP
1DF304FC10
03FC1DE200
006FDF5000
000AF80000
0000000000
0000000000
000CFA0000
000CFA0000
000CFA0000
000CFA0000
000CFA0000
000CFA0000
000CFA0000
000CFA0000
000CFA0000
000CFA0000
000CFA0000
000CFA0000
000CFA0000
000CFA0000
000CFA0000
000CFA0000
000CF90000
000EF80000
127FF40000
5FFFC00000
5EEA100000
ENDCHAR
STARTCHAR Aringacute
ENCODING 506
SWIDTH 576 0
DWIDTH 16 0
BBX 16 28 0 0
BITMAP
000000002EF40000
00000000BF600000
00000002C7000000
0000000000000000
0000002CE5000000
000000A84E000000
000000D30E200000
000000A84E000000
0000004FFA000000
0000007FF9000000
000000CFFE000000
000002FFEF400000
000007FCAF900000
00000BF76FE00000
00001FF31FF30000
00006FE00CF80000
0000BFA008FD0000
0001FF5003FF3000
0005FF1000EF8000
000AFC0000AFD000
001EF800005FF200
005FFFFFFFFFF700
00AFFFFFFFFFFC00
00EFA2222228FF20
04FF40000002FF70
09FE00000000CFC0
0EFA000000007FF1
4FF5000000002FF6
ENDCHAR
STARTCHAR aringacute
ENCODING 507
SWIDTH 479 0
DWIDTH 13 0
BBX 11 24 1 0
BITMAP
0000003FE200
000000DF4000
000003D50000
000000000000
00003DD30000
0000C66C0000
0000F11E0000
0000D66C0000
00003DD30000
0017CEEC6000
01DFFFFFF800
0AFE623BFF20
1FF60001FF60
15510000EF70
00000000EF70
0017CEFFFF70
02DFFECCFF70
0DFD5000EF70
4FF40000EF70
6FF00000EF70
6FF20003FF70
2FFC448EFF80
09FFFFFCDF90
007DFE91BFD0
ENDCHAR
STARTCHAR AEacute
ENCODING 508
SWIDTH 812 0
DWIDTH 23 0
BBX 23 26 0 0
BITMAP
000000000003EFC100000000
00000000001DFD1000000000
0000000000AFD20000000000
0000000002BD200000000000
000000000000000000000000
000000000000000000000000
0000000003FFFFFFFFFFF600
000000000AFFFFFFFFFFF600
000000003FFFF81111111000
00000000AFBEF70000000000
00000003FF4DF80000000000
0000000BFC0DF90000000000
0000003FF50CF90000000000
000000BFD00CFA0000000000
000003FF700BFA0000000000
00000BFE100BFFFFFFFF7000
00003FF8000AFFFFFFFF7000
0000BFF1000AFC1111110000
0004FF900009FC0000000000
000BFFFFFFFFFD0000000000
004FFFFFFFFFFD0000000000
00BFF666666AFE0000000000
04FFA0000007FE0000000000
0CFF30000007FF1111111100
4FFA00000006FFFFFFFFFF10
CFF300000005FFFFFFFFFF10
ENDCHAR
STARTCHAR aeacute
ENCODING 509
SWIDTH 728 0
DWIDTH 20 0
BBX 19 21 1 0
BITMAP
0000000001EFD2000000
000000000BFE20000000
000000007FE300000000
00000001AE4000000000
00000000000000000000
00000000000000000000
004AEFD9102AEFC70000
07FFFFFFD4EFFFFFB000
2FFD426FFFFC327FF700
7FF20008FFE10008FE00
25600005FF800003FF20
00000004FF400001FF40
006BDEEEFFFFFFFFFF50
0BFFFFFFFFEEEEEEEE50
6FFA2004FF2000000000
BFC00004FF4000000000
DF900004FF8000000000
CFB00007FFE200000200
8FF613AFFEFD4126DB00
2EFFFFFF63EFFFFFFD10
02AEFD930018DFEC7100
ENDCHAR
STARTCHAR Oslashacute
ENCODING 510
SWIDTH 600 0
DWIDTH 17 0
BBX 15 27 1 -1
BITMAP
00000000AFF50000
00000006FF600000
0000003FF8000000
0000007D90000000
0000000000000000
0000000000004830
00004AEFD930DD00
0007FFFFFFFBF600
007FFC646DFFC000
01EFB00001DFD000
08FF200001EFF600
0DFA000009FEFB00
2FF600002FA9FE00
4FF30000AF26FF10
5FF20003F905FF20
6FF1000BE204FF30
6FF1004F8004FF30
5FF200CE1005FF20
4FF305F70006FF10
2FF60DD10008FE00
0EFA6F60000CFB00
08FEDD00003FF600
02FFF50001CFD100
007FFC646DFF5000
008FFFFFFFF60000
02FB4AEFDA300000
09F3000000000000
ENDCHAR
STARTCHAR oslashacute
ENCODING 511
SWIDTH 498 0
DWIDTH 14 0
BBX 12 23 1 -2
BITMAP
000000AFF500
000006FF6000
00003FF80000
00007D900000
000000000740
000000004F40
0005BEEBCD00
009FFFFFFB00
06FF922BFF60
0EFA001EEFE1
4FF3006F5FF5
8FE000CB0DF8
9FC004F50CFA
AFB00AD00BFB
9FC02F700BFA
7FE08F100DF9
4FF4EA002FF5
0DFDF3009FE1
06FFD228FF70
009FFFFFF900
00AEBEEC5000
01F800000000
038100000000
ENDCHAR
STARTCHAR uni0218
ENCODING 536
SWIDTH 518 0
DWIDTH 15 0
BBX 13 27 1 -7
BITMAP
0005BEFD930000
00AFFFFFFF6000
08FFB435CFF400
1EFB00000DFC00
4FF5000006FF20
4FF4000003FF40
2FF80000000000
0CFF6000000000
03EFFC50000000
003DFFFE820000
00006CFFFE6000
00000039FFF500
000000003EFE00
0000000006FF30
CFB0000003FF50
9FE0000004FF50
4FF700000AFF20
0AFF9424AFFA00
01AFFFFFFFC100
0005ADFEB60000
00000000000000
00000000000000
00000AF9000000
00000BF8000000
00000EF5000000
00004FE1000000
00002B40000000
ENDCHAR
STARTCHAR uni0219
ENCODING 537
SWIDTH 455 0
DWIDTH 13 0
BBX 11 22 1 -7
BITMAP
002AEFEA2000
03EFFFFFE300
0DFD425EFD00
2FF50006FF20
2FF500016610
0EFD40000000
04FFFC610000
003BFFFE6000
000039FFF800
0000002CFF20
59700002FF50
7FF10002FF50
2FFC413BFF10
06FFFFFFF600
003AEFEB4000
000000000000
000000000000
00005FF00000
00006FE00000
00008FB00000
0000EF500000
000089000000
ENDCHAR
STARTCHAR uni021A
ENCODING 538
SWIDTH 520 0
DWIDTH 15 0
BBX 14 27 0 -7
BITMAP
3FFFFFFFFFFFFC
3FFFFFFFFFFFFC
022222EF922222
000000EF800000
000000EF800000
000000EF800000
000000EF800000
000000EF800000
000000EF800000
000000EF800000
000000EF800000
000000EF800000
000000EF800000
000000EF800000
000000EF800000
000000EF800000
000000EF800000
000000EF800000
000000EF800000
000000EF800000
00000000000000
00000000000000
000000DF700000
000000DF600000
000001FF300000
000007FC000000
000003C3000000
ENDCHAR
STARTCHAR uni021B
ENCODING 539
SWIDTH 295 0
DWIDTH 8 0
BBX 8 26 0 -7
BITMAP
006FF000
006FF000
006FF000
006FF000
AFFFFFF3
AEFFFEE3
006FF000
006FF000
006FF000
006FF000
006FF000
006FF000
006FF000
006FF000
006FF000
006FF000
004FF731
000DFFF3
0003CFD2
00000000
00000000
00009FA0
0000AF90
0000CF60
0003FE10
0002B500
ENDCHAR
STARTCHAR uni0237
ENCODING 567
SWIDTH 237 0
DWIDTH 7 0
BBX 6 21 -1 -6
BITMAP
000CFA
000CFA
000CFA
000CFA
000CFA
000CFA
000CFA
000CFA
000CFA
000CFA
000CFA
000CFA
000CFA
000CFA
000CFA
000CFA
000CF9
000EF8
127FF4
5FFFC0
5EEA10
ENDCHAR
STARTCHAR uni0259
ENCODING 601
SWIDTH 465 0
DWIDTH 13 0
BBX 11 15 1 0
BITMAP
007CEEC70000
1CFFFFFFC100
0DD5227FFA00
03100007FF20
00000001EF80
00000000BFB0
000000009FC0
9FFFFFFFFFD0
9FFFFFFFFFC0
8FD11111BFB0
6FF00000EF70
3FF50006FF20
0BFE525EF800
02EFFFFFB100
0029DFD70000
ENDCHAR
STARTCHAR uni02BC
ENCODING 700
SWIDTH 194 0
DWIDTH 5 0
BBX 5 7 0 14
BITMAP
02FF40
02FF40
02FF30
05FF10
09FB00
1EF400
088000
ENDCHAR
STARTCHAR circumflex
ENCODING 710
SWIDTH 428 0
DWIDTH 12 0
BBX 8 4 2 17
BITMAP
005FD100
03EEFC10
2EF48FA0
6C800CB3
ENDCHAR
STARTCHAR caron
ENCODING 711
SWIDTH 403 0
DWIDTH 11 0
BBX 8 4 2 17
BITMAP
CF403FD1
2ED1CF30
05FDF600
008FA000
ENDCHAR
STARTCHAR uni02C9
ENCODING 713
SWIDTH 414 0
DWIDTH 12 0
BBX 9 2 1 18
BITMAP
1FFFFFFFD0
1FFFFFFFD0
ENDCHAR
STARTCHAR breve
ENCODING 728
SWIDTH 426 0
DWIDTH 12 0
BBX 9 4 1 16
BITMAP
3FE0003FE0
0DF712BF90
04EFFFFC10
0016985000
ENDCHAR
STARTCHAR dotaccent
ENCODING 729
SWIDTH 242 0
DWIDTH 7 0
BBX 4 3 1 17
BITMAP
08D6
1FFD
0AE8
ENDCHAR
STARTCHAR ring
ENCODING 730
SWIDTH 334 0
DWIDTH 9 0
BBX 7 6 1 16
BITMAP
02BEC400
0DB49E20
4F200E70
4F200E70
1DB49F20
02BEC400
ENDCHAR
STARTCHAR ogonek
ENCODING 731
SWIDTH 253 0
DWIDTH 7 0
BBX 5 7 0 -6
BITMAP
000840
01CF50
0AF700
1FF000
2FF110
0EFFE0
05DEA0
ENDCHAR
STARTCHAR tilde
ENCODING 732
SWIDTH 427 0
DWIDTH 12 0
BBX 9 4 1 17
BITMAP
0000000110
03BD920BE0
0DFFFFFFA0
2E915CEB10
ENDCHAR
STARTCHAR hungarumlaut
ENCODING 733
SWIDTH 331 0
DWIDTH 9 0
BBX 9 4 1 17
BITMAP
03FF44FF60
0BFA1EF900
4FE2BFC000
6D72BD2000
ENDCHAR
STARTCHAR uni02F3
ENCODING 755
SWIDTH 263 0
DWIDTH 7 0
BBX 5 5 1 -6
BITMAP
09EB10
4D3A90
5C1890
0BFD20
001000
ENDCHAR
STARTCHAR gravecomb
ENCODING 768
SWIDTH 0 0
DWIDTH 0 0
BBX 6 4 -10 17
BITMAP
6FF600
0AFE20
01DFA0
002DB1
ENDCHAR
STARTCHAR acutecomb
ENCODING 769
SWIDTH 0 0
DWIDTH 0 0
BBX 6 4 -8 17
BITMAP
008FF4
03FF70
0CFA00
3BC100
ENDCHAR
STARTCHAR tildecomb
ENCODING 771
SWIDTH 0 0
DWIDTH 0 0
BBX 9 4 -10 17
BITMAP
0000001100
1ADA308F20
AFFFFFFD00
DB13BEC300
ENDCHAR
STARTCHAR hookabovecomb
ENCODING 777
SWIDTH 0 0
DWIDTH 0 0
BBX 4 6 -8 17
BITMAP
7D91
4AFB
00DF
27FE
5FD5
5F50
ENDCHAR
STARTCHAR uni030F
ENCODING 783
SWIDTH 0 0
DWIDTH 0 0
BBX 9 4 -11 17
BITMAP
AFF4AFD100
0BFE3EF800
01CFC5FF20
002DB48C50
ENDCHAR
STARTCHAR dotbelowcomb
ENCODING 803
SWIDTH 0 0
DWIDTH 0 0
BBX 4 3 -10 -5
BITMAP
5EC1
AFF3
4DA0
ENDCHAR
STARTCHAR tonos
ENCODING 900
SWIDTH 256 0
DWIDTH 7 0
BBX 4 5 2 17
BITMAP
0DF7
0FF2
3FC0
5F80
4C30
ENDCHAR
STARTCHAR dieresistonos
ENCODING 901
SWIDTH 452 0
DWIDTH 13 0
BBX 10 6 1 17
BITMAP
00004FF100
00007FB000
00009F7000
3C907D25C7
9FF1000CFD
4EB00007E8
ENDCHAR
STARTCHAR Alphatonos
ENCODING 902
SWIDTH 576 0
DWIDTH 16 0
BBX 16 22 0 0
BITMAP
002FF30000000000
004FD00000000000
007F802FF5000000
009F307FF9000000
007C00CFFE000000
000002FFEF400000
000007FCAF900000
00000BF76FE00000
00001FF31FF30000
00006FE00CF80000
0000BFA008FD0000
0001FF5003FF3000
0005FF1000EF8000
000AFC0000AFD000
001EF800005FF200
005FFFFFFFFFF700
00AFFFFFFFFFFC00
00EFA2222228FF20
04FF40000002FF70
09FE00000000CFC0
0EFA000000007FF1
4FF5000000002FF6
ENDCHAR
STARTCHAR anoteleia
ENCODING 903
SWIDTH 243 0
DWIDTH 7 0
BBX 4 3 1 9
BITMAP
0AE6
1FFB
0BF6
ENDCHAR
STARTCHAR Epsilontonos
ENCODING 904
SWIDTH 496 0
DWIDTH 14 0
BBX 16 22 -3 0
BITMAP
0DF7000000000000
1FF2000000000000
3FC00DFFFFFFFFFB
5F700DFFFFFFFFFB
4D300DFB22222222
00000DFA00000000
00000DFA00000000
00000DFA00000000
00000DFA00000000
00000DFA00000000
00000DFA00000000
00000DFFFFFFFFA0
00000DFFFFFFFFA0
00000DFB22222210
00000DFA00000000
00000DFA00000000
00000DFA00000000
00000DFA00000000
00000DFA00000000
00000DFB22222222
00000DFFFFFFFFFD
00000DFFFFFFFFFD
ENDCHAR
STARTCHAR Etatonos
ENCODING 905
SWIDTH 620 0
DWIDTH 17 0
BBX 19 22 -3 0
BITMAP
0BF90000000000000000
0DF40000000000000000
1FE00DFA00000005FF30
3FA00DFA00000005FF30
3C500DFA00000005FF30
00000DFA00000005FF30
00000DFA00000005FF30
00000DFA00000005FF30
00000DFA00000005FF30
00000DFA00000005FF30
00000DFA00000005FF30
00000DFFFFFFFFFFFF30
00000DFFFFFFFFFFFF30
00000DFB22222227FF30
00000DFA00000005FF30
00000DFA00000005FF30
00000DFA00000005FF30
00000DFA00000005FF30
00000DFA00000005FF30
00000DFA00000005FF30
00000DFA00000005FF30
00000DFA00000005FF30
ENDCHAR
STARTCHAR Iotatonos
ENCODING 906
SWIDTH 250 0
DWIDTH 7 0
BBX 8 22 -3 0
BITMAP
0AF90000
0DF50000
0FE00BFC
3FA00BFC
3C500BFC
00000BFC
00000BFC
00000BFC
00000BFC
00000BFC
00000BFC
00000BFC
00000BFC
00000BFC
00000BFC
00000BFC
00000BFC
00000BFC
00000BFC
00000BFC
00000BFC
00000BFC
ENDCHAR
STARTCHAR Omicrontonos
ENCODING 908
SWIDTH 610 0
DWIDTH 17 0
BBX 17 22 -1 0
BITMAP
0BF900000000000000
0DF400000000000000
1FE0003ADFEB600000
3FA008FFFFFFFC1000
3C506FFD645AFFC000
0001EFB000006FF600
0007FF2000000CFC00
000BFC00000007FF10
000DF900000004FF40
000FF800000002FF50
000FF700000002FF60
000FF700000002FF60
000FF700000002FF60
000FF700000002FF60
000FF800000002FF50
000DF900000004FF40
000BFC00000006FF10
0007FF2000000BFD00
0001EFB000005FF700
00006FFD6459FFC000
000008FFFFFFFD2000
0000003ADFEC700000
ENDCHAR
STARTCHAR Upsilontonos
ENCODING 910
SWIDTH 573 0
DWIDTH 16 0
BBX 19 22 -3 0
BITMAP
2FF30000000000000000
5FD00000000000000000
7F801EFC00000006FF60
AF3008FF3000000CFE00
7C0002FFA000004FF700
000000AFF10000AFE100
0000003FF70001FF9000
0000000BFD0007FF2000
00000004FF400DFA0000
00000000CFA04FF30000
000000006FF1AFC00000
000000000EF9FF500000
0000000007FFFD000000
0000000001EFF6000000
00000000009FF1000000
00000000008FE0000000
00000000008FE0000000
00000000008FE0000000
00000000008FE0000000
00000000008FE0000000
00000000008FE0000000
00000000008FE0000000
ENDCHAR
STARTCHAR Omegatonos
ENCODING 911
SWIDTH 591 0
DWIDTH 17 0
BBX 16 22 -1 0
BITMAP
0BF9000000000000
0DF4000000000000
1FE0004BEFD81000
3FA008FFFFFFD200
3C507FFB436EFE10
0001EFA00002EF90
0008FF1000008FF1
000CFB0000002FF5
000FF80000000EF9
002FF60000000DFA
003FF50000000CFB
003FF50000000CFC
003FF50000000CFB
001FF60000000CFA
000FF70000000EF8
000BF90000001FF4
0007FD0000004FE1
0001EF300000AF90
00008FC00003FE20
00022DFB306EF821
002FFFFFA0FFFFFA
002FFFFFA0FFFFFA
ENDCHAR
STARTCHAR iotadieresistonos
ENCODING 912
SWIDTH 299 0
DWIDTH 8 0
BBX 10 23 -1 0
BITMAP
00009FB000
0000BF7000
0000EF2000
7D60AB09C3
DFC0002FF9
8E70000BE4
0000000000
0000000000
0006FF0000
0006FF0000
0006FF0000
0006FF0000
0006FF0000
0006FF0000
0006FF0000
0006FF0000
0006FF0000
0006FF0000
0006FF0000
0006FF0000
0004FF7310
0000DFFF30
00003CFD20
ENDCHAR
STARTCHAR Alpha
ENCODING 913
SWIDTH 576 0
DWIDTH 16 0
BBX 16 20 0 0
BITMAP
0000002FF5000000
0000007FF9000000
000000CFFE000000
000002FFEF400000
000007FCAF900000
00000BF76FE00000
00001FF31FF30000
00006FE00CF80000
0000BFA008FD0000
0001FF5003FF3000
0005FF1000EF8000
000AFC0000AFD000
001EF800005FF200
005FFFFFFFFFF700
00AFFFFFFFFFFC00
00EFA2222228FF20
04FF40000002FF70
09FE00000000CFC0
0EFA000000007FF1
4FF5000000002FF6
ENDCHAR
STARTCHAR Beta
ENCODING 914
SWIDTH 545 0
DWIDTH 15 0
BBX 12 20 2 0
BITMAP
DFFFFFEC8100
DFFFFFFFFD10
DFB22249FFA0
DFA00000AFF1
DFA000005FF3
DFA000004FF4
DFA000006FF3
DFA00000BFD0
DFA00029FF50
DFFFFFFFE600
DFFFFFFFFA10
DFA22236EFC0
DFA000005FF4
DFA000000FF8
DFA000000DFA
DFA000000FF9
DFA000006FF6
DFB22237FFE1
DFFFFFFFFE40
DFFFFFFD9200
ENDCHAR
STARTCHAR Gamma
ENCODING 915
SWIDTH 487 0
DWIDTH 14 0
BBX 11 20 2 0
BITMAP
BFFFFFFFFF90
BFFFFFFFFF90
BFC222222210
BFC000000000
BFC000000000
BFC000000000
BFC000000000
BFC000000000
BFC000000000
BFC000000000
BFC000000000
BFC000000000
BFC000000000
BFC000000000
BFC000000000
BFC000000000
BFC000000000
BFC000000000
BFC000000000
BFC000000000
ENDCHAR
STARTCHAR Delta.dup1
ENCODING 916
SWIDTH 614 0
DWIDTH 17 0
BBX 17 20 0 0
BITMAP
00000008FE00000000
0000000DFF50000000
0000004FFFA0000000
0000009FFFE0000000
000000EF8FF4000000
000005FF1BF9000000
00000AFB07FE000000
00001FF602FF400000
00006FF100CF900000
0000BFB0008FE00000
0001FF60003FF40000
0006FF10000DF90000
000CFA000008FE0000
002FF5000004FF4000
007FF1000000EF9000
00DFA00000009FD000
03FF500000005FF300
08FF322222223FF800
0DFFFFFFFFFFFFFD00
4FFFFFFFFFFFFFFF30
ENDCHAR
STARTCHAR Epsilon
ENCODING 917
SWIDTH 496 0
DWIDTH 14 0
BBX 11 20 2 0
BITMAP
DFFFFFFFFFB0
DFFFFFFFFFB0
DFB222222220
DFA000000000
DFA000000000
DFA000000000
DFA000000000
DFA000000000
DFA000000000
DFFFFFFFFA00
DFFFFFFFFA00
DFB222222100
DFA000000000
DFA000000000
DFA000000000
DFA000000000
DFA000000000
DFB222222220
DFFFFFFFFFD0
DFFFFFFFFFD0
ENDCHAR
STARTCHAR Zeta
ENCODING 918
SWIDTH 522 0
DWIDTH 15 0
BBX 13 20 1 0
BITMAP
AFFFFFFFFFFF10
AFFFFFFFFFFF10
222222223EFB00
000000007FF300
00000001EF9000
00000009FE1000
0000003FF70000
000000BFD00000
000005FF500000
00000DFC000000
00007FF3000000
0001EFA0000000
0009FE20000000
003FF700000000
00BFD100000000
05FF5000000000
0DFC0000000000
7FF52222222210
BFFFFFFFFFFF70
BFFFFFFFFFFF70
ENDCHAR
STARTCHAR Eta
ENCODING 919
SWIDTH 620 0
DWIDTH 17 0
BBX 14 20 2 0
BITMAP
DFA00000005FF3
DFA00000005FF3
DFA00000005FF3
DFA00000005FF3
DFA00000005FF3
DFA00000005FF3
DFA00000005FF3
DFA00000005FF3
DFA00000005FF3
DFFFFFFFFFFFF3
DFFFFFFFFFFFF3
DFB22222227FF3
DFA00000005FF3
DFA00000005FF3
DFA00000005FF3
DFA00000005FF3
DFA00000005FF3
DFA00000005FF3
DFA00000005FF3
DFA00000005FF3
ENDCHAR
STARTCHAR Theta
ENCODING 920
SWIDTH 593 0
DWIDTH 17 0
BBX 14 20 1 0
BITMAP
00005BEFD81000
000AFFFFFFE300
00AFFB548EFE20
04FF800003EFA0
0BFD0000007FF2
1FF60000001FF7
5FF20000000BFB
7FF000000009FD
8FE000000008FE
9FD08FFFFF47FF
9FD08FFFFF47FF
8FE011111108FE
7FF000000009FD
5FF30000000BFB
1FF70000001EF7
0BFD0000006FF2
04FF800002EFB0
00AFFB547EFE20
000AFFFFFFE400
00005BEFD82000
ENDCHAR
STARTCHAR Iota
ENCODING 921
SWIDTH 250 0
DWIDTH 7 0
BBX 3 20 2 0
BITMAP
BFC0
BFC0
BFC0
BFC0
BFC0
BFC0
BFC0
BFC0
BFC0
BFC0
BFC0
BFC0
BFC0
BFC0
BFC0
BFC0
BFC0
BFC0
BFC0
BFC0
ENDCHAR
STARTCHAR Kappa
ENCODING 922
SWIDTH 544 0
DWIDTH 15 0
BBX 13 20 2 0
BITMAP
DFA000000BFF40
DFA000006FF800
DFA00003FFC000
DFA0000CFE2000
DFA0009FF50000
DFA004FF900000
DFA01EFD100000
DFA0BFF3000000
DFA7FF70000000
DFDFFF90000000
DFFFFFF4000000
DFFE2EFD000000
DFF305FF700000
DFA000BFF20000
DFA0003FFB0000
DFA00008FF5000
DFA00001DFE100
DFA000005FF900
DFA000000BFF30
DFA0000002FFC0
ENDCHAR
STARTCHAR Lambda
ENCODING 923
SWIDTH 572 0
DWIDTH 16 0
BBX 16 20 0 0
BITMAP
0000005FF3000000
0000009FF8000000
000000EFFC000000
000003FFFF200000
000008FEFF600000
00000CF9BFB00000
00002FF57FF10000
00007FF13FF50000
0000BFB00DFA0000
0001FF7009FE0000
0005FF3005FF4000
000AFD0001FF8000
000EF90000BFD000
004FF500007FF300
008FF100002FF700
00DFB000000DFC00
03FF70000009FF10
07FF30000004FF60
0CFD00000000EFA0
1FF900000000BFE1
ENDCHAR
STARTCHAR Mu
ENCODING 924
SWIDTH 755 0
DWIDTH 21 0
BBX 17 20 2 0
BITMAP
DFF80000000006FFF0
DFFD000000000BFFF0
DFFF300000001FFFF0
DFFF700000005FFFF0
DFEFC0000000AFEFF0
DFAFF2000000EFAFF0
DF7DF7000005FF6FF0
DF89FB000009FA6FF0
DF84FF10000EF56FF0
DF90DF60004FF17FF0
DF909FB0009FA07FF0
DFA04FF100DF507FF0
DFA00DF503FF108FF0
DFA009FA08FA008FF0
DFA004FE0DF5008FF0
DFA000DF7FF1008FF0
DFA0009FFFA0008FF0
DFA0004FFF50008FF0
DFA0000EFF10008FF0
DFA00009FA00008FF0
ENDCHAR
STARTCHAR Nu
ENCODING 925
SWIDTH 619 0
DWIDTH 17 0
BBX 14 20 2 0
BITMAP
DFD00000005FF2
DFF60000005FF2
DFFE1000005FF2
DFFF7000005FF2
DFEFE100005FF2
DFADF700005FF2
DFA5FE10005FF2
DFA0CF80005FF2
DFA05FE1005FF2
DFA00CF8005FF2
DFA004FF205FF2
DFA000CF905FF2
DFA0004FF25FF2
DFA0000BF95FF2
DFA00003FF8FF2
DFA00000AFEFF2
DFA000003FFFF2
DFA000000AFFF2
DFA0000002FFF2
DFA00000009FF2
ENDCHAR
STARTCHAR Xi
ENCODING 926
SWIDTH 502 0
DWIDTH 14 0
BBX 12 20 1 0
BITMAP
5FFFFFFFFFF5
5FFFFFFFFFF5
122222222221
000000000000
000000000000
000000000000
000000000000
000000000000
000000000000
06FFFFFFFF70
06FFFFFFFF70
012222222210
000000000000
000000000000
000000000000
000000000000
000000000000
122222222221
5FFFFFFFFFF8
5FFFFFFFFFF8
ENDCHAR
STARTCHAR Omicron
ENCODING 927
SWIDTH 600 0
DWIDTH 17 0
BBX 15 20 1 0
BITMAP
00006BEFEA400000
001BFFFFFFF90000
00BFFB546CFF8000
05FF800000AFF200
0BFD0000001FF800
0FF80000000BFC00
3FF500000008FF00
4FF400000007FF10
4FF300000006FF10
4FF300000006FF10
4FF300000006FF10
4FF300000006FF10
4FF400000007FF10
3FF500000008FF00
0FF80000000BFC00
0BFD0000001FF800
05FF800000AFF200
00BFFA546BFF9000
001BFFFFFFFA0000
00005BEFEA500000
ENDCHAR
STARTCHAR Pi
ENCODING 928
SWIDTH 620 0
DWIDTH 17 0
BBX 14 20 2 0
BITMAP
BFFFFFFFFFFFF1
BFFFFFFFFFFFF1
BFC22222228FF1
BFC00000007FF1
BFC00000007FF1
BFC00000007FF1
BFC00000007FF1
BFC00000007FF1
BFC00000007FF1
BFC00000007FF1
BFC00000007FF1
BFC00000007FF1
BFC00000007FF1
BFC00000007FF1
BFC00000007FF1
BFC00000007FF1
BFC00000007FF1
BFC00000007FF1
BFC00000007FF1
BFC00000007FF1
ENDCHAR
STARTCHAR Rho
ENCODING 929
SWIDTH 554 0
DWIDTH 16 0
BBX 13 20 2 0
BITMAP
DFFFFFFEB50000
DFFFFFFFFF9000
DFB22235CFF700
DFA000000DFE10
DFA0000005FF40
DFA0000002FF60
DFA0000002FF60
DFA0000004FF50
DFA000000AFF10
DFA000039FFA00
DFFFFFFFFFC100
DFFFFFFFD81000
DFB22221000000
DFA00000000000
DFA00000000000
DFA00000000000
DFA00000000000
DFA00000000000
DFA00000000000
DFA00000000000
ENDCHAR
STARTCHAR Sigma
ENCODING 931
SWIDTH 502 0
DWIDTH 14 0
BBX 12 20 1 0
BITMAP
EFFFFFFFFFF6
EFFFFFFFFFF6
8FF622222221
0DFD10000000
03FF90000000
008FF4000000
000DFD100000
0003FF900000
00008FF40000
00000CFD1000
00000DFD0000
00008FF40000
0003FF900000
000DFD100000
008FF4000000
03FF90000000
0DFD10000000
8FF622222222
EFFFFFFFFFFE
EFFFFFFFFFFE
ENDCHAR
STARTCHAR Tau
ENCODING 932
SWIDTH 520 0
DWIDTH 15 0
BBX 14 20 0 0
BITMAP
3FFFFFFFFFFFFC
3FFFFFFFFFFFFC
022222EF922222
000000EF800000
000000EF800000
000000EF800000
000000EF800000
000000EF800000
000000EF800000
000000EF800000
000000EF800000
000000EF800000
000000EF800000
000000EF800000
000000EF800000
000000EF800000
000000EF800000
000000EF800000
000000EF800000
000000EF800000
ENDCHAR
STARTCHAR Upsilon
ENCODING 933
SWIDTH 524 0
DWIDTH 15 0
BBX 15 20 0 0
BITMAP
6FF70000000CFE10
0DFD0000003FF800
07FF4000009FF200
01EFA00001EFA000
008FF10006FF3000
002FF7000CFB0000
000AFD004FF50000
0003FF40AFD00000
0000BFB1FF600000
00005FF9FE000000
00000DFFF7000000
000006FFF1000000
000000EFA0000000
000000EF90000000
000000EF90000000
000000EF90000000
000000EF90000000
000000EF90000000
000000EF90000000
000000EF90000000
ENDCHAR
STARTCHAR Phi
ENCODING 934
SWIDTH 621 0
DWIDTH 17 0
BBX 16 20 1 0
BITMAP
0000008FF0000000
0000008FF0000000
0000008FF0000000
0003ADFFFEC71000
007FFFFFFFFFD200
07FFB59FF48EFD10
2EFA008FF003FF80
7FF1008FF0009FE0
BFB0008FF0004FF3
CF90008FF0002FF5
DF90008FF0002FF5
CFB0008FF0004FF3
8FE0008FF0007FE1
3FF7008FF001EF90
09FF828FF15DFE10
01BFFFFFFFFFE400
0006DFFFFFE92000
0000019FF2000000
0000008FF0000000
0000008FF0000000
ENDCHAR
STARTCHAR Chi
ENCODING 935
SWIDTH 550 0
DWIDTH 15 0
BBX 14 20 1 0
BITMAP
AFF3000000BFF3
3FFB000004FFA0
0AFF30000BFF20
02FFA0003FF900
009FF300BFF200
002FFA03FF8000
0008FF2AFE1000
0001EFCFF80000
00007FFFE10000
00001EFF700000
00001EFF800000
00009FFFF20000
0002FFBFF90000
000AFF29FF2000
003FF902FFA000
00AFF200AFF300
03FF90002FFA00
0BFF20000AFF30
4FF9000003FFB0
CFF2000000AFF4
ENDCHAR
STARTCHAR Psi
ENCODING 936
SWIDTH 600 0
DWIDTH 17 0
BBX 15 20 1 0
BITMAP
DFA001FF7001FF70
DFA001FF7001FF70
DFA001FF7001FF70
DFA001FF7001FF70
DFA001FF7001FF70
DFA001FF7001FF70
DFA001FF7001FF70
DFA001FF7001FF60
CFC001FF7003FF50
AFE001FF7005FF30
6FF401FF700BFE00
1EFC01FF704FF800
07FFB3FF76EFE100
009FFFFFFFFE3000
0006DFFFFE920000
000003FF80000000
000001FF70000000
000001FF70000000
000001FF70000000
000001FF70000000
ENDCHAR
STARTCHAR Omega.dup2
ENCODING 937
SWIDTH 581 0
DWIDTH 16 0
BBX 14 20 1 0
BITMAP
00006CEEC60000
001BFFFFFFB100
00BFF8338FFB00
05FF600006FF50
0CFC000000CFB0
1FF70000007FF1
5FF30000003FF4
6FF20000002FF6
7FF10000001FF7
7FF10000001FF7
7FF10000001FF7
6FF20000002FF6
4FF30000003FF4
1FF50000005FF1
0BF90000009FB0
05FE000000EF50
00CF800007FC00
124FF9118FF421
6FFFFF65FFFFF5
6FFFFF65FFFFF5
ENDCHAR
STARTCHAR Iotadieresis
ENCODING 938
SWIDTH 250 0
DWIDTH 7 0
BBX 9 25 -1 0
BITMAP
6D80007D70
DFF100FFE0
8EA0009E80
0000000000
0000000000
000BFC0000
000BFC0000
000BFC0000
000BFC0000
000BFC0000
000BFC0000
000BFC0000
000BFC0000
000BFC0000
000BFC0000
000BFC0000
000BFC0000
000BFC0000
000BFC0000
000BFC0000
000BFC0000
000BFC0000
000BFC0000
000BFC0000
000BFC0000
ENDCHAR
STARTCHAR Upsilondieresis
ENCODING 939
SWIDTH 524 0
DWIDTH 15 0
BBX 15 25 0 0
BITMAP
0008D70009C50000
000FFE001FFC0000
0009E8000BE70000
0000000000000000
0000000000000000
6FF70000000CFE10
0DFD0000003FF800
07FF4000009FF200
01EFA00001EFA000
008FF10006FF3000
002FF7000CFB0000
000AFD004FF50000
0003FF40AFD00000
0000BFB1FF600000
00005FF9FE000000
00000DFFF7000000
000006FFF1000000
000000EFA0000000
000000EF90000000
000000EF90000000
000000EF90000000
000000EF90000000
000000EF90000000
000000EF90000000
000000EF90000000
ENDCHAR
STARTCHAR alphatonos
ENCODING 940
SWIDTH 494 0
DWIDTH 14 0
BBX 13 22 1 0
BITMAP
000000DF700000
000000FF200000
000003FC000000
000005F8000000
000004C3000000
00000000000000
00000000000000
0019EEC52FE000
01CFFFFF9FE000
08FF823BFFE000
0EFA0001DFE000
4FF300007FE000
7FF000007FE000
8FD000007FE000
9FC000007FE000
9FC000007FE000
8FD000007FE000
5FF100007FE000
1FF80000DFF000
0AFF723BFFF710
01DFFFFF7FFF30
0019EEC506EE30
ENDCHAR
STARTCHAR epsilontonos
ENCODING 941
SWIDTH 470 0
DWIDTH 13 0
BBX 11 22 1 0
BITMAP
00000AF90000
00000DF50000
00000FE00000
00003FA00000
00003C500000
000000000000
000000000000
004BEFEB4000
07FFFFFFF800
2FFC413BFF40
5FF20000EF80
5FF100001110
1DFA20000000
02CFFFFD0000
04DFFFFD0000
2FFA31000000
7FE100000000
9FD000006A80
8FF20001DFA0
3FFC413BFF40
07FFFFFFF800
004AEFEB4000
ENDCHAR
STARTCHAR etatonos
ENCODING 942
SWIDTH 498 0
DWIDTH 14 0
BBX 11 28 1 -6
BITMAP
000006FE0000
000008F90000
00000BF40000
00000DE00000
00000A900000
000000000000
000000000000
2FF14CEEA200
2FF8FFFFFE10
2FFF9238FF70
2FFA0000CFB0
2FF500008FE0
2FF500007FE0
2FF500007FF0
2FF500007FF0
2FF500007FF0
2FF500007FF0
2FF500007FF0
2FF500007FF0
2FF500007FF0
2FF500007FF0
2FF500007FF0
000000007FF0
000000007FF0
000000007FF0
000000007FF0
000000007FF0
000000007FF0
ENDCHAR
STARTCHAR iotatonos
ENCODING 943
SWIDTH 299 0
DWIDTH 8 0
BBX 6 22 2 0
BITMAP
06FD00
09F900
0BF400
0EE000
0A9000
000000
000000
6FF000
6FF000
6FF000
6FF000
6FF000
6FF000
6FF000
6FF000
6FF000
6FF000
6FF000
6FF000
4FF731
0DFFF3
03CFD2
ENDCHAR
STARTCHAR upsilondieresistonos
ENCODING 944
SWIDTH 480 0
DWIDTH 13 0
BBX 12 23 1 0
BITMAP
00000EF70000
00001FF20000
00004FC00000
0AC23C72CB00
3FF70006FF40
1CE30003ED10
000000000000
000000000000
2FF40009FE00
2FF40004FF40
2FF40000FF80
2FF40000BFC0
2FF400009FE0
2FF400007FF0
2FF400005FF1
2FF400005FF1
2FF400007FF0
2FF500009FD0
1FF60001EFA0
0DFA0007FF40
07FF516FFC00
01DFFFFFD200
0019DFD91000
ENDCHAR
STARTCHAR alpha
ENCODING 945
SWIDTH 494 0
DWIDTH 14 0
BBX 13 15 1 0
BITMAP
0019EEC52FE000
01CFFFFF9FE000
08FF823BFFE000
0EFA0001DFE000
4FF300007FE000
7FF000007FE000
8FD000007FE000
9FC000007FE000
9FC000007FE000
8FD000007FE000
5FF100007FE000
1FF80000DFF000
0AFF723BFFF710
01DFFFFF7FFF30
0019EEC506EE30
ENDCHAR
STARTCHAR beta
ENCODING 946
SWIDTH 517 0
DWIDTH 14 0
BBX 11 25 2 -5
BITMAP
0029DFD81000
05EFFFFFD100
2EFC427FFA00
9FE10008FF10
DF900004FF30
EF700003FF30
FF700006FE10
FF70015EF800
FF70BFFF9000
FF70BFFFC200
FF70113CFD10
FF700001FF70
FF700000AFC0
FF7000007FE0
FF7000008FE0
FF700000AFC0
FF800002FF80
FFF8314DFF20
FFFFFFFFF500
FF78DFEA3000
FF7000000000
FF7000000000
FF7000000000
FF7000000000
FF7000000000
ENDCHAR
STARTCHAR gamma
ENCODING 947
SWIDTH 444 0
DWIDTH 12 0
BBX 12 21 0 -6
BITMAP
1FF600000CF9
0BFA00001FF5
06FE00005FF1
02FF4000AFB0
00CF8000EF60
008FC003FF20
003FF207FC00
000EF60BF800
0009FA1FF300
0005FE5FE000
0001EFCF9000
0000AFFF5000
00006FFF1000
00001FFB0000
00000EF80000
00000EF80000
00000EF80000
00000EF80000
00000EF80000
00000EF80000
00000EF80000
ENDCHAR
STARTCHAR delta
ENCODING 948
SWIDTH 498 0
DWIDTH 14 0
BBX 12 21 1 0
BITMAP
0004BEED8100
006FFFFFF400
00EFC435A400
02FF50000000
01FF80000000
00AFF8100000
001CFFE81000
0007FFFFE300
00BFD79FFE20
08FD1005FFA0
1FF50000AFF1
5FF100003FF5
8FD000000FF7
9FD000000EF8
8FD000000EF8
7FF000000FF6
4FF400004FF3
0EFA0000AFD0
06FF8229FF50
009FFFFFF900
0006CEEC5000
ENDCHAR
STARTCHAR epsilon
ENCODING 949
SWIDTH 470 0
DWIDTH 13 0
BBX 11 15 1 0
BITMAP
004BEFEB4000
07FFFFFFF800
2FFC413BFF40
5FF20000EF80
5FF100001110
1DFA20000000
02CFFFFD0000
04DFFFFD0000
2FFA31000000
7FE100000000
9FD000006A80
8FF20001DFA0
3FFC413BFF40
07FFFFFFF800
004AEFEB4000
ENDCHAR
STARTCHAR zeta
ENCODING 950
SWIDTH 462 0
DWIDTH 13 0
BBX 11 25 1 -5
BITMAP
5FFFFFFFFF80
5FFFFFFFFF70
01111117FD10
0000002EF500
000000CFA000
000008FE1000
00004FF60000
0000DFB00000
0008FE200000
001EF7000000
007FD0000000
00DF70000000
02FF30000000
06FF00000000
07FE00000000
08FE00000000
06FF10000000
02FFB2000000
008FFFC72000
0005DFFFF600
0000027EFD00
00000006FE00
00000008F900
0000002EE200
0000001A5000
ENDCHAR
STARTCHAR eta
ENCODING 951
SWIDTH 498 0
DWIDTH 14 0
BBX 11 21 1 -6
BITMAP
2FF14CEEA200
2FF8FFFFFE10
2FFF9238FF70
2FFA0000CFB0
2FF500008FE0
2FF500007FE0
2FF500007FF0
2FF500007FF0
2FF500007FF0
2FF500007FF0
2FF500007FF0
2FF500007FF0
2FF500007FF0
2FF500007FF0
2FF500007FF0
000000007FF0
000000007FF0
000000007FF0
000000007FF0
000000007FF0
000000007FF0
ENDCHAR
STARTCHAR theta
ENCODING 952
SWIDTH 496 0
DWIDTH 14 0
BBX 12 20 1 0
BITMAP
0005BEEB3000
007FFFFFF500
02FFA23BFE10
09FD0001EF70
0EF700009FC0
2FF400006FF0
4FF200004FF2
5FF100003FF3
6FF000002FF4
6FFFFFFFFFF4
6FFFFFFFFFF4
6FF111113FF4
5FF100003FF3
4FF200004FF2
2FF400006FF0
0DF80000AFC0
09FD0001EF70
02FFA23BFE10
006FFFFFF400
0004BEEB3000
ENDCHAR
STARTCHAR iota
ENCODING 953
SWIDTH 299 0
DWIDTH 8 0
BBX 6 15 2 0
BITMAP
6FF000
6FF000
6FF000
6FF000
6FF000
6FF000
6FF000
6FF000
6FF000
6FF000
6FF000
6FF000
4FF731
0DFFF3
03CFD2
ENDCHAR
STARTCHAR kappa
ENCODING 954
SWIDTH 491 0
DWIDTH 14 0
BBX 11 15 2 0
BITMAP
FF70000BFF30
FF70007FF600
FF7003FFA000
FF701DFD1000
FF709FF30000
FF75FF600000
FFFFFA000000
FFFFFC000000
FF97FF700000
FF70BFF30000
FF702EFC0000
FF7006FF8000
FF7000BFF300
FF70002FFD00
FF700007FF80
ENDCHAR
STARTCHAR lambda
ENCODING 955
SWIDTH 485 0
DWIDTH 14 0
BBX 13 21 0 0
BITMAP
00CEB200000000
00DFFC00000000
0019FF30000000
0002FF80000000
0000BFD0000000
00006FF3000000
00001FF8000000
00002FFD000000
00007FFF300000
0000BFFF800000
0001FFDFD00000
0006FE6FF30000
000AFB1FF80000
001EF60BFD0000
005FF206FF3000
00AFD001FF8000
00EF9000BFD000
04FF50006FF300
09FF10001FFA20
0DFB000009FFA0
3FF7000001AE90
ENDCHAR
STARTCHAR uni03BC
ENCODING 956
SWIDTH 498 0
DWIDTH 14 0
BBX 10 21 2 -6
BITMAP
FF600007FE
FF600007FE
FF600007FE
FF600007FE
FF600007FE
FF600007FE
FF600007FE
FF600007FE
FF600007FE
FF700007FE
FF800007FE
FFC0000BFE
FFF7129FFE
FFFFFFFCFE
FF9BEE84FE
FF60000000
FF60000000
FF60000000
FF60000000
FF60000000
FF60000000
ENDCHAR
STARTCHAR nu
ENCODING 957
SWIDTH 427 0
DWIDTH 12 0
BBX 12 15 0 0
BITMAP
3FF300005FF2
0EF700008FC0
0AFB0000CF80
05FF0001FF40
01FF4005FE00
00BF8008FA00
007FC00CF500
002FF11FF100
000DF45FC000
0008F88F7000
0004FCCF3000
0000EFFD0000
0000AFF90000
00006FF50000
00001FF10000
ENDCHAR
STARTCHAR xi
ENCODING 958
SWIDTH 431 0
DWIDTH 12 0
BBX 11 25 1 -5
BITMAP
0005BEFEC500
00BFFFFFF700
07FFA4225300
0DFB00000000
0DF800000000
0AFC00000000
03EFA3100000
003CFFFFB000
002BFFFFB000
03EFA4211000
0DF900000000
5FF100000000
8FD000000000
9FC000000000
8FE000000000
6FF300000000
1FFC10000000
07FFC5000000
008FFFEA5000
00028DFFF900
0000003BFF10
00000004FF00
00000007FB00
0000002EF300
000000097000
ENDCHAR
STARTCHAR omicron
ENCODING 959
SWIDTH 501 0
DWIDTH 14 0
BBX 12 15 1 0
BITMAP
0006CEEC6000
01BFFFFFFB10
09FF8228FF90
2FF900008FF2
6FF200001FF7
9FD000000CFA
AFB000000BFB
BFB000000AFB
AFB000000AFB
9FD000000BFA
6FF200000EF7
2FF800006FF2
09FF8226EFA0
01BFFFFFFC10
0006CEEC7000
ENDCHAR
STARTCHAR pi
ENCODING 960
SWIDTH 520 0
DWIDTH 15 0
BBX 14 15 0 0
BITMAP
4FFFFFFFFFFFF5
4FFFFFFFFFFFF5
017FF1111BFB10
006FF0000BFA00
006FF0000BFA00
006FF0000BFA00
006FF0000BFA00
006FF0000BFA00
006FF0000BFA00
006FF0000BFA00
006FF0000BFA00
006FF0000AFB00
006FF00008FE43
006FF00003FFFE
006FF000006EFB
ENDCHAR
STARTCHAR rho
ENCODING 961
SWIDTH 498 0
DWIDTH 14 0
BBX 12 21 1 -6
BITMAP
0003AEEC5000
004EFFFFF900
01EFC329FF50
07FF2000BFC0
0CFB00005FF2
0FF700001FF5
1FF600000EF7
2FF500000EF7
2FF500000EF7
2FF500000FF6
2FF500003FF4
2FF80000AFE1
2FFF8228FF80
2FFDFFFFFD10
2FF57DFE9100
2FF500000000
2FF500000000
2FF500000000
2FF500000000
2FF500000000
2FF500000000
ENDCHAR
STARTCHAR sigma1
ENCODING 962
SWIDTH 472 0
DWIDTH 13 0
BBX 11 20 1 -5
BITMAP
0005CEEB4000
008FFFFFF600
05FF823BFF20
0DFA0001EF70
3FF40000AFA0
7FF000003640
8FD000000000
9FC000000000
9FD000000000
7FF100000000
4FF700000000
0DFF40000000
04FFF9200000
004EFFFC6000
00018DFFF800
0000003BFE00
00000005FE00
00000008F900
0000002EE200
000000096000
ENDCHAR
STARTCHAR sigma
ENCODING 963
SWIDTH 498 0
DWIDTH 14 0
BBX 13 15 1 0
BITMAP
0005CEFFFFFF80
009FFFFFFFFF80
06FF9239FB2110
0EFA0000BF7000
4FF300005FE000
7FF000001FF400
9FD000000EF700
9FC000000DF800
8FE000000EF800
6FF000001FF600
3FF400005FF300
0DFB0000BFC000
05FF9229FF4000
009FFFFFF70000
0005CEEB400000
ENDCHAR
STARTCHAR tau
ENCODING 964
SWIDTH 460 0
DWIDTH 13 0
BBX 11 15 1 0
BITMAP
CFFFFFFFFFA0
CFFFFFFFFFA0
1111DF811100
0000DF800000
0000DF800000
0000DF800000
0000DF800000
0000DF800000
0000DF800000
0000DF800000
0000DF800000
0000DF900000
0000BFD34000
00006FFFD000
000008EE9000
ENDCHAR
STARTCHAR upsilon
ENCODING 965
SWIDTH 480 0
DWIDTH 13 0
BBX 12 15 1 0
BITMAP
2FF40009FE00
2FF40004FF40
2FF40000FF80
2FF40000BFC0
2FF400009FE0
2FF400007FF0
2FF400005FF1
2FF400005FF1
2FF400007FF0
2FF500009FD0
1FF60001EFA0
0DFA0007FF40
07FF516FFC00
01DFFFFFD200
0019DFD91000
ENDCHAR
STARTCHAR phi
ENCODING 966
SWIDTH 617 0
DWIDTH 17 0
BBX 16 22 1 -7
BITMAP
00670006DEC60000
04FF304FFFFFB100
0DFD109FD26EFA00
4FF500AFB005FF40
8FE000AFB000DF90
BFB000AFB0008FE0
CFA000AFB0006FF1
CF9000AFB0005FF2
BFA000AFB0006FF1
9FE000AFB0009FD0
5FF500AFB001EF90
0DFE20AFB00BFF30
04FFE6BFC5CFF800
005EFFFFFFFF8000
00028DFFFD930000
000000AFB0000000
000000AFB0000000
000000AFB0000000
000000AFB0000000
000000AFB0000000
000000AFB0000000
000000AFB0000000
ENDCHAR
STARTCHAR chi
ENCODING 967
SWIDTH 438 0
DWIDTH 12 0
BBX 13 21 0 -6
BITMAP
3EE800000DF800
4FFF70004FF200
13AFE100AFC000
001EF601FF6000
0008FC07FE1000
0002FF2DF90000
0000CFBFF30000
00007FFFC00000
00002FFF600000
00000BFF100000
00000CFE000000
00003FFF500000
00009FFFA00000
0001EFCFF10000
0006FF2EF60000
000CFA09FB0000
003FF504FF2000
009FE000DF8000
01EF80007FF640
06FF20001EFF90
0CFB000003CE40
ENDCHAR
STARTCHAR psi
ENCODING 968
SWIDTH 612 0
DWIDTH 17 0
BBX 15 21 1 -6
BITMAP
BFA000CF900AFD00
BFA000CF9005FF30
BFA000CF9001FF70
BFA000CF9000DFA0
BFA000CF9000AFC0
BFA000CF90008FE0
BFA000CF90007FF0
BFB000CF90007FF0
AFC000CF90008FE0
7FF100CF9000CFB0
3FF600CF9004FF70
0CFD10CF902DFE10
04FFD6CFA6EFF600
005EFFFFFFFF7000
00028DFFFD920000
000000CF90000000
000000CF90000000
000000CF90000000
000000CF90000000
000000CF90000000
000000CF90000000
ENDCHAR
STARTCHAR omega
ENCODING 969
SWIDTH 711 0
DWIDTH 20 0
BBX 18 15 1 0
BITMAP
01FF700000000AFD00
07FF2000000004FF40
0CFC0000000000EF90
1FF80000000000AFD0
3FF50003BB20007FF0
5FF20004FF20005FF2
5FF10004FF20003FF3
6FF00004FF20003FF3
5FF10005FF20003FF3
4FF20005FF30005FF1
1FF50007FF50007FE0
0CFA000CFF9000CFA0
06FF618FACF517FF40
00CFFFFE24FFFFF900
0019EEB3004CED7000
ENDCHAR
STARTCHAR iotadieresis
ENCODING 970
SWIDTH 299 0
DWIDTH 8 0
BBX 10 20 -1 0
BITMAP
2CB2003CA1
7FF6009FF4
3ED2004EC1
0000000000
0000000000
0006FF0000
0006FF0000
0006FF0000
0006FF0000
0006FF0000
0006FF0000
0006FF0000
0006FF0000
0006FF0000
0006FF0000
0006FF0000
0006FF0000
0004FF7310
0000DFFF30
00003CFD20
ENDCHAR
STARTCHAR upsilondieresis
ENCODING 971
SWIDTH 480 0
DWIDTH 13 0
BBX 12 20 1 0
BITMAP
06D90007D700
0CFF100EFF00
07EB0009E900
000000000000
000000000000
2FF40009FE00
2FF40004FF40
2FF40000FF80
2FF40000BFC0
2FF400009FE0
2FF400007FF0
2FF400005FF1
2FF400005FF1
2FF400007FF0
2FF500009FD0
1FF60001EFA0
0DFA0007FF40
07FF516FFC00
01DFFFFFD200
0019DFD91000
ENDCHAR
STARTCHAR omicrontonos
ENCODING 972
SWIDTH 501 0
DWIDTH 14 0
BBX 12 22 1 0
BITMAP
000006FE0000
000008F90000
00000BF40000
00000DE00000
00000A900000
000000000000
000000000000
0006CEEC6000
01BFFFFFFB10
09FF8228FF90
2FF900008FF2
6FF200001FF7
9FD000000CFA
AFB000000BFB
BFB000000AFB
AFB000000AFB
9FD000000BFA
6FF200000EF7
2FF800006FF2
09FF8226EFA0
01BFFFFFFC10
0006CEEC7000
ENDCHAR
STARTCHAR upsilontonos
ENCODING 973
SWIDTH 480 0
DWIDTH 13 0
BBX 12 22 1 0
BITMAP
00000BF90000
00000EF40000
00001FE00000
00003F900000
00003C400000
000000000000
000000000000
2FF40009FE00
2FF40004FF40
2FF40000FF80
2FF40000BFC0
2FF400009FE0
2FF400007FF0
2FF400005FF1
2FF400005FF1
2FF400007FF0
2FF500009FD0
1FF60001EFA0
0DFA0007FF40
07FF516FFC00
01DFFFFFD200
0019DFD91000
ENDCHAR
STARTCHAR omegatonos
ENCODING 974
SWIDTH 711 0
DWIDTH 20 0
BBX 18 22 1 0
BITMAP
000000005FE0000000
000000007FA0000000
00000000AF50000000
00000000CF10000000
000000009A00000000
000000000000000000
000000000000000000
01FF700000000AFD00
07FF2000000004FF40
0CFC0000000000EF90
1FF80000000000AFD0
3FF50003BB20007FF0
5FF20004FF20005FF2
5FF10004FF20003FF3
6FF00004FF20003FF3
5FF10005FF20003FF3
4FF20005FF30005FF1
1FF50007FF50007FE0
0CFA000CFF9000CFA0
06FF618FACF517FF40
00CFFFFE24FFFFF900
0019EEB3004CED7000
ENDCHAR
STARTCHAR theta1
ENCODING 977
SWIDTH 507 0
DWIDTH 14 0
BBX 13 20 1 0
BITMAP
00002BEEA20000
0002EFFFFD1000
0009FE45FF7000
000DF900BFB000
000FF6008FD000
000FF7008FD000
000DF9008FD000
0009FE108FD000
0003FFA08FD000
38808FFBAFD210
6FF009FFFFFF60
6FF0004BFFFE50
6FF000008FE000
6FF000008FD000
5FF100008FD000
4FF40000AFC000
0EFA0001EF9000
08FF834CFF3000
00BFFFFFF70000
0007CFEB500000
ENDCHAR
STARTCHAR Upsilon1
ENCODING 978
SWIDTH 465 0
DWIDTH 13 0
BBX 15 20 -1 0
BITMAP
1DEA10000009ED10
0EFF9000007FFE00
04BFF10000EFB500
002FF60005FF3000
000BFC000AFC0000
0005FF301FF60000
0000EF807FE10000
00008FE0DF900000
00002FF8FF300000
00000BFFFD000000
000006FFF7000000
000001EFF1000000
000000BFC0000000
000000BFC0000000
000000BFC0000000
000000BFC0000000
000000BFC0000000
000000BFC0000000
000000BFC0000000
000000BFC0000000
ENDCHAR
STARTCHAR omega1
ENCODING 982
SWIDTH 678 0
DWIDTH 19 0
BBX 18 15 1 0
BITMAP
CFFFFFFFFFFFFFFFF3
CFFFFFFFFFFFFFFFF3
1AFE211111111DFC10
0DFB0000000009FE00
1FF70000000005FF20
2FF5000AFC0003FF40
3FF3000AFC0002FF50
4FF3000AFC0001FF50
3FF3000AFC0002FF50
2FF4000AFD0003FF30
0EF6000DFE0005FF10
0BFA002FFF4009FD00
06FF42CF6FD33EF700
00CFFFFB09FFFFD100
001AEE91008DEB2000
ENDCHAR
STARTCHAR uni0400
ENCODING 1024
SWIDTH 496 0
DWIDTH 14 0
BBX 11 26 2 0
BITMAP
06FF90000000
008FF5000000
000AFE200000
0000BC600000
000000000000
000000000000
DFFFFFFFFFB0
DFFFFFFFFFB0
DFB222222220
DFA000000000
DFA000000000
DFA000000000
DFA000000000
DFA000000000
DFA000000000
DFFFFFFFFA00
DFFFFFFFFA00
DFB222222100
DFA000000000
DFA000000000
DFA000000000
DFA000000000
DFA000000000
DFB222222220
DFFFFFFFFFD0
DFFFFFFFFFD0
ENDCHAR
STARTCHAR uni0401
ENCODING 1025
SWIDTH 496 0
DWIDTH 14 0
BBX 11 25 2 0
BITMAP
08D70009C500
0FFE001FFC00
09E8000BE700
000000000000
000000000000
DFFFFFFFFFB0
DFFFFFFFFFB0
DFB222222220
DFA000000000
DFA000000000
DFA000000000
DFA000000000
DFA000000000
DFA000000000
DFFFFFFFFA00
DFFFFFFFFA00
DFB222222100
DFA000000000
DFA000000000
DFA000000000
DFA000000000
DFA000000000
DFB222222220
DFFFFFFFFFD0
DFFFFFFFFFD0
ENDCHAR
STARTCHAR uni0402
ENCODING 1026
SWIDTH 650 0
DWIDTH 18 0
BBX 18 20 0 0
BITMAP
4FFFFFFFFFFFFB0000
4FFFFFFFFFFFFB0000
12222AFE2222220000
000009FE0000000000
000009FE0000000000
000009FE0000000000
000009FE0000000000
000009FE0000000000
000009FE8CEED92000
000009FFFFFFFFF500
000009FFA7558FFF30
000009FE000003FFA0
000009FE000000AFE0
000009FE0000008FF1
000009FE0000007FF1
000009FE0000008FE0
000009FE000000DFB0
000009FE00014CFF40
000009FE000BFFF800
000009FE000AEA4000
ENDCHAR
STARTCHAR uni0403
ENCODING 1027
SWIDTH 487 0
DWIDTH 14 0
BBX 11 26 2 0
BITMAP
000000AFF500
000006FF6000
00003FF80000
00007D900000
000000000000
000000000000
BFFFFFFFFF90
BFFFFFFFFF90
BFC222222210
BFC000000000
BFC000000000
BFC000000000
BFC000000000
BFC000000000
BFC000000000
BFC000000000
BFC000000000
BFC000000000
BFC000000000
BFC000000000
BFC000000000
BFC000000000
BFC000000000
BFC000000000
BFC000000000
BFC000000000
ENDCHAR
STARTCHAR uni0404
ENCODING 1028
SWIDTH 589 0
DWIDTH 17 0
BBX 14 20 1 0
BITMAP
00004AEFEA4000
0008FFFFFFF800
007FFB534BFF60
02FFA00000CFD0
09FE1000005FF4
0DFA0000001FF8
2FF60000000785
4FF40000000000
5FF30000000000
5FFFFFFFF80000
5FFFFFFFF80000
5FF42222210000
4FF30000000000
2FF50000000675
0EF90000001FF8
09FE0000004FF4
03FF800000BFE0
008FFA435CFF60
0009FFFFFFF800
00005BEFDA3000
ENDCHAR
STARTCHAR uni0405
ENCODING 1029
SWIDTH 518 0
DWIDTH 15 0
BBX 13 20 1 0
BITMAP
0005BEFD930000
00AFFFFFFF6000
08FFB435CFF400
1EFB00000DFC00
4FF5000006FF20
4FF4000003FF40
2FF80000000000
0CFF6000000000
03EFFC50000000
003DFFFE820000
00006CFFFE6000
00000039FFF500
000000003EFE00
0000000006FF30
CFB0000003FF50
9FE0000004FF50
4FF700000AFF20
0AFF9424AFFA00
01AFFFFFFFC100
0005ADFEB60000
ENDCHAR
STARTCHAR uni0406
ENCODING 1030
SWIDTH 250 0
DWIDTH 7 0
BBX 3 20 2 0
BITMAP
BFC0
BFC0
BFC0
BFC0
BFC0
BFC0
BFC0
BFC0
BFC0
BFC0
BFC0
BFC0
BFC0
BFC0
BFC0
BFC0
BFC0
BFC0
BFC0
BFC0
ENDCHAR
STARTCHAR uni0407
ENCODING 1031
SWIDTH 250 0
DWIDTH 7 0
BBX 9 25 -1 0
BITMAP
6D80007D70
DFF100FFE0
8EA0009E80
0000000000
0000000000
000BFC0000
000BFC0000
000BFC0000
000BFC0000
000BFC0000
000BFC0000
000BFC0000
000BFC0000
000BFC0000
000BFC0000
000BFC0000
000BFC0000
000BFC0000
000BFC0000
000BFC0000
000BFC0000
000BFC0000
000BFC0000
000BFC0000
000BFC0000
ENDCHAR
STARTCHAR uni0408
ENCODING 1032
SWIDTH 483 0
DWIDTH 14 0
BBX 12 20 0 0
BITMAP
000000000FF8
000000000FF8
000000000FF8
000000000FF8
000000000FF8
000000000FF8
000000000FF8
000000000FF8
000000000FF8
000000000FF8
000000000FF8
000000000FF8
000000000FF8
000000000FF8
2CC400001FF7
1FF700003FF6
0DFD00009FF2
07FFB438FFA0
00AFFFFFFD10
0006CEFD8100
ENDCHAR
STARTCHAR uni0409
ENCODING 1033
SWIDTH 923 0
DWIDTH 26 0
BBX 25 20 0 0
BITMAP
00009FFFFFFFFFF00000000000
00009FFFFFFFFFF00000000000
0000AFD222229FF00000000000
0000AFC000008FF00000000000
0000BFB000008FF00000000000
0000BFB000008FF00000000000
0000CFA000008FF00000000000
0000CFA000008FF00000000000
0000DF9000008FFFFFFEC71000
0000DF9000008FFFFFFFFFD200
0000EF8000008FF322238FFC00
0000EF7000008FF0000008FF40
0000FF6000008FF0000001FF80
0002FF5000008FF0000000DFA0
0004FF3000008FF0000000DFA0
0007FF0000008FF0000001FF80
000CFB0000008FF0000007FF40
03AFF50000008FF222238FFC00
3FFFB00000008FFFFFFFFFD200
3FD8100000008FFFFFFEC71000
ENDCHAR
STARTCHAR uni040A
ENCODING 1034
SWIDTH 927 0
DWIDTH 26 0
BBX 23 20 2 0
BITMAP
BFC00000007FF10000000000
BFC00000007FF10000000000
BFC00000007FF10000000000
BFC00000007FF10000000000
BFC00000007FF10000000000
BFC00000007FF10000000000
BFC00000007FF10000000000
BFC00000007FF10000000000
BFC00000007FFFFFFED81000
BFFFFFFFFFFFFFFFFFFFE300
BFFFFFFFFFFFF322238FFD00
BFC22222228FF1000006FF60
BFC00000007FF1000000EFA0
BFC00000007FF1000000CFB0
BFC00000007FF1000000CFB0
BFC00000007FF1000001EF90
BFC00000007FF1000007FF50
BFC00000007FF544459FFD00
BFC00000007FFFFFFFFFD200
BFC00000007FFFFFFED81000
ENDCHAR
STARTCHAR uni040B
ENCODING 1035
SWIDTH 705 0
DWIDTH 20 0
BBX 17 20 1 0
BITMAP
FFFFFFFFFFFFF00000
FFFFFFFFFFFFF00000
22228FF32222200000
00007FF10000000000
00007FF10000000000
00007FF10000000000
00007FF10000000000
00007FF10000000000
00007FF9CEFEC81000
00007FFFFFFFFFD200
00007FF964338FFB00
00007FF1000008FF20
00007FF1000003FF60
00007FF1000001FF70
00007FF1000001FF70
00007FF1000001FF70
00007FF1000001FF70
00007FF1000001FF70
00007FF1000001FF70
00007FF1000001FF70
ENDCHAR
STARTCHAR uni040C
ENCODING 1036
SWIDTH 544 0
DWIDTH 15 0
BBX 13 26 2 0
BITMAP
000001DFE20000
00000AFE300000
00006FF4000000
0000AE50000000
00000000000000
00000000000000
DFA000000BFF40
DFA000006FF800
DFA00003FFC000
DFA0000CFE2000
DFA0009FF50000
DFA004FF900000
DFA01EFD100000
DFA0BFF3000000
DFA7FF70000000
DFDFFF90000000
DFFFFFF4000000
DFFE2EFD000000
DFF305FF700000
DFA000BFF20000
DFA0003FFB0000
DFA00008FF5000
DFA00001DFE100
DFA000005FF900
DFA000000BFF30
DFA0000002FFC0
ENDCHAR
STARTCHAR uni040D
ENCODING 1037
SWIDTH 619 0
DWIDTH 17 0
BBX 13 26 2 0
BITMAP
003EFC10000000
0004FF90000000
00005FF6000000
000007D9000000
00000000000000
00000000000000
BFC0000000BFF0
BFC0000003FFF0
BFC000000BFFF0
BFC000004FFFF0
BFC00000BFEFF0
BFC00004FF9FF0
BFC0000BF97FF0
BFC0004FF17FF0
BFC000BF807FF0
BFC004FE107FF0
BFC00BF8007FF0
BFC04FE1007FF0
BFC0CF80007FF0
BFC4FE10007FF0
BFCCF800007FF0
BFEFE100007FF0
BFFF8000007FF0
BFFE1000007FF0
BFF80000007FF0
BFE10000007FF0
ENDCHAR
STARTCHAR uni040E
ENCODING 1038
SWIDTH 547 0
DWIDTH 15 0
BBX 14 25 1 0
BITMAP
00397000397000
003FE1009F9000
000AFEACFE2000
00007CEDA20000
00000000000000
8FF3000000BFF3
3FF9000001FFD0
0CFE000005FF70
06FF40000AFF20
01FF90001EFC00
00AFE0005FF700
005FF500AFF100
000EFA00EFB000
0008FE14FF6000
0003FF59FF1000
0000CFBEFA0000
00006FFFF50000
00001FFFE10000
00000AFFA00000
000005FF400000
000009FE000000
00000EF9000000
00229FF2000000
009FFF90000000
009FD800000000
ENDCHAR
STARTCHAR uni040F
ENCODING 1039
SWIDTH 621 0
DWIDTH 17 0
BBX 14 25 2 -5
BITMAP
BFC00000007FF1
BFC00000007FF1
BFC00000007FF1
BFC00000007FF1
BFC00000007FF1
BFC00000007FF1
BFC00000007FF1
BFC00000007FF1
BFC00000007FF1
BFC00000007FF1
BFC00000007FF1
BFC00000007FF1
BFC00000007FF1
BFC00000007FF1
BFC00000007FF1
BFC00000007FF1
BFC00000007FF1
BFC22222228FF1
BFFFFFFFFFFFF1
BFFFFFFFFFFFF1
000008FF000000
000008FF000000
000008FF000000
000008FF000000
000008FF000000
ENDCHAR
STARTCHAR uni0410
ENCODING 1040
SWIDTH 576 0
DWIDTH 16 0
BBX 16 20 0 0
BITMAP
0000002FF5000000
0000007FF9000000
000000CFFE000000
000002FFEF400000
000007FCAF900000
00000BF76FE00000
00001FF31FF30000
00006FE00CF80000
0000BFA008FD0000
0001FF5003FF3000
0005FF1000EF8000
000AFC0000AFD000
001EF800005FF200
005FFFFFFFFFF700
00AFFFFFFFFFFC00
00EFA2222228FF20
04FF40000002FF70
09FE00000000CFC0
0EFA000000007FF1
4FF5000000002FF6
ENDCHAR
STARTCHAR uni0411
ENCODING 1041
SWIDTH 549 0
DWIDTH 15 0
BBX 13 20 2 0
BITMAP
EFFFFFFFFF6000
EFFFFFFFFF6000
EFA22222221000
EF900000000000
EF900000000000
EF900000000000
EF900000000000
EF900000000000
EFFFFFFEB50000
EFFFFFFFFFA000
EFA22224BFF700
EF9000000DFE00
EF90000006FF30
EF90000004FF40
EF90000004FF40
EF90000007FF20
EF9000001DFD00
EFA22224CFF600
EFFFFFFFFF9000
EFFFFFFEB50000
ENDCHAR
STARTCHAR uni0412
ENCODING 1042
SWIDTH 545 0
DWIDTH 15 0
BBX 12 20 2 0
BITMAP
DFFFFFEC8100
DFFFFFFFFD10
DFB22249FFA0
DFA00000AFF1
DFA000005FF3
DFA000004FF4
DFA000006FF3
DFA00000BFD0
DFA00029FF50
DFFFFFFFE600
DFFFFFFFFA10
DFA22236EFC0
DFA000005FF4
DFA000000FF8
DFA000000DFA
DFA000000FF9
DFA000006FF6
DFB22237FFE1
DFFFFFFFFE40
DFFFFFFD9200
ENDCHAR
STARTCHAR uni0413
ENCODING 1043
SWIDTH 487 0
DWIDTH 14 0
BBX 11 20 2 0
BITMAP
BFFFFFFFFF90
BFFFFFFFFF90
BFC222222210
BFC000000000
BFC000000000
BFC000000000
BFC000000000
BFC000000000
BFC000000000
BFC000000000
BFC000000000
BFC000000000
BFC000000000
BFC000000000
BFC000000000
BFC000000000
BFC000000000
BFC000000000
BFC000000000
BFC000000000
ENDCHAR
STARTCHAR uni0414
ENCODING 1044
SWIDTH 660 0
DWIDTH 18 0
BBX 18 25 0 -5
BITMAP
00001FFFFFFFFFF400
00002FFFFFFFFFF400
00003FF722226FF400
00003FF500004FF400
00004FF400004FF400
00005FF300004FF400
00005FF300004FF400
00006FF200004FF400
00007FF100004FF400
00008FF000004FF400
00009FE000004FF400
0000BFC000004FF400
0000EFA000004FF400
0001FF7000004FF400
0005FF3000004FF400
0009FD0000004FF400
001EF80000004FF400
129FF32222226FF521
4FFFFFFFFFFFFFFFF8
4FFFFFFFFFFFFFFFF8
4FF400000000000EF8
4FF400000000000EF8
4FF400000000000EF8
4FF400000000000EF8
4FF400000000000EF8
ENDCHAR
STARTCHAR uni0415
ENCODING 1045
SWIDTH 496 0
DWIDTH 14 0
BBX 11 20 2 0
BITMAP
DFFFFFFFFFB0
DFFFFFFFFFB0
DFB222222220
DFA000000000
DFA000000000
DFA000000000
DFA000000000
DFA000000000
DFA000000000
DFFFFFFFFA00
DFFFFFFFFA00
DFB222222100
DFA000000000
DFA000000000
DFA000000000
DFA000000000
DFA000000000
DFB222222220
DFFFFFFFFFD0
DFFFFFFFFFD0
ENDCHAR
STARTCHAR uni0416
ENCODING 1046
SWIDTH 791 0
DWIDTH 22 0
BBX 22 20 0 0
BITMAP
0AFF300000FF700000DFE1
03FFA00000FF700005FF80
00AFF20000FF70000CFE10
002FF90000FF70004FF700
0009FF1000FF7000BFE100
0002FF8000FF7002FF6000
00008FE100FF7009FD0000
00001EF700FF702FF60000
000008FD00FF708FD00000
000001FFFFFFFFFF600000
000005FFFFFFFFFFA00000
00000DFE33FF93AFF30000
00006FF700FF702FFB0000
0000DFE100FF7009FF4000
0007FF7000FF7002FFC000
001EFE1000FF70009FF500
008FF70000FF70002FFD00
01EFE10000FF700009FF60
09FF700000FF700002FFD1
2FFE100000FF7000009FF7
ENDCHAR
STARTCHAR uni0417
ENCODING 1047
SWIDTH 517 0
DWIDTH 15 0
BBX 13 20 1 0
BITMAP
0017CEFD930000
02CFFFFFFF6000
0CFF9437EFF300
4FF800003FFA00
8FF100000AFE00
3650000008FF00
0000000009FE00
000000001DF900
00000013BFE200
00009FFFFD3000
00009FFFFD5000
00001235BFF500
000000000BFD00
0000000005FF20
8A70000004FF40
BFD0000006FF30
7FF600001CFE00
1EFF8336DFF600
03DFFFFFFF8000
0017CEFDA30000
ENDCHAR
STARTCHAR uni0418
ENCODING 1048
SWIDTH 619 0
DWIDTH 17 0
BBX 13 20 2 0
BITMAP
BFC0000000BFF0
BFC0000003FFF0
BFC000000BFFF0
BFC000004FFFF0
BFC00000BFEFF0
BFC00004FF9FF0
BFC0000BF97FF0
BFC0004FF17FF0
BFC000BF807FF0
BFC004FE107FF0
BFC00BF8007FF0
BFC04FE1007FF0
BFC0CF80007FF0
BFC4FE10007FF0
BFCCF800007FF0
BFEFE100007FF0
BFFF8000007FF0
BFFE1000007FF0
BFF80000007FF0
BFE10000007FF0
ENDCHAR
STARTCHAR uni0419
ENCODING 1049
SWIDTH 619 0
DWIDTH 17 0
BBX 13 25 2 0
BITMAP
00497000397000
003FE1009F9000
000BFEACFE2000
00007CEDA20000
00000000000000
BFC0000000BFF0
BFC0000003FFF0
BFC000000BFFF0
BFC000004FFFF0
BFC00000BFEFF0
BFC00004FF9FF0
BFC0000BF97FF0
BFC0004FF17FF0
BFC000BF807FF0
BFC004FE107FF0
BFC00BF8007FF0
BFC04FE1007FF0
BFC0CF80007FF0
BFC4FE10007FF0
BFCCF800007FF0
BFEFE100007FF0
BFFF8000007FF0
BFFE1000007FF0
BFF80000007FF0
BFE10000007FF0
ENDCHAR
STARTCHAR uni041A
ENCODING 1050
SWIDTH 560 0
DWIDTH 16 0
BBX 14 20 2 0
BITMAP
BFC0000007FFA0
BFC000003FFD10
BFC00000CFF400
BFC00008FF8000
BFC0004FFC0000
BFC001DFE20000
BFC00AFF600000
BFC05FFA000000
BFFFFFE1000000
BFFFFFF2000000
BFC34FFB000000
BFC009FF500000
BFC001EFD10000
BFC0006FF80000
BFC0000CFF2000
BFC00003FFB000
BFC00000AFF500
BFC000001EFE10
BFC0000007FF90
BFC0000000DFF3
ENDCHAR
STARTCHAR uni041B
ENCODING 1051
SWIDTH 615 0
DWIDTH 17 0
BBX 15 20 0 0
BITMAP
00008FFFFFFFFFE0
00009FFFFFFFFFE0
00009FD22222AFE0
0000AFC000009FE0
0000AFC000009FE0
0000BFB000009FE0
0000BFB000009FE0
0000CFA000009FE0
0000CFA000009FE0
0000DF9000009FE0
0000DF8000009FE0
0000EF8000009FE0
0000FF7000009FE0
0001FF5000009FE0
0003FF3000009FE0
0007FF1000009FE0
000CFB0000009FE0
03AFF60000009FE0
2FFFB00000009FE0
2FD8100000009FE0
ENDCHAR
STARTCHAR uni041C
ENCODING 1052
SWIDTH 755 0
DWIDTH 21 0
BBX 17 20 2 0
BITMAP
DFF80000000006FFF0
DFFD000000000BFFF0
DFFF300000001FFFF0
DFFF700000005FFFF0
DFEFC0000000AFEFF0
DFAFF2000000EFAFF0
DF7DF7000005FF6FF0
DF89FB000009FA6FF0
DF84FF10000EF56FF0
DF90DF60004FF17FF0
DF909FB0009FA07FF0
DFA04FF100DF507FF0
DFA00DF503FF108FF0
DFA009FA08FA008FF0
DFA004FE0DF5008FF0
DFA000DF7FF1008FF0
DFA0009FFFA0008FF0
DFA0004FFF50008FF0
DFA0000EFF10008FF0
DFA00009FA00008FF0
ENDCHAR
STARTCHAR uni041D
ENCODING 1053
SWIDTH 620 0
DWIDTH 17 0
BBX 14 20 2 0
BITMAP
DFA00000005FF3
DFA00000005FF3
DFA00000005FF3
DFA00000005FF3
DFA00000005FF3
DFA00000005FF3
DFA00000005FF3
DFA00000005FF3
DFA00000005FF3
DFFFFFFFFFFFF3
DFFFFFFFFFFFF3
DFB22222227FF3
DFA00000005FF3
DFA00000005FF3
DFA00000005FF3
DFA00000005FF3
DFA00000005FF3
DFA00000005FF3
DFA00000005FF3
DFA00000005FF3
ENDCHAR
STARTCHAR uni041E
ENCODING 1054
SWIDTH 600 0
DWIDTH 17 0
BBX 15 20 1 0
BITMAP
00006BEFEA400000
001BFFFFFFF90000
00BFFB546CFF8000
05FF800000AFF200
0BFD0000001FF800
0FF80000000BFC00
3FF500000008FF00
4FF400000007FF10
4FF300000006FF10
4FF300000006FF10
4FF300000006FF10
4FF300000006FF10
4FF400000007FF10
3FF500000008FF00
0FF80000000BFC00
0BFD0000001FF800
05FF800000AFF200
00BFFA546BFF9000
001BFFFFFFFA0000
00005BEFEA500000
ENDCHAR
STARTCHAR uni041F
ENCODING 1055
SWIDTH 620 0
DWIDTH 17 0
BBX 14 20 2 0
BITMAP
BFFFFFFFFFFFF1
BFFFFFFFFFFFF1
BFC22222228FF1
BFC00000007FF1
BFC00000007FF1
BFC00000007FF1
BFC00000007FF1
BFC00000007FF1
BFC00000007FF1
BFC00000007FF1
BFC00000007FF1
BFC00000007FF1
BFC00000007FF1
BFC00000007FF1
BFC00000007FF1
BFC00000007FF1
BFC00000007FF1
BFC00000007FF1
BFC00000007FF1
BFC00000007FF1
ENDCHAR
STARTCHAR uni0420
ENCODING 1056
SWIDTH 554 0
DWIDTH 16 0
BBX 13 20 2 0
BITMAP
DFFFFFFEB50000
DFFFFFFFFF9000
DFB22235CFF700
DFA000000DFE10
DFA0000005FF40
DFA0000002FF60
DFA0000002FF60
DFA0000004FF50
DFA000000AFF10
DFA000039FFA00
DFFFFFFFFFC100
DFFFFFFFD81000
DFB22221000000
DFA00000000000
DFA00000000000
DFA00000000000
DFA00000000000
DFA00000000000
DFA00000000000
DFA00000000000
ENDCHAR
STARTCHAR uni0421
ENCODING 1057
SWIDTH 566 0
DWIDTH 16 0
BBX 14 20 1 0
BITMAP
00005BEFEB5000
001BFFFFFFF900
00AFFA434BFF70
05FF800000BFE1
0BFD0000004FF5
0FF80000001FF8
3FF500000009A6
4FF40000000000
4FF30000000000
4FF30000000000
4FF30000000000
4FF30000000000
4FF40000000000
3FF50000000895
0FF80000001FF7
0BFD0000004FF4
05FF600000BFE1
00BFF9324BFF60
001BFFFFFFF800
00006BEFDA4000
ENDCHAR
STARTCHAR uni0422
ENCODING 1058
SWIDTH 520 0
DWIDTH 15 0
BBX 14 20 0 0
BITMAP
3FFFFFFFFFFFFC
3FFFFFFFFFFFFC
022222EF922222
000000EF800000
000000EF800000
000000EF800000
000000EF800000
000000EF800000
000000EF800000
000000EF800000
000000EF800000
000000EF800000
000000EF800000
000000EF800000
000000EF800000
000000EF800000
000000EF800000
000000EF800000
000000EF800000
000000EF800000
ENDCHAR
STARTCHAR uni0423
ENCODING 1059
SWIDTH 547 0
DWIDTH 15 0
BBX 14 20 1 0
BITMAP
8FF3000000BFF3
3FF9000001FFD0
0CFE000005FF70
06FF40000AFF20
01FF90001EFC00
00AFE0005FF700
005FF500AFF100
000EFA00EFB000
0008FE14FF6000
0003FF59FF1000
0000CFBEFA0000
00006FFFF50000
00001FFFE10000
00000AFFA00000
000005FF400000
000009FE000000
00000EF9000000
00229FF2000000
009FFF90000000
009FD800000000
ENDCHAR
STARTCHAR uni0424
ENCODING 1060
SWIDTH 676 0
DWIDTH 19 0
BBX 17 22 1 -1
BITMAP
0000000AFC00000000
0000000AFC00000000
0000000AFC00000000
00017CEFFFFC710000
002DFFFFFFFFFD2000
01DFD52AFC25DFE200
09FD100AFC001DFA00
1FF5000AFC0004FF20
6FE0000AFC0000DF70
9FB0000AFC0000AFA0
AFA0000AFC00009FC0
AFA0000AFC00009FC0
9FB0000AFC0000BFA0
6FE0000AFC0000EF70
1FF5000AFC0004FF20
09FD100AFC001DFA00
01DFD52AFC25DFE200
002DFFFFFFFFFD2000
00017CFFFFFC710000
0000000AFC00000000
0000000AFC00000000
0000000AFC00000000
ENDCHAR
STARTCHAR uni0425
ENCODING 1061
SWIDTH 550 0
DWIDTH 15 0
BBX 14 20 1 0
BITMAP
AFF3000000BFF3
3FFB000004FFA0
0AFF30000BFF20
02FFA0003FF900
009FF300BFF200
002FFA03FF8000
0008FF2AFE1000
0001EFCFF80000
00007FFFE10000
00001EFF700000
00001EFF800000
00009FFFF20000
0002FFBFF90000
000AFF29FF2000
003FF902FFA000
00AFF200AFF300
03FF90002FFA00
0BFF20000AFF30
4FF9000003FFB0
CFF2000000AFF4
ENDCHAR
STARTCHAR uni0426
ENCODING 1062
SWIDTH 639 0
DWIDTH 18 0
BBX 15 25 2 -5
BITMAP
BFC00000007FF100
BFC00000007FF100
BFC00000007FF100
BFC00000007FF100
BFC00000007FF100
BFC00000007FF100
BFC00000007FF100
BFC00000007FF100
BFC00000007FF100
BFC00000007FF100
BFC00000007FF100
BFC00000007FF100
BFC00000007FF100
BFC00000007FF100
BFC00000007FF100
BFC00000007FF100
BFC00000007FF100
BFC22222228FF430
BFFFFFFFFFFFFFD0
BFFFFFFFFFFFFFC0
0000000000009FC0
0000000000009FB0
0000000000009FB0
0000000000009FA0
0000000000009FA0
ENDCHAR
STARTCHAR uni0427
ENCODING 1063
SWIDTH 600 0
DWIDTH 17 0
BBX 14 20 1 0
BITMAP
1FF60000000FF8
1FF60000000FF8
1FF60000000FF8
1FF60000000FF8
1FF60000000FF8
1FF60000000FF8
1FF70000000FF8
0FF80000000FF8
0CFC0000000FF8
07FF9201259FF8
00CFFFFFFFFFF8
0018DFFFFC9FF8
00000121000FF8
00000000000FF8
00000000000FF8
00000000000FF8
00000000000FF8
00000000000FF8
00000000000FF8
00000000000FF8
ENDCHAR
STARTCHAR uni0428
ENCODING 1064
SWIDTH 814 0
DWIDTH 23 0
BBX 19 20 2 0
BITMAP
BFC00000CFA00000FF80
BFC00000CFA00000FF80
BFC00000CFA00000FF80
BFC00000CFA00000FF80
BFC00000CFA00000FF80
BFC00000CFA00000FF80
BFC00000CFA00000FF80
BFC00000CFA00000FF80
BFC00000CFA00000FF80
BFC00000CFA00000FF80
BFC00000CFA00000FF80
BFC00000CFA00000FF80
BFC00000CFA00000FF80
BFC00000CFA00000FF80
BFC00000CFA00000FF80
BFC00000CFA00000FF80
BFC00000CFA00000FF80
BFC22222DFB22222FF80
BFFFFFFFFFFFFFFFFF80
BFFFFFFFFFFFFFFFFF80
ENDCHAR
STARTCHAR uni0429
ENCODING 1065
SWIDTH 841 0
DWIDTH 24 0
BBX 21 25 2 -5
BITMAP
BFC00000CFA00000FF8000
BFC00000CFA00000FF8000
BFC00000CFA00000FF8000
BFC00000CFA00000FF8000
BFC00000CFA00000FF8000
BFC00000CFA00000FF8000
BFC00000CFA00000FF8000
BFC00000CFA00000FF8000
BFC00000CFA00000FF8000
BFC00000CFA00000FF8000
BFC00000CFA00000FF8000
BFC00000CFA00000FF8000
BFC00000CFA00000FF8000
BFC00000CFA00000FF8000
BFC00000CFA00000FF8000
BFC00000CFA00000FF8000
BFC00000CFA00000FF8000
BFC22222DFB22222FF9100
BFFFFFFFFFFFFFFFFFFF40
BFFFFFFFFFFFFFFFFFFF30
000000000000000002FF30
000000000000000002FF20
000000000000000002FF20
000000000000000002FF10
000000000000000002FF10
ENDCHAR
STARTCHAR uni042A
ENCODING 1066
SWIDTH 651 0
DWIDTH 18 0
BBX 18 20 0 0
BITMAP
6FFFFFF70000000000
6FFFFFF70000000000
01112FF70000000000
00001FF70000000000
00001FF70000000000
00001FF70000000000
00001FF70000000000
00001FF70000000000
00001FFFFFFFEA4000
00001FFFFFFFFFF800
00001FF822235DFF50
00001FF7000001EFC0
00001FF70000008FF1
00001FF70000006FF2
00001FF70000006FF2
00001FF70000009FF0
00001FF7000001EFB0
00001FF822225DFF40
00001FFFFFFFFFF700
00001FFFFFFFEA4000
ENDCHAR
STARTCHAR uni042B
ENCODING 1067
SWIDTH 755 0
DWIDTH 21 0
BBX 17 20 2 0
BITMAP
BFC00000000000BFC0
BFC00000000000BFC0
BFC00000000000BFC0
BFC00000000000BFC0
BFC00000000000BFC0
BFC00000000000BFC0
BFC00000000000BFC0
BFC00000000000BFC0
BFFFFFFEC60000BFC0
BFFFFFFFFFC100BFC0
BFC22224AFFA00BFC0
BFC000000AFF20BFC0
BFC0000003FF60BFC0
BFC0000001FF70BFC0
BFC0000001FF70BFC0
BFC0000004FF50BFC0
BFC000000BFF10BFC0
BFC22223AFF900BFC0
BFFFFFFFFFB100BFC0
BFFFFFFEC60000BFC0
ENDCHAR
STARTCHAR uni042C
ENCODING 1068
SWIDTH 551 0
DWIDTH 15 0
BBX 13 20 2 0
BITMAP
EF900000000000
EF900000000000
EF900000000000
EF900000000000
EF900000000000
EF900000000000
EF900000000000
EF900000000000
EFFFFFFEB50000
EFFFFFFFFFA000
EFA22224BFF700
EF9000000DFE00
EF90000006FF30
EF90000004FF40
EF90000004FF40
EF90000007FF20
EF9000001DFD00
EFA22224CFF600
EFFFFFFFFF9000
EFFFFFFEB50000
ENDCHAR
STARTCHAR uni042D
ENCODING 1069
SWIDTH 589 0
DWIDTH 17 0
BBX 13 20 2 0
BITMAP
0006CEED810000
01CFFFFFFE4000
0BFF8336EFE300
4FF700002EFC00
9FE0000006FF40
DFA0000000EF90
8840000000BFC0
00000000009FE0
00000000008FF0
0000EFFFFFFFF0
0000EFFFFFFFF0
00002222229FF0
00000000008FE0
6740000000AFC0
DFA0000000EF80
9FE0000004FF40
4FF600001DFC00
0BFF9435DFF300
01BFFFFFFE4000
0006BEFD920000
ENDCHAR
STARTCHAR uni042E
ENCODING 1070
SWIDTH 765 0
DWIDTH 21 0
BBX 19 20 2 0
BITMAP
BFC0000039DEEC600000
BFC00007FFFFFFFC2000
BFC0006FFD745AFFC000
BFC001EFC100006FF700
BFC006FF3000000BFD00
BFC00BFD00000006FF10
BFC00DF900000004FF40
BFC00EF800000002FF50
BFC00FF800000002FF60
BFFFFFF800000002FF60
BFFFFFF800000002FF60
BFC11FF800000002FF60
BFC00EF800000002FF50
BFC00DFA00000003FF40
BFC00AFD00000006FF20
BFC006FF3000000BFD00
BFC001EFC100005FF700
BFC0006FFD6459FFD000
BFC00007FFFFFFFD2000
BFC0000039DFEC700000
ENDCHAR
STARTCHAR uni042F
ENCODING 1071
SWIDTH 562 0
DWIDTH 16 0
BBX 13 20 1 0
BITMAP
00029DFFFFFF50
006FFFFFFFFF50
03FFE63225FF50
0AFF300003FF50
0EFA000003FF50
1FF8000003FF50
0FF8000003FF50
0EFA000003FF50
09FF200003FF50
02EFD41003FF50
003DFFFFFFFF50
0001EFFFFFFF50
0005FF5224FF50
000CFC0003FF50
003FF50003FF50
00AFD00003FF50
02FF700003FF50
09FF100003FF50
1EF9000003FF50
7FF3000003FF50
ENDCHAR
STARTCHAR uni0430
ENCODING 1072
SWIDTH 479 0
DWIDTH 13 0
BBX 11 15 1 0
BITMAP
0017CEEC6000
01DFFFFFF800
0AFE623BFF20
1FF60001FF60
15510000EF70
00000000EF70
0017CEFFFF70
02DFFECCFF70
0DFD5000EF70
4FF40000EF70
6FF00000EF70
6FF20003FF70
2FFC448EFF80
09FFFFFCDF90
007DFE91BFD0
ENDCHAR
STARTCHAR uni0431
ENCODING 1073
SWIDTH 484 0
DWIDTH 14 0
BBX 12 21 1 0
BITMAP
000000005FA0
00000005EF80
00004AFFFE10
0009FFFE9200
008FFA400000
03FE40000000
0AF500000000
0ED18DFD8100
3FADFFFFFC10
6FFF8229FF80
8FF80000AFE1
9FF200003FF4
9FE000000FF7
9FC000000EF8
9FD000000EF7
8FE000000FF6
4FF200004FF3
0EF90000AFD0
07FF8229FF60
00AFFFFFF900
0006CEEB5000
ENDCHAR
STARTCHAR uni0432
ENCODING 1074
SWIDTH 503 0
DWIDTH 14 0
BBX 11 15 2 0
BITMAP
FFFFFFDA3000
FFFFFFFFF500
FF71115DFE00
FF700005FF20
FF700004FF20
FF70014DFB00
FFFFFFFFA100
FFFFFFFFE400
FF70012AFF20
FF700000EF70
FF700000CF90
FF700000EF80
FF70002AFF40
FFFFFFFFFA00
FFFFFFEC6000
ENDCHAR
STARTCHAR uni0433
ENCODING 1075
SWIDTH 371 0
DWIDTH 10 0
BBX 8 15 2 0
BITMAP
FFFFFFFE
FFFFFFFE
FF711111
FF700000
FF700000
FF700000
FF700000
FF700000
FF700000
FF700000
FF700000
FF700000
FF700000
FF700000
FF700000
ENDCHAR
STARTCHAR uni0434
ENCODING 1076
SWIDTH 536 0
DWIDTH 15 0
BBX 15 19 0 -4
BITMAP
0000EFFFFFFF5000
0000FFFFFFFF5000
0000FF9556FF5000
0001FF6001FF5000
0001FF5001FF5000
0002FF5001FF5000
0002FF4001FF5000
0004FF2001FF5000
0005FF1001FF5000
0008FC0001FF5000
000DF80001FF5000
005FF30001FF5000
01DFB11112FF5100
3FFFFFFFFFFFFF10
3FFFFFFFFFFFFF10
3FF300000006FF10
3FF300000006FF10
3FF300000006FF10
3FF300000006FF10
ENDCHAR
STARTCHAR uni0435
ENCODING 1077
SWIDTH 468 0
DWIDTH 13 0
BBX 11 15 1 0
BITMAP
0017CEEC6000
01CFFFFFF900
09FE623AFF30
1FF50000DF90
6FE000008FC0
8FC000006FE0
9FFFFFFFFFF0
AFFFFFFFFFF0
AFC111111110
9FD000000000
7FF100000000
3FF700000600
0BFF7214AF90
02DFFFFFFE40
0018CEED9200
ENDCHAR
STARTCHAR uni0436
ENCODING 1078
SWIDTH 662 0
DWIDTH 19 0
BBX 18 15 0 0
BITMAP
0DFE1000EF70008FF5
04FF7000EF7001EFC0
00BFE100EF7008FF30
003FF700EF701EFA00
0009FE00EF707FF200
0001EF60EF71EF8000
00007FFFFFFFFE1000
00008FFFFFFFFE1000
0001EF94FF94EF8000
0009FF10EF709FF200
002FF900EF702FF900
00AFF200EF700AFF20
03FFA000EF7003FFA0
0BFF3000EF7000BFF3
4FFC0000EF70004FFB
ENDCHAR
STARTCHAR uni0437
ENCODING 1079
SWIDTH 446 0
DWIDTH 13 0
BBX 11 15 1 0
BITMAP
004BEFD92000
07FFFFFFE200
2FFB316FF900
7FF1000AFD00
24400009FC00
0000004EF700
000CFFFF9000
000CFFFFA100
0002225EF900
00000007FF00
68600005FF10
9FD00008FF00
4FFA216FFA00
09FFFFFFE200
005BEFD91000
ENDCHAR
STARTCHAR uni0438
ENCODING 1080
SWIDTH 509 0
DWIDTH 14 0
BBX 11 15 2 0
BITMAP
FF700007FF30
FF70000EFF30
FF70006FFF30
FF7000DFFF30
FF7006FCFF30
FF700DF5FF30
FF706F93FF30
FF70DF23FF30
FF75F903FF30
FF7DF203FF30
FFCFA003FF30
FFFF2003FF30
FFFA0003FF30
FFF30003FF30
FFA00003FF30
ENDCHAR
STARTCHAR uni0439
ENCODING 1081
SWIDTH 509 0
DWIDTH 14 0
BBX 11 20 2 0
BITMAP
099100089200
0CF6003FF100
04FFBAEF8000
003BEEC50000
000000000000
FF700007FF30
FF70000EFF30
FF70006FFF30
FF7000DFFF30
FF7006FCFF30
FF700DF5FF30
FF706F93FF30
FF70DF23FF30
FF75F903FF30
FF7DF203FF30
FFCFA003FF30
FFFF2003FF30
FFFA0003FF30
FFF30003FF30
FFA00003FF30
ENDCHAR
STARTCHAR uni043A
ENCODING 1082
SWIDTH 479 0
DWIDTH 13 0
BBX 11 15 2 0
BITMAP
FF70000AFF30
FF70005FF700
FF7001EFB000
FF700AFE2000
FF705FF50000
FF71EF900000
FFFFFD000000
FFFFFE200000
FF94EFB00000
FF706FF60000
FF700CFE1000
FF7003FFA000
FF70009FF500
FF70001EFE10
FF700006FF90
ENDCHAR
STARTCHAR uni043B
ENCODING 1083
SWIDTH 509 0
DWIDTH 14 0
BBX 13 15 0 0
BITMAP
0006FFFFFFFF40
0007FFFFFFFF40
0007FE1114FF40
0008FD0003FF40
0008FC0003FF40
0009FB0003FF40
0009FB0003FF40
000AFA0003FF40
000BF90003FF40
000DF70003FF40
000FF50003FF40
004FF20003FF40
15DFD00003FF40
3FFF500003FF40
3FD6000003FF40
ENDCHAR
STARTCHAR uni043C
ENCODING 1084
SWIDTH 645 0
DWIDTH 18 0
BBX 14 15 2 0
BITMAP
FFF50000002FFF
FFFA0000007FFF
FFFE000000CFFF
FFFF500002FFFF
FFEFA00008FFFF
FF9FE1000DFAFF
FF7CF5003FE6FF
FF77FA008F96FF
FF71FE10DF46FF
FF70BF53FD06FF
FF706FA8F806FF
FF701EFEF206FF
FF700AFFC006FF
FF7004FF7006FF
FF7000EF1006FF
ENDCHAR
STARTCHAR uni043D
ENCODING 1085
SWIDTH 508 0
DWIDTH 14 0
BBX 11 15 2 0
BITMAP
FF700003FF30
FF700003FF30
FF700003FF30
FF700003FF30
FF700003FF30
FF700003FF30
FFFFFFFFFF30
FFFFFFFFFF30
FF711114FF30
FF700003FF30
FF700003FF30
FF700003FF30
FF700003FF30
FF700003FF30
FF700003FF30
ENDCHAR
STARTCHAR uni043E
ENCODING 1086
SWIDTH 501 0
DWIDTH 14 0
BBX 12 15 1 0
BITMAP
0006CEEC6000
01BFFFFFFB10
09FF8228FF90
2FF900008FF2
6FF200001FF7
9FD000000CFA
AFB000000BFB
BFB000000AFB
AFB000000AFB
9FD000000BFA
6FF200000EF7
2FF800006FF2
09FF8226EFA0
01BFFFFFFC10
0006CEEC7000
ENDCHAR
STARTCHAR uni043F
ENCODING 1087
SWIDTH 509 0
DWIDTH 14 0
BBX 11 15 2 0
BITMAP
FFFFFFFFFF30
FFFFFFFFFF30
FF811114FF30
FF700003FF30
FF700003FF30
FF700003FF30
FF700003FF30
FF700003FF30
FF700003FF30
FF700003FF30
FF700003FF30
FF700003FF30
FF700003FF30
FF700003FF30
FF700003FF30
ENDCHAR
STARTCHAR uni0440
ENCODING 1088
SWIDTH 493 0
DWIDTH 14 0
BBX 12 21 1 -6
BITMAP
3FF16DFEA200
3FFAFFFFFE20
3FFF8338FFB0
3FF700009FF1
3FF300003FF4
3FF300000FF6
3FF300000EF7
3FF300000EF8
3FF300000EF7
3FF300000FF6
3FF300003FF4
3FF600008FF1
3FFE6227FFA0
3FFCFFFFFE20
3FF47DFEA200
3FF300000000
3FF300000000
3FF300000000
3FF300000000
3FF300000000
3FF300000000
ENDCHAR
STARTCHAR uni0441
ENCODING 1089
SWIDTH 461 0
DWIDTH 13 0
BBX 11 15 1 0
BITMAP
0018DEEC5000
02DFFFFFF800
0BFE6239FF40
3FF50000CFA0
7FE000007FD0
9FC000002550
AFB000000000
AFB000000000
AFB000000000
9FC000000000
7FE000006EC0
3FF40000BFA0
0CFE5228FF40
02DFFFFFF800
0018DEEB5000
ENDCHAR
STARTCHAR uni0442
ENCODING 1090
SWIDTH 424 0
DWIDTH 12 0
BBX 12 15 0 0
BITMAP
4FFFFFFFFFF2
4FFFFFFFFFF2
01115FF21110
00004FF20000
00004FF20000
00004FF20000
00004FF20000
00004FF20000
00004FF20000
00004FF20000
00004FF20000
00004FF20000
00004FF20000
00004FF20000
00004FF20000
ENDCHAR
STARTCHAR uni0443
ENCODING 1091
SWIDTH 416 0
DWIDTH 12 0
BBX 11 21 0 -6
BITMAP
6FF400009FE0
1FF80000CFA0
0CFB0001FF60
07FF0005FF20
03FF4008FD00
00EF800CF800
009FB01FF400
005FF05FE000
001FF48FB000
000BF8CF6000
0007FCFF2000
0002FFFD0000
0000DFF90000
00009FF40000
00004FF10000
00005FB00000
0000AF700000
0002FF200000
035CFB000000
0CFFE2000000
0AEB30000000
ENDCHAR
STARTCHAR uni0444
ENCODING 1092
SWIDTH 628 0
DWIDTH 18 0
BBX 16 27 1 -6
BITMAP
0000008FE0000000
0000008FE0000000
0000008FE0000000
0000008FE0000000
0000008FE0000000
0000008FE0000000
002AEEDFFCFD7000
01EFFFFFFFFFF900
09FF629FE23BFF30
1FF8008FE001EF90
4FF2008FE0009FD0
7FE0008FE0005FF1
9FD0008FE0003FF2
9FC0008FE0003FF3
9FC0008FE0003FF3
8FD0008FE0004FF2
6FF1008FE0007FF0
2FF6008FE000DFB0
0BFE519FE22AFF50
03EFFFFFFFFFFB00
003BEEDFFDFE8100
0000008FE0000000
0000008FE0000000
0000008FE0000000
0000008FE0000000
0000008FE0000000
0000008FE0000000
ENDCHAR
STARTCHAR uni0445
ENCODING 1093
SWIDTH 438 0
DWIDTH 12 0
BBX 12 15 0 0
BITMAP
0DFC00009FF2
06FF4002FF90
00CFB008FE20
004FF31EF800
000BFA7FE100
0003FFEF6000
0000AFFD0000
00005FF80000
0000BFFE1000
0005FFDF8000
000CF95FE200
006FF20DF900
01DFA006FF20
07FF3001EFA0
1EFB00008FF4
ENDCHAR
STARTCHAR uni0446
ENCODING 1094
SWIDTH 524 0
DWIDTH 15 0
BBX 12 19 2 -4
BITMAP
FF700003FF30
FF700003FF30
FF700003FF30
FF700003FF30
FF700003FF30
FF700003FF30
FF700003FF30
FF700003FF30
FF700003FF30
FF700003FF30
FF700003FF30
FF700003FF30
FF711114FF41
FFFFFFFFFFFB
FFFFFFFFFFFB
0000000009FA
0000000009F9
0000000009F9
0000000009F8
ENDCHAR
STARTCHAR uni0447
ENCODING 1095
SWIDTH 479 0
DWIDTH 13 0
BBX 11 15 1 0
BITMAP
9FD00000FF60
9FD00000FF60
9FD00000FF60
9FD00000FF60
9FD00000FF60
8FE00000FF60
5FF30000FF60
1EFC2025FF60
06FFFFFFFF60
005CFFFCFF60
00000100FF60
00000000FF60
00000000FF60
00000000FF60
00000000FF60
ENDCHAR
STARTCHAR uni0448
ENCODING 1096
SWIDTH 703 0
DWIDTH 20 0
BBX 16 15 2 0
BITMAP
FF70006FF0000CFA
FF70006FF0000CFA
FF70006FF0000CFA
FF70006FF0000CFA
FF70006FF0000CFA
FF70006FF0000CFA
FF70006FF0000CFA
FF70006FF0000CFA
FF70006FF0000CFA
FF70006FF0000CFA
FF70006FF0000CFA
FF70006FF0000CFA
FF71116FF1111CFA
FFFFFFFFFFFFFFFA
FFFFFFFFFFFFFFFA
ENDCHAR
STARTCHAR uni0449
ENCODING 1097
SWIDTH 722 0
DWIDTH 20 0
BBX 19 19 1 -4
BITMAP
2FF50008FD0000EF7000
2FF50008FD0000EF7000
2FF50008FD0000EF7000
2FF50008FD0000EF7000
2FF50008FD0000EF7000
2FF50008FD0000EF7000
2FF50008FD0000EF7000
2FF50008FD0000EF7000
2FF50008FD0000EF7000
2FF50008FD0000EF7000
2FF50008FD0000EF7000
2FF50008FD0000EF7000
2FF51118FD1111EF8100
2FFFFFFFFFFFFFFFFF50
2FFFFFFFFFFFFFFFFF40
0000000000000001FF30
0000000000000001FF30
0000000000000001FF20
0000000000000001FF20
ENDCHAR
STARTCHAR uni044A
ENCODING 1098
SWIDTH 538 0
DWIDTH 15 0
BBX 15 15 0 0
BITMAP
6FFFFF9000000000
6FFFFF9000000000
0111CF9000000000
0000CF9000000000
0000CF9000000000
0000CFFFFFEA2000
0000CFFFFFFFE300
0000CF91115EFC00
0000CF900007FF20
0000CF900003FF40
0000CF900003FF40
0000CF900007FF10
0000CF91115EFB00
0000CFFFFFFFE200
0000CFFFFFE92000
ENDCHAR
STARTCHAR uni044B
ENCODING 1099
SWIDTH 679 0
DWIDTH 19 0
BBX 15 15 2 0
BITMAP
FF7000000000CF90
FF7000000000CF90
FF7000000000CF90
FF7000000000CF90
FF7000000000CF90
FFFFFFD91000CF90
FFFFFFFFD100CF90
FF71116FF900CF90
FF700009FE00CF90
FF700006FF10CF90
FF700006FF10CF90
FF700009FE00CF90
FF71116FF800CF90
FFFFFFFFD100CF90
FFFFFFD81000CF90
ENDCHAR
STARTCHAR uni044C
ENCODING 1100
SWIDTH 478 0
DWIDTH 13 0
BBX 11 15 2 0
BITMAP
FF7000000000
FF7000000000
FF7000000000
FF7000000000
FF7000000000
FFFFFFD91000
FFFFFFFFD100
FF71116FF900
FF700009FE00
FF700006FF10
FF700006FF10
FF700009FE00
FF71116FF800
FFFFFFFFD100
FFFFFFD81000
ENDCHAR
STARTCHAR uni044D
ENCODING 1101
SWIDTH 472 0
DWIDTH 13 0
BBX 11 15 1 0
BITMAP
0029EFC70000
04EFFFFFB000
1EFC426FF700
6FE10008FE10
59700001FF50
00000000DF80
0000FFFFFFA0
0000FFFFFFB0
00001111CFA0
24200000EF80
8FC00003FF50
5FF20009FE10
1EFD417FF700
04EFFFFFA000
003AEEC60000
ENDCHAR
STARTCHAR uni044E
ENCODING 1102
SWIDTH 706 0
DWIDTH 20 0
BBX 17 15 2 0
BITMAP
FF7000007CFEB40000
FF70001CFFFFFF7000
FF7000AFF723AFF400
FF7003FF80000CFC00
FF7008FF100005FF20
FF700BFC000001FF60
FFFFFFFA000000EF80
FFFFFFF9000000DF80
FF711CFA000000EF80
FF700AFC000001FF60
FF7006FF100005FF30
FF7001EF70000CFC00
FF70007FF722AFF400
FF70000AFFFFFF7000
FF7000006CEEB40000
ENDCHAR
STARTCHAR uni044F
ENCODING 1103
SWIDTH 482 0
DWIDTH 14 0
BBX 12 15 0 0
BITMAP
0005BEFFFFF7
008FFFFFFFF7
03FFB3111EF7
08FE10000EF7
09FC00000EF7
08FE00000EF7
04FF91000EF7
00AFFFFFFFF7
0008FFFFFFF7
0009FE211EF7
002FF7000EF7
009FE1000EF7
02FF70000EF7
0AFE10000EF7
2FF700000EF7
ENDCHAR
STARTCHAR uni0450
ENCODING 1104
SWIDTH 468 0
DWIDTH 13 0
BBX 11 21 1 0
BITMAP
02EFD1000000
003EFA000000
0005FF700000
00006DA00000
000000000000
000000000000
0017CEEC6000
01CFFFFFF900
09FE623AFF30
1FF50000DF90
6FE000008FC0
8FC000006FE0
9FFFFFFFFFF0
AFFFFFFFFFF0
AFC111111110
9FD000000000
7FF100000000
3FF700000600
0BFF7214AF90
02DFFFFFFE40
0018CEED9200
ENDCHAR
STARTCHAR uni0451
ENCODING 1105
SWIDTH 468 0
DWIDTH 13 0
BBX 11 20 1 0
BITMAP
03CB1004C900
09FF400BFF30
04EC1006EB00
000000000000
000000000000
0017CEEC6000
01CFFFFFF900
09FE623AFF30
1FF50000DF90
6FE000008FC0
8FC000006FE0
9FFFFFFFFFF0
AFFFFFFFFFF0
AFC111111110
9FD000000000
7FF100000000
3FF700000600
0BFF7214AF90
02DFFFFFFE40
0018CEED9200
ENDCHAR
STARTCHAR uni0452
ENCODING 1106
SWIDTH 482 0
DWIDTH 14 0
BBX 12 27 0 -6
BITMAP
03FF30000000
03FF30000000
FFFFFFF60000
FFFFFFF60000
14FF41100000
03FF30000000
03FF35CFE910
03FFBFFFFFC0
03FFFA33AFF5
03FFB0000EF8
03FF40000BFA
03FF30000AFB
03FF30000AFB
03FF30000AFB
03FF30000AFB
03FF30000AFB
03FF30000AFB
03FF30000AFB
03FF30000AFB
03FF30000AFB
03FF30000AFB
000000000AFB
000000000AFB
000000000CFA
000000125FF6
0000003FFFD1
0000003EEA20
ENDCHAR
STARTCHAR uni0453
ENCODING 1107
SWIDTH 371 0
DWIDTH 10 0
BBX 8 21 2 0
BITMAP
0001DFE2
000AFE30
006FF400
00AE5000
00000000
00000000
FFFFFFFE
FFFFFFFE
FF711111
FF700000
FF700000
FF700000
FF700000
FF700000
FF700000
FF700000
FF700000
FF700000
FF700000
FF700000
FF700000
ENDCHAR
STARTCHAR uni0454
ENCODING 1108
SWIDTH 472 0
DWIDTH 13 0
BBX 11 15 1 0
BITMAP
0005BEEC6000
009FFFFFF900
06FF8239FF50
0DF90000BFB0
3FF200006FF0
6FE000001440
8FFFFFF20000
8FFFFFF20000
8FE111100000
6FF000000000
3FF400004CC0
0DFA0000AFC0
06FF9229FF40
009FFFFFF800
0005CEEB4000
ENDCHAR
STARTCHAR uni0455
ENCODING 1109
SWIDTH 455 0
DWIDTH 13 0
BBX 11 15 1 0
BITMAP
002AEFEA2000
03EFFFFFE300
0DFD425EFD00
2FF50006FF20
2FF500016610
0EFD40000000
04FFFC610000
003BFFFE6000
000039FFF800
0000002CFF20
59700002FF50
7FF10002FF50
2FFC413BFF10
06FFFFFFF600
003AEFEB4000
ENDCHAR
STARTCHAR uni0456
ENCODING 1110
SWIDTH 229 0
DWIDTH 6 0
BBX 4 20 1 0
BITMAP
0AD3
2FF9
0BE4
0000
0000
0FF6
0FF6
0FF6
0FF6
0FF6
0FF6
0FF6
0FF6
0FF6
0FF6
0FF6
0FF6
0FF6
0FF6
0FF6
ENDCHAR
STARTCHAR uni0457
ENCODING 1111
SWIDTH 234 0
DWIDTH 7 0
BBX 10 20 -2 0
BITMAP
09D6000AC4
1FFC003FFB
0BE7001CE5
0000000000
0000000000
0000FF6000
0000FF6000
0000FF6000
0000FF6000
0000FF6000
0000FF6000
0000FF6000
0000FF6000
0000FF6000
0000FF6000
0000FF6000
0000FF6000
0000FF6000
0000FF6000
0000FF6000
ENDCHAR
STARTCHAR uni0458
ENCODING 1112
SWIDTH 223 0
DWIDTH 6 0
BBX 6 26 -1 -6
BITMAP
001CC1
005FF5
001DD2
000000
000000
002FF4
002FF4
002FF4
002FF4
002FF4
002FF4
002FF4
002FF4
002FF4
002FF4
002FF4
002FF4
002FF4
002FF4
002FF4
002FF4
002FF4
003FF4
13AFF1
5FFFB0
3EEA10
ENDCHAR
STARTCHAR uni0459
ENCODING 1113
SWIDTH 729 0
DWIDTH 20 0
BBX 20 15 0 0
BITMAP
0007FFFFFFFB00000000
0007FFFFFFFB00000000
0008FD111BFB00000000
0008FC000AFB00000000
0009FB000AFB00000000
000AFB000AFB00000000
000AFA000AFFFFFEB400
000BF9000AFFFFFFFF60
000CF8000AFC1113CFE1
000DF7000AFB00003FF5
001FF5000AFB00000FF6
005FF2000AFB00003FF5
15DFC0000AFB0013CFE1
4FFF50000AFFFFFFFF50
4FD600000AFFFFFEB400
ENDCHAR
STARTCHAR uni045A
ENCODING 1114
SWIDTH 743 0
DWIDTH 21 0
BBX 18 15 2 0
BITMAP
FF700003FF30000000
FF700003FF30000000
FF700003FF30000000
FF700003FF30000000
FF700003FF30000000
FF700003FF30000000
FFFFFFFFFFEEEEC700
FFFFFFFFFFFFFFFFB0
FF711114FF52238FF7
FF700003FF30000BFC
FF700003FF300009FD
FF700003FF30000BFB
FF700003FF30017FF7
FF700003FFFFFFFFC0
FF700003FFFFFFD810
ENDCHAR
STARTCHAR uni045B
ENCODING 1115
SWIDTH 499 0
DWIDTH 14 0
BBX 12 21 0 0
BITMAP
03FF30000000
03FF30000000
BFFFFFFB0000
BFFFFFFB0000
14FF41110000
03FF30000000
03FF35CFE910
03FFBFFFFFC0
03FFFA33AFF5
03FFB0000EF8
03FF40000BFA
03FF30000AFB
03FF30000AFB
03FF30000AFB
03FF30000AFB
03FF30000AFB
03FF30000AFB
03FF30000AFB
03FF30000AFB
03FF30000AFB
03FF30000AFB
ENDCHAR
STARTCHAR uni045C
ENCODING 1116
SWIDTH 479 0
DWIDTH 13 0
BBX 11 21 2 0
BITMAP
00000AFF5000
00006FF60000
0003FF800000
0007D9000000
000000000000
000000000000
FF70000AFF30
FF70005FF700
FF7001EFB000
FF700AFE2000
FF705FF50000
FF71EF900000
FFFFFD000000
FFFFFE200000
FF94EFB00000
FF706FF60000
FF700CFE1000
FF7003FFA000
FF70009FF500
FF70001EFE10
FF700006FF90
ENDCHAR
STARTCHAR uni045D
ENCODING 1117
SWIDTH 509 0
DWIDTH 14 0
BBX 11 21 2 0
BITMAP
0AFF50000000
00CFE2000000
001DFC000000
0002DB300000
000000000000
000000000000
FF700007FF30
FF70000EFF30
FF70006FFF30
FF7000DFFF30
FF7006FCFF30
FF700DF5FF30
FF706F93FF30
FF70DF23FF30
FF75F903FF30
FF7DF203FF30
FFCFA003FF30
FFFF2003FF30
FFFA0003FF30
FFF30003FF30
FFA00003FF30
ENDCHAR
STARTCHAR uni045E
ENCODING 1118
SWIDTH 416 0
DWIDTH 12 0
BBX 11 26 0 -6
BITMAP
009910009910
00CF6003FF10
005FFBAEF700
0003BEEC5000
000000000000
6FF400009FE0
1FF80000CFA0
0CFB0001FF60
07FF0005FF20
03FF4008FD00
00EF800CF800
009FB01FF400
005FF05FE000
001FF48FB000
000BF8CF6000
0007FCFF2000
0002FFFD0000
0000DFF90000
00009FF40000
00004FF10000
00005FB00000
0000AF700000
0002FF200000
035CFB000000
0CFFE2000000
0AEB30000000
ENDCHAR
STARTCHAR uni045F
ENCODING 1119
SWIDTH 509 0
DWIDTH 14 0
BBX 11 20 2 -5
BITMAP
FF700003FF30
FF700003FF30
FF700003FF30
FF700003FF30
FF700003FF30
FF700003FF30
FF700003FF30
FF700003FF30
FF700003FF30
FF700003FF30
FF700003FF30
FF700003FF30
FF711114FF30
FFFFFFFFFF30
FFFFFFFFFF30
0001FF500000
0001FF500000
0001FF500000
0001FF500000
0001FF500000
ENDCHAR
STARTCHAR uni0460
ENCODING 1120
SWIDTH 754 0
DWIDTH 21 0
BBX 18 20 2 0
BITMAP
FF80000AFE00003FF4
FF80000AFE00003FF4
FF80000AFE00003FF4
FF80000AFE00003FF4
FF80000AFE00003FF4
FF80000AFE00003FF4
FF80000AFE00003FF4
FF80000AFE00003FF4
FF80000AFE00003FF4
FF80000AFE00003FF4
FF80000AFE00003FF4
FF80000AFE00003FF4
FF80000AFE00003FF4
FF80000AFE00003FF4
FF80000AFF00004FF4
EFA0000CFF10005FF3
BFE0003FFF6000AFE0
5FFA35DFEFE638FF90
0AFFFFFE2CFFFFFD10
007DFEA2019DFD8100
ENDCHAR
STARTCHAR uni0461
ENCODING 1121
SWIDTH 650 0
DWIDTH 18 0
BBX 16 15 1 0
BITMAP
6FF1000FF6000AFB
6FF1000FF6000AFB
6FF1000FF6000AFB
6FF1000FF6000AFB
6FF1000FF6000AFB
6FF1000FF6000AFB
6FF1000FF6000AFB
6FF1000FF6000AFB
6FF1000FF6000AFB
6FF1000FF6000AFB
5FF1002FF7000BFA
3FF4005FFA000EF8
0EFC24DFFF629FF3
05FFFFFD9FFFFF90
005CFE9107DFD700
ENDCHAR
STARTCHAR uni0462
ENCODING 1122
SWIDTH 551 0
DWIDTH 15 0
BBX 16 20 -1 0
BITMAP
000EF90000000000
000EF90000000000
000EF90000000000
6FFFFFFF00000000
6FFFFFFF00000000
011EF91100000000
000EF90000000000
000EF90000000000
000EFFFFFFEB5000
000EFFFFFFFFFA00
000EFA22224BFF70
000EF9000000DFE0
000EF90000006FF3
000EF90000004FF4
000EF90000004FF4
000EF90000007FF2
000EF9000001DFD0
000EFA22224CFF60
000EFFFFFFFFF900
000EFFFFFFEB5000
ENDCHAR
STARTCHAR uni0463
ENCODING 1123
SWIDTH 477 0
DWIDTH 13 0
BBX 14 21 -1 0
BITMAP
000FF600000000
000FF600000000
000FF600000000
000FF600000000
3FFFFFFFF10000
3FFFFFFFF10000
011FF711100000
000FF600000000
000FF600000000
000FF600000000
000FF600000000
000FFFFFFD8100
000FFFFFFFFD10
000FF71127FF90
000FF60000AFE0
000FF600006FF1
000FF600006FF1
000FF600009FE0
000FF71116FF80
000FFFFFFFFC10
000FFFFFFD8100
ENDCHAR
STARTCHAR uni0464
ENCODING 1124
SWIDTH 772 0
DWIDTH 22 0
BBX 18 20 2 0
BITMAP
BFC0000029DFEB5000
BFC00005FFFFFFFA00
BFC0004FFD535AFF80
BFC000DFC100009FF2
BFC005FF4000002FF7
BFC00AFD0000000DFA
BFC00EF90000000686
BFC01FF70000000000
BFC02FF50000000000
BFFFFFFFFFFFF90000
BFFFFFFFFFFFF90000
BFC14FF61111110000
BFC02FF60000000000
BFC01FF80000000575
BFC00CFB0000000DFA
BFC008FF2000002FF7
BFC002FFA000009FF2
BFC0007FFB424AFF80
BFC00008FFFFFFFA00
BFC000004AEFEB5000
ENDCHAR
STARTCHAR uni0465
ENCODING 1125
SWIDTH 646 0
DWIDTH 18 0
BBX 15 15 2 0
BITMAP
FF600007CEEB4000
FF6001CFFFFFF700
FF6009FF723BFF30
FF602FF70000DFA0
FF606FF100007FD0
FF609FD000001430
FFFFFFFFFFF90000
FFFFFFFFFFF90000
FF719FC111110000
FF607FE000000000
FF604FF200005CB0
FF600EF90000BFA0
FF6006FF723AFF30
FF60009FFFFFF600
FF600006CEEA3000
ENDCHAR
STARTCHAR uni0466
ENCODING 1126
SWIDTH 526 0
DWIDTH 15 0
BBX 15 20 0 0
BITMAP
0000006FF1000000
000000BFF5000000
000001FFFA000000
000005FFFE000000
000009FDFF400000
00000EF7DF800000
00003FF39FC00000
00008FE05FF20000
0000CFA01FF60000
0002FF500CFB0000
0006FF1008FF1000
000BFC0003FF4000
001FFFFFFFFF9000
005FFFFFFFFFD000
009FE49FE48FF300
00EFA08FE02FF700
03FF508FE00CFC00
08FF108FE008FF10
0CFB008FE003FF50
2FF7008FE000EFA0
ENDCHAR
STARTCHAR uni0467
ENCODING 1127
SWIDTH 470 0
DWIDTH 13 0
BBX 13 15 0 0
BITMAP
00000BFA000000
00001FFE100000
00006FFF500000
0000BFEFA00000
0001FF8FF10000
0006FE1FF50000
000BF90BFA0000
002FF506FF1000
006FE101FF6000
00CFFFFFFFB000
02FFFFFFFFF100
07FF2BFB2FF600
0CFA0BFB0BFB00
2FF50BFB06FF10
7FF10BFB01FF60
ENDCHAR
STARTCHAR uni0468
ENCODING 1128
SWIDTH 759 0
DWIDTH 21 0
BBX 19 20 2 0
BITMAP
8FF00000005FF2000000
8FF00000009FF7000000
8FF0000000EFFB000000
8FF0000003FFFF100000
8FF0000008FDFF500000
8FF000000CF8CF900000
8FF000001FF48FE00000
8FF000006FE03FF30000
8FF00000AFB00EF70000
8FF00000EF700AFC0000
8FF00004FF2006FF1000
8FF00008FD0002FF6000
8FFFFFFFFFFFFFFFA000
8FFFFFFFFFFFFFFFE000
8FF3339FF49FF47FF400
8FF000CFB07FF01FF800
8FF001FF607FF00BFD00
8FF006FF207FF006FF20
8FF00BFC007FF002FF60
8FF01FF8007FF000DFB0
ENDCHAR
STARTCHAR uni0469
ENCODING 1129
SWIDTH 654 0
DWIDTH 18 0
BBX 16 15 2 0
BITMAP
9FC000009FC00000
9FC00000EFF20000
9FC00004FFF70000
9FC00009FEFC0000
9FC0000EF8FF2000
9FC0004FF1DF7000
9FC0009FB09FD000
9FC000DF704FF300
9FC003FF200EF800
9FFFFFFFFFFFFD00
9FFFFFFFFFFFFF30
9FC15FF39FD1EF80
9FC09FC09FD09FD0
9FC0EF709FD04FF3
9FC4FF209FD00EF8
ENDCHAR
STARTCHAR uni046A
ENCODING 1130
SWIDTH 747 0
DWIDTH 21 0
BBX 18 20 1 0
BITMAP
004FFFFFFFFFFFFF60
000BFFFFFFFFFFFD00
0003FFA222228FF600
0000BFF10000DFD000
00003FF80006FF5000
00000BFE100DFD0000
000003FF705FF50000
000000BFE1CFD00000
0000003FFBFF500000
0005BEFFFFFFFDA400
00AFFFFFFFFFFFFF80
06FFB432CFD235CFF4
0BFD0000BFC0001EFA
0FF80000BFC0000AFD
1FF70000BFC00008FF
1FF60000BFC00008FF
1FF60000BFC00008FF
1FF60000BFC00008FF
1FF60000BFC00008FF
1FF60000BFC00008FF
ENDCHAR
STARTCHAR uni046B
ENCODING 1131
SWIDTH 645 0
DWIDTH 18 0
BBX 16 15 1 0
BITMAP
003FFFFFFFFFF700
000BFFFFFFFFE100
0004FF6113FF8000
0000CFC008FF1000
00005FF30EF90000
00000DF96FF20000
000006FECFA00000
0007CEFFFFFD8100
00BFFFFFFFFFFC10
06FF833FF528FF70
0CFB002FF400AFD0
0EF7002FF4006FF1
0FF6002FF4005FF2
1FF6002FF4004FF2
1FF6002FF4004FF2
ENDCHAR
STARTCHAR uni046C
ENCODING 1132
SWIDTH 980 0
DWIDTH 27 0
BBX 24 20 2 0
BITMAP
BFC00000BFFFFFFFFFFFFD00
BFC000003FFFFFFFFFFFF600
BFC000000BFF422223EFD000
BFC0000003FF900006FF6000
BFC0000000BFF2000DFD0000
BFC00000003FF8005FF60000
BFC00000000BFE10CFD00000
BFC000000003FF74FF600000
BFC000000000BFEBFD000000
BFFFFFFFFFFFFFFFFFEC8100
BFFFFFFFFFFFFFFFFFFFFE30
BFC1111DFF8435FF8348FFC0
BFC0003FF70003FF50007FF3
BFC0007FF20003FF50001FF6
BFC0008FF00003FF50000FF8
BFC0008FF00003FF50000EF8
BFC0008FF00003FF50000EF8
BFC0008FF00003FF50000EF8
BFC0008FF00003FF50000EF8
BFC0008FF00003FF50000EF8
ENDCHAR
STARTCHAR uni046D
ENCODING 1133
SWIDTH 856 0
DWIDTH 24 0
BBX 20 15 2 0
BITMAP
FF600005FFFFFFFFFF50
FF600000DFFFFFFFFD00
FF6000006FF5115FF600
FF6000000EFA00AFE100
FF60000007FF21FF7000
FF60000001EF87FE1000
FF600000008FEDF90000
FFFFFFFFFFFFFFFEC700
FFFFFFFFFFFFFFFFFFB0
FF71118FF724FF439FF6
FF6000DF9004FF300CFB
FF6000FF6004FF3008FE
FF6002FF4004FF3006FF
FF6002FF4004FF3006FF
FF6002FF4004FF3006FF
ENDCHAR
STARTCHAR uni046E
ENCODING 1134
SWIDTH 454 0
DWIDTH 13 0
BBX 10 32 1 -6
BITMAP
01EE205FC0
004FB2EE20
0007FDF400
0000BF7000
0000000000
0000000000
4FFFED8100
4FFFFFFD20
011126EFC0
0000005FF4
0000000EF8
0000000CF9
0000000EF7
0000004FF3
000015EF90
00BFFFF800
00BFFFFA10
001125DFD1
0000002EF7
0000000AFC
00000008FD
0000000AFC
0000001EF9
000014CFF2
06DFFFFF60
6FFFFEA300
CFB1000000
EF50000000
CF80000000
6FE4000000
0BFE000000
0196000000
ENDCHAR
STARTCHAR uni046F
ENCODING 1135
SWIDTH 423 0
DWIDTH 12 0
BBX 10 28 1 -6
BITMAP
0BF502EE20
01EE2BF400
004FDF7000
0007FB0000
0000000000
0000000000
0000000000
4FFFFD9200
4FFFFFFF40
011125DFD0
0000005FF3
0000004FF2
000014DFB0
00AFFFFA10
00AFFFFB20
001125DFD1
0000002FF5
0000000FF7
0000002FF5
000014CFE1
05CFFFFF50
6FFFFEA300
CFB1000000
EF60000000
CF80000000
6FF4000000
0BFE100000
0087000000
ENDCHAR
STARTCHAR uni0470
ENCODING 1136
SWIDTH 600 0
DWIDTH 17 0
BBX 15 20 1 0
BITMAP
DFA001FF7001FF70
DFA001FF7001FF70
DFA001FF7001FF70
DFA001FF7001FF70
DFA001FF7001FF70
DFA001FF7001FF70
DFA001FF7001FF70
DFA001FF7001FF60
CFC001FF7003FF50
AFE001FF7005FF30
6FF401FF700BFE00
1EFC01FF704FF800
07FFB3FF76EFE100
009FFFFFFFFE3000
0006DFFFFE920000
000003FF80000000
000001FF70000000
000001FF70000000
000001FF70000000
000001FF70000000
ENDCHAR
STARTCHAR uni0471
ENCODING 1137
SWIDTH 612 0
DWIDTH 17 0
BBX 15 21 1 -6
BITMAP
BFA000CF900AFD00
BFA000CF9005FF30
BFA000CF9001FF70
BFA000CF9000DFA0
BFA000CF9000AFC0
BFA000CF90008FE0
BFA000CF90007FF0
BFB000CF90007FF0
AFC000CF90008FE0
7FF100CF9000CFB0
3FF600CF9004FF70
0CFD10CF902DFE10
04FFD6CFA6EFF600
005EFFFFFFFF7000
00028DFFFD920000
000000CF90000000
000000CF90000000
000000CF90000000
000000CF90000000
000000CF90000000
000000CF90000000
ENDCHAR
STARTCHAR uni0472
ENCODING 1138
SWIDTH 593 0
DWIDTH 17 0
BBX 14 20 1 0
BITMAP
00005BEFD81000
000AFFFFFFE300
00AFFA548EFE20
04FF800002EFA0
0BFC0000006FF2
1FF60000001FF7
5FF20000000BFB
7FF000000009FD
8FE000000008FE
9FFFFFFFFFFFFF
9FFFFFFFFFFFFF
8FE111111118FE
7FF000000009FD
5FF30000000BFB
1FF70000001FF7
0BFD0000006FF2
04FF800002EFB0
00AFFB547EFE20
000AFFFFFFE400
00005BEFD82000
ENDCHAR
STARTCHAR uni0473
ENCODING 1139
SWIDTH 497 0
DWIDTH 14 0
BBX 12 15 1 0
BITMAP
0005BEEC5000
009FFFFFF900
06FF8228FF60
0EF900009FE1
4FF200001FF5
8FD000000DF8
9FFFFFFFFFFA
AFFFFFFFFFFB
9FC111111CFA
8FE000000EF9
4FF300003FF5
0EFB0000BFE1
06FF9229FF70
009FFFFFF900
0005CEEC5000
ENDCHAR
STARTCHAR uni0474
ENCODING 1140
SWIDTH 553 0
DWIDTH 15 0
BBX 15 20 0 0
BITMAP
5FF5000000007D90
1FF900000006FF90
0CFD0000000DFC40
07FF2000003FF400
03FF6000008FE000
00DFA00000BFA000
009FD00001FF6000
004FF20004FF1000
001FF60008FC0000
000BFA000BF80000
0006FE001FF40000
0002FF304FE00000
0000CF708FA00000
00008FB0CF600000
00004FE1FF200000
00000EF7FC000000
00000AFEF8000000
000005FFF4000000
000001FFE0000000
000000CFA0000000
ENDCHAR
STARTCHAR uni0475
ENCODING 1141
SWIDTH 443 0
DWIDTH 12 0
BBX 13 15 0 0
BITMAP
1FF6000006EE20
0BFA00004FFF10
07FD0000BFD500
03FF2001FF6000
00DF6005FF2000
009F9008FC0000
004FD00BF80000
001EF20EF30000
000BF63FE00000
0006F96F900000
0002FD9F500000
0000DFDF100000
00008FFB000000
00004FF7000000
00000EF2000000
ENDCHAR
STARTCHAR uni0476
ENCODING 1142
SWIDTH 553 0
DWIDTH 15 0
BBX 15 24 0 0
BITMAP
04FF94FF50000000
005FF69FD1000000
0007FF4DF8000000
00009D83D9000000
5FF5000000007D90
1FF900000006FF90
0CFD0000000DFC40
07FF2000003FF400
03FF6000008FE000
00DFA00000BFA000
009FD00001FF6000
004FF20004FF1000
001FF60008FC0000
000BFA000BF80000
0006FE001FF40000
0002FF304FE00000
0000CF708FA00000
00008FB0CF600000
00004FE1FF200000
00000EF7FC000000
00000AFEF8000000
000005FFF4000000
000001FFE0000000
000000CFA0000000
ENDCHAR
STARTCHAR uni0477
ENCODING 1143
SWIDTH 443 0
DWIDTH 12 0
BBX 13 21 0 0
BITMAP
6FF77FF2000000
08FF4BFB000000
00AFE3EF500000
000BC65D700000
00000000000000
00000000000000
1FF6000006EE20
0BFA00004FFF10
07FD0000BFD500
03FF2001FF6000
00DF6005FF2000
009F9008FC0000
004FD00BF80000
001EF20EF30000
000BF63FE00000
0006F96F900000
0002FD9F500000
0000DFDF100000
00008FFB000000
00004FF7000000
00000EF2000000
ENDCHAR
ENDFONT
